<svg width="71" height="71" viewBox="0 0 71 71" fill="none" xmlns="http://www.w3.org/2000/svg">
<circle opacity="0.1" cx="35.7324" cy="35.1729" r="34.9732" fill="#0288F7"/>
<g clip-path="url(#clip0_3648_8987)">
<path d="M30.5725 34.5979C32.3971 34.5979 34.1471 33.873 35.4373 32.5828C36.7276 31.2925 37.4524 29.5426 37.4524 27.7179C37.4524 25.8932 36.7276 24.1432 35.4373 22.853C34.1471 21.5627 32.3971 20.8379 30.5725 20.8379C28.7478 20.8379 26.9978 21.5627 25.7076 22.853C24.4173 24.1432 23.6925 25.8932 23.6925 27.7179C23.6925 29.5426 24.4173 31.2925 25.7076 32.5828C26.9978 33.873 28.7478 34.5979 30.5725 34.5979ZM35.1591 27.7179C35.1591 28.9343 34.6759 30.101 33.8157 30.9611C32.9556 31.8213 31.7889 32.3045 30.5725 32.3045C29.356 32.3045 28.1894 31.8213 27.3292 30.9611C26.469 30.101 25.9858 28.9343 25.9858 27.7179C25.9858 26.5014 26.469 25.3348 27.3292 24.4746C28.1894 23.6145 29.356 23.1312 30.5725 23.1312C31.7889 23.1312 32.9556 23.6145 33.8157 24.4746C34.6759 25.3348 35.1591 26.5014 35.1591 27.7179ZM44.3324 46.0645C44.3324 48.3578 42.0391 48.3578 42.0391 48.3578H19.1058C19.1058 48.3578 16.8125 48.3578 16.8125 46.0645C16.8125 43.7712 19.1058 36.8912 30.5725 36.8912C42.0391 36.8912 44.3324 43.7712 44.3324 46.0645ZM42.0391 46.0553C42.0368 45.4912 41.6859 43.7941 40.1311 42.2392C38.6358 40.744 35.8219 39.1845 30.5725 39.1845C25.3207 39.1845 22.5091 40.744 21.0139 42.2392C19.459 43.7941 19.1104 45.4912 19.1058 46.0553H42.0391Z" fill="#0288F7"/>
<path fill-rule="evenodd" clip-rule="evenodd" d="M47.7736 27.7207C48.0777 27.7207 48.3694 27.8415 48.5844 28.0566C48.7995 28.2716 48.9203 28.5633 48.9203 28.8674V32.3074H52.3603C52.6644 32.3074 52.956 32.4282 53.1711 32.6432C53.3861 32.8582 53.5069 33.1499 53.5069 33.454C53.5069 33.7581 53.3861 34.0498 53.1711 34.2648C52.956 34.4799 52.6644 34.6007 52.3603 34.6007H48.9203V38.0407C48.9203 38.3448 48.7995 38.6364 48.5844 38.8515C48.3694 39.0665 48.0777 39.1873 47.7736 39.1873C47.4695 39.1873 47.1778 39.0665 46.9628 38.8515C46.7477 38.6364 46.6269 38.3448 46.6269 38.0407V34.6007H43.1869C42.8828 34.6007 42.5912 34.4799 42.3761 34.2648C42.1611 34.0498 42.0403 33.7581 42.0403 33.454C42.0403 33.1499 42.1611 32.8582 42.3761 32.6432C42.5912 32.4282 42.8828 32.3074 43.1869 32.3074H46.6269V28.8674C46.6269 28.5633 46.7477 28.2716 46.9628 28.0566C47.1778 27.8415 47.4695 27.7207 47.7736 27.7207Z" fill="#0288F7"/>
</g>
<defs>
<clipPath id="clip0_3648_8987">
<rect width="36.6932" height="36.6932" fill="white" transform="translate(16.8112 16.2517)"/>
</clipPath>
</defs>
</svg>
