<svg width="114" height="114" viewBox="0 0 114 114" fill="none" xmlns="http://www.w3.org/2000/svg">
<path d="M57.0014 60.0399C55.305 60.0465 53.6576 60.6101 52.3127 61.6441C50.9677 62.6781 49.9996 64.1252 49.5571 65.7629C49.1146 67.4007 49.2222 69.1384 49.8635 70.709C50.5048 72.2796 51.6441 73.5961 53.1064 74.4562V85.4999H60.9914V74.4562C62.1484 73.7718 63.1085 72.7998 63.7786 71.6345C64.4486 70.4692 64.8057 69.1503 64.8152 67.8062V67.8062C64.8152 66.7823 64.6128 65.7685 64.2195 64.8232C63.8263 63.8778 63.2499 63.0195 62.5237 62.2978C61.7975 61.576 60.9358 61.0049 59.988 60.6174C59.0403 60.2299 58.0253 60.0337 57.0014 60.0399V60.0399Z" stroke="#0288F7" stroke-width="5" stroke-linecap="round" stroke-linejoin="round"/>
<path d="M86.1886 42.2039H27.7873C22.1209 42.2039 17.5273 46.7974 17.5273 52.4639V93.0526C17.5273 98.7191 22.1209 103.313 27.7873 103.313H86.1886C91.855 103.313 96.4486 98.7191 96.4486 93.0526V52.4639C96.4486 46.7974 91.855 42.2039 86.1886 42.2039Z" stroke="#0288F7" stroke-width="5" stroke-linecap="round" stroke-linejoin="round"/>
<path d="M31.707 42.2038V36.005C31.707 29.2904 34.3744 22.8508 39.1224 18.1028C43.8703 13.3549 50.3099 10.6875 57.0245 10.6875C63.7391 10.6875 70.1788 13.3549 74.9267 18.1028C79.6747 22.8508 82.342 29.2904 82.342 36.005V42.2038" stroke="#0288F7" stroke-width="5" stroke-linecap="round" stroke-linejoin="round"/>
</svg>
