<svg width="114" height="114" viewBox="0 0 114 114" fill="none" xmlns="http://www.w3.org/2000/svg">
<path d="M92.625 59.0876V49.875H85.5V60.5625C85.5002 61.5073 85.8757 62.4132 86.5438 63.0812L96.1875 72.7249V78.375H17.8125V72.7249L27.4562 63.0812C28.1243 62.4132 28.4998 61.5073 28.5 60.5625V46.3125C28.4901 41.3065 29.8014 36.3864 32.3015 32.0494C34.8016 27.7123 38.402 24.1118 42.7389 21.6116C47.0759 19.1113 51.9959 17.7998 57.0019 17.8096C62.008 17.8193 66.9228 19.15 71.25 21.6671V13.7049C67.8588 12.2034 64.252 11.2464 60.5625 10.8692V3.5625H53.4375V10.8656C44.6544 11.7596 36.5148 15.8785 30.5925 22.4259C24.6702 28.9733 21.386 37.484 21.375 46.3125V59.0876L11.7313 68.7313C11.0632 69.3993 10.6877 70.3052 10.6875 71.25V81.9375C10.6875 82.8823 11.0628 83.7885 11.7309 84.4566C12.399 85.1247 13.3052 85.5 14.25 85.5H39.1875V89.0625C39.1875 93.7867 41.0642 98.3173 44.4047 101.658C47.7452 104.998 52.2758 106.875 57 106.875C61.7242 106.875 66.2548 104.998 69.5953 101.658C72.9358 98.3173 74.8125 93.7867 74.8125 89.0625V85.5H99.75C100.695 85.5 101.601 85.1247 102.269 84.4566C102.937 83.7885 103.312 82.8823 103.312 81.9375V71.25C103.312 70.3052 102.937 69.3993 102.269 68.7313L92.625 59.0876ZM67.6875 89.0625C67.6875 91.897 66.5615 94.6154 64.5572 96.6197C62.5529 98.624 59.8345 99.75 57 99.75C54.1655 99.75 51.4471 98.624 49.4428 96.6197C47.4385 94.6154 46.3125 91.897 46.3125 89.0625V85.5H67.6875V89.0625Z" fill="#0288F7"/>
<path d="M92.625 42.75C100.495 42.75 106.875 36.3701 106.875 28.5C106.875 20.6299 100.495 14.25 92.625 14.25C84.7549 14.25 78.375 20.6299 78.375 28.5C78.375 36.3701 84.7549 42.75 92.625 42.75Z" fill="#0288F7"/>
</svg>
