<svg width="114" height="114" viewBox="0 0 114 114" fill="none" xmlns="http://www.w3.org/2000/svg">
<path d="M60.5625 39.1875H39.1875C36.353 39.1875 33.6346 40.3135 31.6303 42.3178C29.626 44.3221 28.5 47.0405 28.5 49.875V64.125H35.625V49.875C35.625 48.9302 36.0003 48.024 36.6684 47.3559C37.3365 46.6878 38.2427 46.3125 39.1875 46.3125H60.5625C61.5073 46.3125 62.4135 46.6878 63.0816 47.3559C63.7497 48.024 64.125 48.9302 64.125 49.875V53.4375H71.25V49.875C71.25 47.0405 70.124 44.3221 68.1197 42.3178C66.1154 40.3135 63.397 39.1875 60.5625 39.1875ZM35.625 21.375C35.625 24.1934 36.4607 26.9485 38.0266 29.2919C39.5924 31.6353 41.8179 33.4617 44.4218 34.5403C47.0256 35.6188 49.8908 35.901 52.655 35.3512C55.4193 34.8014 57.9584 33.4442 59.9513 31.4513C61.9442 29.4584 63.3014 26.9193 63.8512 24.155C64.401 21.3908 64.1188 18.5256 63.0403 15.9218C61.9617 13.3179 60.1353 11.0924 57.7919 9.52656C55.4485 7.96075 52.6934 7.125 49.875 7.125C46.0957 7.125 42.4711 8.62634 39.7987 11.2987C37.1263 13.9711 35.625 17.5957 35.625 21.375ZM57 21.375C57 22.7842 56.5821 24.1617 55.7992 25.3334C55.0163 26.5051 53.9035 27.4184 52.6016 27.9576C51.2997 28.4969 49.8671 28.638 48.485 28.3631C47.1029 28.0882 45.8333 27.4096 44.8369 26.4131C43.8404 25.4167 43.1618 24.1471 42.8869 22.765C42.612 21.3829 42.7531 19.9503 43.2924 18.6484C43.8316 17.3465 44.7449 16.2337 45.9166 15.4508C47.0883 14.6679 48.4658 14.25 49.875 14.25C51.7647 14.25 53.5769 15.0007 54.9131 16.3369C56.2493 17.6731 57 19.4853 57 21.375ZM78.375 96.1875H57C55.1109 96.1856 53.2997 95.4343 51.9639 94.0986C50.6282 92.7628 49.8769 90.9516 49.875 89.0625V67.6875C49.8769 65.7984 50.6282 63.9872 51.9639 62.6514C53.2997 61.3157 55.1109 60.5644 57 60.5625H78.375C80.2641 60.5644 82.0753 61.3157 83.4111 62.6514C84.7468 63.9872 85.4981 65.7984 85.5 67.6875V89.0625C85.4981 90.9516 84.7468 92.7628 83.4111 94.0986C82.0753 95.4343 80.2641 96.1856 78.375 96.1875ZM57 67.6875V89.0625H78.375V67.6875H57ZM28.5 106.875H14.25C12.3609 106.873 10.5497 106.122 9.21395 104.786C7.87816 103.45 7.12689 101.639 7.125 99.75V14.25C7.12689 12.3609 7.87816 10.5497 9.21395 9.21395C10.5497 7.87816 12.3609 7.12689 14.25 7.125H28.5V14.25H14.25V99.75H28.5V106.875ZM99.75 106.875H85.5V99.75H99.75V14.25H85.5V7.125H99.75C101.639 7.12689 103.45 7.87816 104.786 9.21395C106.122 10.5497 106.873 12.3609 106.875 14.25V99.75C106.873 101.639 106.122 103.45 104.786 104.786C103.45 106.122 101.639 106.873 99.75 106.875Z" fill="#0288F7"/>
</svg>
