<svg width="36" height="37" viewBox="0 0 36 37" fill="none" xmlns="http://www.w3.org/2000/svg">
<path d="M29.25 19.1593V16.25H27V19.625C27.0001 19.9233 27.1186 20.2094 27.3296 20.4204L30.375 23.4657V25.25H5.625V23.4657L8.67037 20.4204C8.88137 20.2094 8.99994 19.9233 9 19.625V15.125C8.99686 13.5441 9.41096 11.9905 10.2005 10.6209C10.99 9.25126 12.1269 8.11426 13.4965 7.32471C14.8661 6.53515 16.4198 6.121 18.0006 6.12408C19.5815 6.12716 21.1335 6.54736 22.5 7.34225V4.82787C21.4291 4.35371 20.2901 4.05149 19.125 3.93238V1.625H16.875V3.93125C14.1014 4.21355 11.531 5.51426 9.66079 7.58185C7.7906 9.64945 6.75349 12.3371 6.75 15.125V19.1593L3.70462 22.2046C3.49363 22.4156 3.37506 22.7017 3.375 23V26.375C3.375 26.6734 3.49353 26.9595 3.7045 27.1705C3.91548 27.3815 4.20163 27.5 4.5 27.5H12.375V28.625C12.375 30.1168 12.9676 31.5476 14.0225 32.6025C15.0774 33.6574 16.5082 34.25 18 34.25C19.4918 34.25 20.9226 33.6574 21.9775 32.6025C23.0324 31.5476 23.625 30.1168 23.625 28.625V27.5H31.5C31.7984 27.5 32.0845 27.3815 32.2955 27.1705C32.5065 26.9595 32.625 26.6734 32.625 26.375V23C32.6249 22.7017 32.5064 22.4156 32.2954 22.2046L29.25 19.1593ZM21.375 28.625C21.375 29.5201 21.0194 30.3786 20.3865 31.0115C19.7536 31.6444 18.8951 32 18 32C17.1049 32 16.2464 31.6444 15.6135 31.0115C14.9806 30.3786 14.625 29.5201 14.625 28.625V27.5H21.375V28.625Z" fill="#0288F7"/>
<path d="M29.25 14C31.7353 14 33.75 11.9853 33.75 9.5C33.75 7.01472 31.7353 5 29.25 5C26.7647 5 24.75 7.01472 24.75 9.5C24.75 11.9853 26.7647 14 29.25 14Z" fill="#0288F7"/>
</svg>
