<svg width="90" height="90" viewBox="0 0 90 90" fill="none" xmlns="http://www.w3.org/2000/svg">
<path d="M70.9545 41.3441L69.4741 41.586L69.656 42.6991L70.7759 42.8334L70.9545 41.3441ZM28.9155 34.3679L28.5128 35.8128L29.669 36.135L30.237 35.0777L28.9155 34.3679ZM72.4349 41.1022C70.5718 29.7008 60.6785 21 48.75 21V24C59.1847 24 67.8444 31.612 69.4741 41.586L72.4349 41.1022ZM84 54.375C84 46.8924 78.382 40.7242 71.1331 39.8547L70.7759 42.8334C76.535 43.5241 81 48.4292 81 54.375H84ZM69.375 69C77.4522 69 84 62.4522 84 54.375H81C81 60.7953 75.7953 66 69.375 66V69ZM48.75 69H69.375V66H48.75V69ZM24.375 69H48.75V66H24.375V69ZM6 50.625C6 60.7732 14.2268 69 24.375 69V66C15.8836 66 9 59.1164 9 50.625H6ZM24.375 32.25C14.2268 32.25 6 40.4768 6 50.625H9C9 42.1336 15.8836 35.25 24.375 35.25V32.25ZM29.3183 32.923C27.7437 32.4841 26.0855 32.25 24.375 32.25V35.25C25.8107 35.25 27.198 35.4464 28.5128 35.8128L29.3183 32.923ZM48.75 21C39.5951 21 31.6399 26.1264 27.5941 33.6581L30.237 35.0777C33.7809 28.4803 40.7434 24 48.75 24V21Z" fill="#0288F7"/>
<path d="M45 41.25V56.25" stroke="#0288F7" stroke-width="3" stroke-linecap="round"/>
<path d="M52.5 45L45 37.5L37.5 45" stroke="#0288F7" stroke-width="3" stroke-linecap="round"/>
</svg>
