<svg width="38" height="36" viewBox="0 0 38 36" fill="none" xmlns="http://www.w3.org/2000/svg">
<path fill-rule="evenodd" clip-rule="evenodd" d="M28.3336 11.2771C33.5737 11.2771 37.5045 14.7033 37.5045 22.0648V35.8071H29.5386V22.9836C29.5386 19.7627 28.3864 17.565 25.5023 17.565C23.3023 17.565 21.9916 19.047 21.4167 20.4773C21.2055 20.99 21.1539 21.7058 21.1539 22.4215V35.8083H13.1868L13.1881 35.5397C13.1949 34.0945 13.2264 27.0832 13.2327 21.0273L13.2328 17.3648C13.2293 14.605 13.2163 12.466 13.1868 11.8391H21.1539V15.2348C22.2099 13.6026 24.1048 11.2771 28.3336 11.2771ZM8.77739 11.8391V35.8071H0.811529V11.8391H8.77739ZM4.84667 0.285156C7.57119 0.285156 9.25025 2.07451 9.30187 4.42473C9.30187 6.72683 7.57118 8.56781 4.79387 8.56781H4.74342C2.06936 8.56781 0.339844 6.72683 0.339844 4.42473C0.339844 2.07451 2.12216 0.285156 4.84667 0.285156Z" fill="black"/>
</svg>
