<svg width="177" height="100" viewBox="0 0 177 100" fill="none" xmlns="http://www.w3.org/2000/svg">
<path d="M143.536 96.0724C135.193 96.0724 128.405 89.2846 128.405 80.941C128.405 72.5973 135.193 65.8096 143.536 65.8096C151.88 65.8096 158.668 72.5973 158.668 80.941C158.668 89.2846 151.88 96.0724 143.536 96.0724ZM143.536 68.7764C136.829 68.7764 131.372 74.2335 131.372 80.941C131.372 87.6485 136.829 93.1055 143.536 93.1055C150.244 93.1055 155.701 87.6485 155.701 80.941C155.701 74.2335 150.244 68.7764 143.536 68.7764Z" fill="#DAE6EC"/>
<path d="M164.915 37.2265C158.281 37.2265 152.883 31.8296 152.883 25.1941C152.883 18.5597 158.28 13.1616 164.915 13.1616C171.55 13.1616 176.948 18.5585 176.948 25.1941C176.948 31.8284 171.551 37.2265 164.915 37.2265ZM164.915 16.1284C159.917 16.1284 155.85 20.1947 155.85 25.1941C155.85 30.1923 159.916 34.2597 164.915 34.2597C169.913 34.2597 173.981 30.1934 173.981 25.1941C173.981 20.1959 169.915 16.1284 164.915 16.1284Z" fill="#CCE6FF"/>
<path d="M13.9116 45.8233C6.24036 45.8233 0 39.5829 0 31.9116C0 24.2404 6.24036 18 13.9116 18C21.5829 18 27.8233 24.2404 27.8233 31.9116C27.8233 39.5829 21.5817 45.8233 13.9116 45.8233ZM13.9116 20.9668C7.87653 20.9668 2.96682 25.8765 2.96682 31.9116C2.96682 37.9467 7.87653 42.8564 13.9116 42.8564C19.9467 42.8564 24.8564 37.9467 24.8564 31.9116C24.8564 25.8765 19.9467 20.9668 13.9116 20.9668Z" fill="#0064BF"/>
<path d="M33.1274 99.7469C27.4745 99.7469 22.875 95.1474 22.875 89.4945C22.875 83.8417 27.4745 79.2422 33.1274 79.2422C38.7802 79.2422 43.3797 83.8417 43.3797 89.4945C43.3809 95.1474 38.7814 99.7469 33.1274 99.7469ZM33.1274 82.209C29.1095 82.209 25.8418 85.4778 25.8418 89.4945C25.8418 93.5124 29.1106 96.7801 33.1274 96.7801C37.1452 96.7801 40.4129 93.5113 40.4129 89.4945C40.4141 85.4767 37.1452 82.209 33.1274 82.209Z" fill="#0059AC"/>
<path d="M45.2838 70.8047C42.5022 70.8047 40.2396 68.5421 40.2396 65.7605C40.2396 62.9789 42.5022 60.7163 45.2838 60.7163C48.0654 60.7163 50.328 62.9789 50.328 65.7605C50.328 68.5421 48.0654 70.8047 45.2838 70.8047ZM45.2838 63.6831C44.1384 63.6831 43.2065 64.6151 43.2065 65.7605C43.2065 66.9059 44.1384 67.8379 45.2838 67.8379C46.4293 67.8379 47.3612 66.9059 47.3612 65.7605C47.3612 64.6151 46.4293 63.6831 45.2838 63.6831Z" fill="#DAE6EC"/>
<path d="M105.318 96.9033C102.536 96.9033 100.274 94.6408 100.274 91.8591C100.274 89.0775 102.536 86.8149 105.318 86.8149C108.099 86.8149 110.362 89.0775 110.362 91.8591C110.362 94.6408 108.098 96.9033 105.318 96.9033ZM105.318 89.7818C104.172 89.7818 103.24 90.7137 103.24 91.8591C103.24 93.0046 104.172 93.9365 105.318 93.9365C106.463 93.9365 107.395 93.0046 107.395 91.8591C107.395 90.7137 106.463 89.7818 105.318 89.7818Z" fill="#0064BF"/>
<path d="M115.332 62.2287L113.833 64.7891L131.22 74.9655L132.719 72.4051L115.332 62.2287Z" fill="#DAE6EC"/>
<path d="M153.907 28.188L113.775 41.4556L114.706 44.2726L154.839 31.005L153.907 28.188Z" fill="#CCE6FF"/>
<path d="M26.4009 33.5099L25.5482 36.3516L57.4908 45.9363L58.3435 43.0947L26.4009 33.5099Z" fill="#0064BF"/>
<path d="M57.603 60.4248L48.0299 62.4922L48.6562 65.3923L58.2293 63.3249L57.603 60.4248Z" fill="#DAE6EC"/>
<path d="M63.1666 71.1826L40.0703 83.9189L41.503 86.517L64.5993 73.7807L63.1666 71.1826Z" fill="#0059AC"/>
<path d="M101.389 79.1211L98.6954 80.3647L102.646 88.921L105.34 87.6773L101.389 79.1211Z" fill="#0064BF"/>
<path d="M66.5727 9.05347C69.346 8.84467 71.7726 10.9303 71.9825 13.7037C72.1913 16.477 70.1057 18.9036 67.3324 19.1135C64.559 19.3223 62.1324 17.2367 61.9236 14.4634C61.7125 11.6888 63.7993 9.26227 66.5727 9.05347ZM67.1082 16.155C68.2501 16.0689 69.1101 15.0697 69.024 13.9266C68.9379 12.7847 67.9387 11.9247 66.7956 12.0109C65.6537 12.097 64.7937 13.0961 64.8799 14.2392C64.966 15.3823 65.9663 16.2411 67.1082 16.155Z" fill="#CCE6FF"/>
<path d="M69.8346 16.8207L67.2422 18.2632L71.8243 26.4981L74.4167 25.0556L69.8346 16.8207Z" fill="#CCE6FF"/>
<path d="M116 2.22908C117.551 4.53766 116.935 7.67789 114.627 9.22914C112.318 10.7804 109.178 10.1646 107.627 7.85602C106.076 5.54744 106.691 2.40721 109 0.855964C111.309 -0.695279 114.449 -0.0795002 116 2.22908ZM110.089 6.20097C110.728 7.15177 112.021 7.40539 112.972 6.76602C113.923 6.12665 114.176 4.83375 113.538 3.88295C112.899 2.93215 111.606 2.67853 110.655 3.3179C109.704 3.95727 109.451 5.25017 110.089 6.20097Z" fill="#0059AC"/>
<path d="M110.867 8.89825L100.728 26.3099L98.194 24.7681L108.333 7.35645L110.867 8.89825Z" fill="#0059AC"/>
<path d="M114.357 47.968L117.703 47.7308C116.291 39.406 111.609 32.1795 105.029 27.4243L103.273 30.272C108.971 34.4645 113.046 40.7414 114.357 47.968Z" fill="#0059AC"/>
<path d="M86.5826 24.7928C92.823 24.7928 98.5962 26.8289 103.275 30.2711L105.03 27.4234C99.8372 23.671 93.4636 21.4556 86.5815 21.4556C79.7996 21.4556 73.5109 23.6061 68.3594 27.2595L70.5099 29.8276C75.0751 26.6555 80.6148 24.7928 86.5826 24.7928Z" fill="#0064BF"/>
<path d="M70.5119 29.8313L68.3614 27.2632C64.9994 29.6473 62.1246 32.6742 59.9127 36.1613L62.804 37.834C64.8224 34.6867 67.4448 31.9629 70.5119 29.8313Z" fill="#DAE6EC"/>
<path d="M117.704 47.7286L114.359 47.9657C114.657 49.6066 114.813 51.2971 114.813 53.0229C114.813 68.5896 102.148 81.2543 86.5816 81.2543C71.0149 81.2543 58.3501 68.5896 58.3501 53.0229C58.3501 47.4325 59.9863 42.2185 62.801 37.829L59.9096 36.1562C56.8107 41.0388 55.0117 46.8238 55.0117 53.0229C55.0117 70.4299 69.1734 84.5916 86.5804 84.5916C103.987 84.5916 118.149 70.4299 118.149 53.0229C118.15 51.2181 117.996 49.4498 117.704 47.7286Z" fill="#CCE6FF"/>
<path d="M38.2705 88.4779C38.2705 88.3304 38.1702 88.2054 38.0274 88.1736L36.9198 87.9258L37.5285 86.9656C37.6075 86.8417 37.5898 86.6825 37.486 86.5787L36.0456 85.136C35.9442 85.0345 35.7767 85.0168 35.6587 85.0935L34.7008 85.7022L34.4531 84.5933C34.4212 84.4494 34.2962 84.3491 34.1487 84.3491L32.1127 84.3491C31.9652 84.3491 31.8402 84.4494 31.8083 84.5933L31.5606 85.7022L30.6039 85.0935C30.4836 85.0156 30.3172 85.0345 30.2158 85.136L28.7766 86.5787C28.674 86.6825 28.6563 86.8417 28.7341 86.9656L29.3428 87.9258L28.2352 88.1736C28.0912 88.2054 27.991 88.3304 27.991 88.4779L27.991 90.5175C27.991 90.665 28.0912 90.79 28.234 90.8219L29.3417 91.0696L28.733 92.0298C28.6539 92.1537 28.6716 92.313 28.7754 92.4168L30.2146 93.8583C30.3149 93.9597 30.4824 93.9774 30.6027 93.9019L31.5606 93.2932L31.8083 94.4021C31.8402 94.5437 31.9676 94.6463 32.1127 94.6463L34.1487 94.6463C34.2962 94.6463 34.4212 94.546 34.4531 94.4021L34.7008 93.2932L35.6587 93.9019C35.779 93.9786 35.9465 93.9597 36.0456 93.8583L37.4848 92.4156C37.5874 92.3141 37.6051 92.1513 37.5285 92.0287L36.9198 91.0684L38.0274 90.8207C38.1714 90.7888 38.2716 90.6638 38.2716 90.5163L38.2705 88.4779ZM33.1236 91.7739C33.1225 91.7739 33.1225 91.7739 33.1213 91.7739L33.0918 91.7727C31.9345 91.7526 30.9932 90.7924 30.9932 89.6328C30.9932 88.4744 31.9345 87.5141 33.0906 87.4929C33.1036 87.4929 33.1166 87.4917 33.1283 87.4917L33.1354 87.4917C34.3115 87.4953 35.2671 88.4543 35.2671 89.6328C35.2682 90.8124 34.3104 91.7739 33.1236 91.7739Z" fill="white"/>
<path d="M164.915 18.9453C160.922 18.9453 157.672 21.4969 157.672 24.6336C157.672 27.7703 160.921 30.3219 164.915 30.3219C165.124 30.3219 165.34 30.3136 165.557 30.2983L166.125 31.6738C166.169 31.7799 166.263 31.8542 166.372 31.8719C166.391 31.8755 166.411 31.8778 166.431 31.8778C166.525 31.8778 166.615 31.8377 166.676 31.7681L168.75 29.4607C170.885 28.4144 172.158 26.6119 172.158 24.6336C172.158 21.4969 168.909 18.9453 164.915 18.9453ZM162.202 26.0952C161.724 26.0952 161.336 25.7071 161.336 25.2293C161.336 24.7516 161.724 24.3635 162.202 24.3635C162.68 24.3635 163.068 24.7516 163.068 25.2293C163.066 25.7071 162.678 26.0952 162.202 26.0952ZM164.935 26.0952C164.457 26.0952 164.069 25.7071 164.069 25.2293C164.069 24.7516 164.457 24.3635 164.935 24.3635C165.413 24.3635 165.801 24.7516 165.801 25.2293C165.801 25.7071 165.413 26.0952 164.935 26.0952ZM167.543 26.0952C167.065 26.0952 166.677 25.7071 166.677 25.2293C166.677 24.7516 167.065 24.3635 167.543 24.3635C168.021 24.3635 168.409 24.7516 168.409 25.2293C168.408 25.7071 168.02 26.0952 167.543 26.0952Z" fill="white"/>
<path d="M88.4012 69.5746L98.6736 65.4329C99.011 65.2972 99.1809 64.9174 99.0582 64.5753L98.9143 64.1754C98.8919 64.1128 98.9048 64.0432 98.9449 63.9902C101.008 61.2888 99.5985 57.692 99.5985 57.692L97.5294 52.4036C97.5258 52.393 97.5246 52.3883 97.5211 52.3788C97.4822 52.1972 96.903 49.6798 95.025 49.6798C93.9397 49.6798 93.3404 50.1528 93.0231 50.5728C92.9181 50.712 92.7034 50.6766 92.6633 50.5079C92.5335 49.9653 92.1053 49.2787 90.7912 49.1301C89.332 48.9649 88.7504 49.7836 88.5215 50.377C88.4602 50.5362 88.2349 50.548 88.1606 50.3947C87.6887 49.4167 86.6836 48.2819 85.4132 48.7054C84.5414 48.9956 84.1415 49.5571 83.9586 49.983C83.8867 50.1505 83.6531 50.1517 83.5871 49.9818L81.4755 44.5554C81.4755 44.5554 80.4598 41.2948 78.3423 42.0994C76.2248 42.9039 77.3679 45.6985 77.3679 45.6985L82.2434 58.5791C82.3107 58.7572 82.1148 58.92 81.9521 58.8209L79.6258 57.4148C79.6163 57.4077 79.6116 57.4042 79.6022 57.3983C79.4335 57.2508 76.9727 55.1581 75.4191 56.7931C73.8714 58.4222 75.5749 60.2082 75.7082 60.3415C75.7164 60.3486 75.7211 60.3521 75.7294 60.3592L87.2758 68.7453C87.2971 68.7713 87.3183 68.7961 87.3395 68.822L87.533 69.2349C87.6863 69.5593 88.0674 69.7091 88.4012 69.5746Z" fill="white"/>
<path d="M102.776 71.6449L100.462 66.4368C100.295 66.0617 99.8625 65.8871 99.4815 66.0392L88.1462 70.6033C87.7428 70.7661 87.5576 71.2332 87.7392 71.6284L90.095 76.7399C90.2637 77.1067 90.6907 77.2778 91.0658 77.1291L102.361 72.6618C102.763 72.5026 102.952 72.0401 102.776 71.6449Z" fill="white"/>
<path d="M74.8956 37.4265C75.1032 37.9656 75.6164 38.2947 76.1602 38.2947C76.3218 38.2947 76.487 38.2652 76.6462 38.2039C77.3446 37.9349 77.6926 37.1505 77.4236 36.4521L76.008 32.7775C75.7391 32.0791 74.9546 31.7311 74.2562 32.0001C73.5579 32.2691 73.2099 33.0535 73.4789 33.7519L74.8956 37.4265Z" fill="white"/>
<path d="M68.7592 39.6889L72.3583 41.2873C72.5364 41.3663 72.724 41.4041 72.9069 41.4041C73.4259 41.4041 73.9214 41.1033 74.1455 40.5984C74.4487 39.9142 74.1408 39.1132 73.4566 38.81L69.8574 37.2116C69.1744 36.9072 68.3735 37.2151 68.0691 37.9005C67.7671 38.5847 68.075 39.3845 68.7592 39.6889Z" fill="white"/>
<path d="M87.81 45.146L84.2097 43.5475C83.5267 43.2432 82.7245 43.5511 82.4214 44.2365C82.1182 44.9207 82.4261 45.7216 83.1103 46.0248L86.7106 47.6232C86.8887 47.7023 87.0763 47.74 87.2591 47.74C87.7782 47.74 88.2736 47.4392 88.4978 46.9343C88.8021 46.2501 88.493 45.4491 87.81 45.146Z" fill="white"/>
<path d="M74.0732 44.0509C73.8043 43.3526 73.0198 43.0046 72.3214 43.2735L68.6457 44.6891C67.9473 44.9581 67.5993 45.7414 67.8683 46.4409C68.0759 46.9788 68.589 47.3091 69.1329 47.3091C69.2945 47.3091 69.4596 47.2796 69.6189 47.2183L73.2947 45.8027C73.9942 45.5337 74.3422 44.7505 74.0732 44.0509Z" fill="white"/>
<path d="M82.4958 40.771C82.7035 41.3089 83.2166 41.6392 83.7604 41.6392C83.922 41.6392 84.0872 41.6097 84.2464 41.5484L87.9222 40.1328C88.6206 39.8638 88.9686 39.0805 88.6996 38.381C88.4307 37.6827 87.6474 37.3358 86.9478 37.6036L83.2721 39.0192C82.5749 39.2893 82.2269 40.0726 82.4958 40.771Z" fill="white"/>
<path d="M75.5549 51.9345L77.1533 48.3354C77.4565 47.6512 77.1486 46.8502 76.4644 46.547C75.7814 46.2439 74.9804 46.5506 74.676 47.236L73.0776 50.8351C72.7744 51.5193 73.0823 52.3203 73.7665 52.6234C73.9447 52.7025 74.1322 52.7402 74.3151 52.7402C74.8353 52.7402 75.3308 52.4394 75.5549 51.9345Z" fill="white"/>
<path d="M80.1028 38.2812C80.2809 38.3602 80.4685 38.398 80.6513 38.398C81.1704 38.398 81.6658 38.0971 81.8899 37.5923L83.4884 33.992C83.7915 33.3078 83.4837 32.5068 82.7995 32.2036C82.1153 31.8993 81.3143 32.2083 81.0111 32.8925L79.4127 36.4928C79.1107 37.177 79.4198 37.978 80.1028 38.2812Z" fill="white"/>
<path d="M146.925 72.4766L140.154 72.4766C139.37 72.4766 138.736 73.1242 138.736 73.924L138.736 87.9607C138.736 88.7605 139.37 89.4081 140.154 89.4081L146.925 89.4081C147.708 89.4081 148.342 88.7593 148.342 87.9607L148.342 73.924C148.342 73.1254 147.708 72.4766 146.925 72.4766ZM144.419 88.2226C144.419 88.4137 144.265 88.5682 144.075 88.5682L143.003 88.5682C142.813 88.5682 142.657 88.4137 142.657 88.2226L142.657 87.6315C142.657 87.4404 142.811 87.2871 143.003 87.2871L144.075 87.2871C144.265 87.2871 144.419 87.4416 144.419 87.6315L144.419 88.2226ZM146.346 86.3009L140.733 86.3009C140.352 86.3009 140.043 85.9918 140.043 85.6108L140.043 74.7875C140.043 74.4065 140.352 74.0974 140.733 74.0974L146.346 74.0974C146.727 74.0974 147.036 74.4065 147.036 74.7875L147.036 85.6096C147.036 85.9918 146.727 86.3009 146.346 86.3009Z" fill="white"/>
<path d="M18.8764 29.9649C18.7242 29.9649 18.5697 29.9743 18.4164 29.9944C18.4329 29.8469 18.44 29.7077 18.44 29.5744C18.44 27.2375 16.5384 25.3359 14.2015 25.3359C12.36 25.3359 10.7227 26.5415 10.1671 28.2886C10.0385 28.2768 9.91697 28.2721 9.799 28.2721C7.32055 28.2721 5.30334 30.2893 5.30334 32.7677C5.30334 35.2462 7.32055 37.2634 9.799 37.2634L18.8764 37.2634C20.8877 37.2634 22.5251 35.6272 22.5251 33.6147C22.5251 31.6022 20.8889 29.9649 18.8764 29.9649Z" fill="white"/>
</svg>
