<svg width="114" height="114" viewBox="0 0 114 114" fill="none" xmlns="http://www.w3.org/2000/svg">
<path d="M7.125 33.8438C7.125 29.592 8.814 25.5144 11.8204 22.5079C14.8269 19.5015 18.9045 17.8125 23.1562 17.8125H90.8438C95.0955 17.8125 99.1731 19.5015 102.18 22.5079C105.186 25.5144 106.875 29.592 106.875 33.8438V80.1562C106.875 84.408 105.186 88.4856 102.18 91.4921C99.1731 94.4985 95.0955 96.1875 90.8438 96.1875H23.1562C18.9045 96.1875 14.8269 94.4985 11.8204 91.4921C8.814 88.4856 7.125 84.408 7.125 80.1562V33.8438ZM23.1562 24.9375C20.7942 24.9375 18.5288 25.8758 16.8586 27.5461C15.1883 29.2163 14.25 31.4817 14.25 33.8438V39.1875H99.75V33.8438C99.75 31.4817 98.8117 29.2163 97.1414 27.5461C95.4712 25.8758 93.2058 24.9375 90.8438 24.9375H23.1562ZM14.25 80.1562C14.25 82.5183 15.1883 84.7837 16.8586 86.4539C18.5288 88.1242 20.7942 89.0625 23.1562 89.0625H90.8438C93.2058 89.0625 95.4712 88.1242 97.1414 86.4539C98.8117 84.7837 99.75 82.5183 99.75 80.1562V46.3125H14.25V80.1562ZM74.8125 67.6875H85.5C86.4448 67.6875 87.351 68.0628 88.0191 68.7309C88.6872 69.399 89.0625 70.3052 89.0625 71.25C89.0625 72.1948 88.6872 73.101 88.0191 73.7691C87.351 74.4372 86.4448 74.8125 85.5 74.8125H74.8125C73.8677 74.8125 72.9615 74.4372 72.2934 73.7691C71.6253 73.101 71.25 72.1948 71.25 71.25C71.25 70.3052 71.6253 69.399 72.2934 68.7309C72.9615 68.0628 73.8677 67.6875 74.8125 67.6875Z" fill="#0288F7"/>
</svg>
