<svg width="36" height="37" viewBox="0 0 36 37" fill="none" xmlns="http://www.w3.org/2000/svg">
<path d="M2.25 11.1875C2.25 9.84484 2.78337 8.55717 3.73277 7.60777C4.68217 6.65837 5.96984 6.125 7.3125 6.125H28.6875C30.0302 6.125 31.3178 6.65837 32.2672 7.60777C33.2166 8.55717 33.75 9.84484 33.75 11.1875V25.8125C33.75 27.1552 33.2166 28.4428 32.2672 29.3922C31.3178 30.3416 30.0302 30.875 28.6875 30.875H7.3125C5.96984 30.875 4.68217 30.3416 3.73277 29.3922C2.78337 28.4428 2.25 27.1552 2.25 25.8125V11.1875ZM7.3125 8.375C6.56658 8.375 5.85121 8.67132 5.32376 9.19876C4.79632 9.72621 4.5 10.4416 4.5 11.1875V12.875H31.5V11.1875C31.5 10.4416 31.2037 9.72621 30.6762 9.19876C30.1488 8.67132 29.4334 8.375 28.6875 8.375H7.3125ZM4.5 25.8125C4.5 26.5584 4.79632 27.2738 5.32376 27.8012C5.85121 28.3287 6.56658 28.625 7.3125 28.625H28.6875C29.4334 28.625 30.1488 28.3287 30.6762 27.8012C31.2037 27.2738 31.5 26.5584 31.5 25.8125V15.125H4.5V25.8125ZM23.625 21.875H27C27.2984 21.875 27.5845 21.9935 27.7955 22.2045C28.0065 22.4155 28.125 22.7016 28.125 23C28.125 23.2984 28.0065 23.5845 27.7955 23.7955C27.5845 24.0065 27.2984 24.125 27 24.125H23.625C23.3266 24.125 23.0405 24.0065 22.8295 23.7955C22.6185 23.5845 22.5 23.2984 22.5 23C22.5 22.7016 22.6185 22.4155 22.8295 22.2045C23.0405 21.9935 23.3266 21.875 23.625 21.875Z" fill="black"/>
</svg>
