<svg width="53" height="45" viewBox="0 0 53 45" fill="none" xmlns="http://www.w3.org/2000/svg">
<g clip-path="url(#clip0_2319_1340)">
<path d="M39.1773 28.97C43.0121 28.97 46.847 28.97 50.6818 28.97C50.6818 28.8624 50.6818 28.7547 50.6818 28.6829C50.6818 20.6438 50.6818 12.6046 50.6818 4.56547C50.6818 3.70413 50.2476 3.27346 49.3794 3.27346C34.1125 3.27346 18.8818 3.27346 3.61486 3.27346C2.78278 3.27346 2.31247 3.70413 2.31247 4.56547C2.31247 12.6046 2.31247 20.6438 2.31247 28.6829C2.31247 28.7906 2.31247 28.8624 2.31247 28.97C2.89131 28.97 3.43398 28.97 4.01282 28.97C4.01282 31.4464 4.01282 33.9227 4.01282 36.3632C3.0722 36.4709 2.20394 36.2914 1.40804 35.7172C0.431245 34.9994 -0.0390625 34.0304 -0.0390625 32.8461C-0.0390625 23.4072 -0.0390625 13.9325 -0.0390625 4.49369C-0.00288502 2.51979 1.58892 0.976562 3.61486 0.976562C12.1889 1.01245 20.7992 0.976562 29.3732 0.976562C36.0299 0.976562 42.6504 0.976562 49.307 0.976562C50.1753 0.976562 51.0074 1.1919 51.6947 1.76612C52.5268 2.44801 52.9248 3.30935 52.9609 4.35014C52.9609 4.4578 52.9609 4.52958 52.9609 4.63725C52.9609 14.0402 52.9609 23.4072 52.9609 32.8102C52.9609 33.7792 52.7077 34.6405 52.0203 35.3224C51.4053 35.9684 50.6456 36.3632 49.7412 36.3991C48.1493 36.435 46.5937 36.3991 45.0019 36.3991C43.1569 36.3991 41.2756 36.3991 39.4306 36.3991C39.2135 36.3991 39.1412 36.3632 39.1412 36.112C39.1412 33.8151 39.1412 31.5541 39.1412 29.2572C39.1412 29.1854 39.1773 29.0777 39.1773 28.97Z" fill="#0288F7"/>
<path d="M20.4728 44.9413C20.5089 44.9054 20.5089 44.8695 20.5451 44.8336C21.1239 44.1158 21.3772 43.2904 21.341 42.3932C21.3048 41.7471 21.341 41.1011 21.341 40.4193C26.1526 40.4193 30.928 40.4193 35.7035 40.4193C35.7035 32.0212 35.7035 23.6591 35.7035 15.2969C29.0106 15.2969 22.3178 15.2969 15.5888 15.2969C15.5888 15.4046 15.5888 15.4763 15.5888 15.584C15.5888 16.7325 15.5888 17.8809 15.5888 18.9935C15.5888 19.2088 15.5526 19.2806 15.3356 19.2806C14.7567 19.2806 14.1417 19.2806 13.5267 19.2806C13.4543 19.2806 13.382 19.2806 13.2734 19.2806C13.2734 19.1729 13.2734 19.1011 13.2734 18.9935C13.2734 17.6297 13.2734 16.2659 13.2734 14.8662C13.2734 13.7537 14.0332 13 15.1547 13C22.2093 13 29.2639 13 36.2823 13C37.2953 13 38.0188 13.7178 38.055 14.7227C38.055 14.7945 38.055 14.8303 38.055 14.9021C38.055 24.1974 38.055 33.4927 38.055 42.7879C38.055 43.398 37.9103 43.9723 37.4762 44.4388C37.1867 44.7977 36.7888 44.9772 36.3185 44.9772C31.1089 44.9772 25.9356 44.9772 20.726 44.9772C20.6536 44.9772 20.5813 44.9772 20.4728 44.9413ZM25.827 41.3165C25.2844 41.3165 24.8502 41.7471 24.8502 42.3214C24.8502 42.8956 25.2844 43.398 25.827 43.398C26.3697 43.398 26.8038 42.9315 26.8038 42.3573C26.8038 41.783 26.3697 41.3165 25.827 41.3165Z" fill="#0288F7"/>
<path d="M20.1884 32.6288C20.1884 35.9306 20.1884 39.2324 20.1884 42.5342C20.1884 43.4314 19.8628 44.1133 19.1031 44.6157C18.7775 44.8311 18.3795 44.9388 17.9816 44.9388C14.4724 44.9388 10.9632 44.9388 7.45394 44.9388C6.26008 44.9388 5.28329 43.9697 5.21094 42.8213C5.21094 42.7495 5.21094 42.6777 5.21094 42.606C5.21094 35.9665 5.21094 29.327 5.21094 22.6875C5.21094 21.5391 5.93449 20.7854 6.80275 20.4983C7.05599 20.4265 7.30923 20.3906 7.59865 20.3906C11.0355 20.3906 14.4724 20.3906 17.8731 20.3906C19.284 20.3906 20.1884 21.3237 20.1884 22.7234C20.1884 26.0611 20.1884 29.3629 20.1884 32.6288ZM7.5263 22.7234C7.5263 22.8311 7.5263 22.9387 7.5263 23.0464C7.5263 28.5374 7.5263 34.0285 7.5263 39.5195C7.5263 39.7707 7.59865 39.8425 7.85189 39.8425C11.1079 39.8425 14.3277 39.8425 17.5836 39.8425C17.6922 39.8425 17.7645 39.8425 17.8731 39.8425C17.8731 34.1361 17.8731 28.4298 17.8731 22.7234C14.4 22.7234 10.9632 22.7234 7.5263 22.7234ZM13.5679 42.3547C13.5679 41.7805 13.1338 41.314 12.5911 41.314C12.0847 41.314 11.6143 41.8164 11.6143 42.3547C11.6143 42.929 12.0485 43.3955 12.5911 43.3955C13.1338 43.3955 13.5679 42.929 13.5679 42.3547Z" fill="#0288F7"/>
<path d="M44.3531 44.4035C42.6165 44.4035 40.9162 44.4035 39.1797 44.4035C39.1797 44.3317 39.1797 44.2599 39.1797 44.1882C39.1797 43.1833 39.1797 42.1784 39.1797 41.2094C39.1797 41.0658 39.252 40.8864 39.3606 40.7787C39.5415 40.5634 39.7585 40.5634 39.9394 40.7787C40.0841 40.9581 40.1927 41.1735 40.265 41.3529C40.4821 41.9989 40.9162 42.4296 41.5312 42.7167C42.0377 42.932 42.5442 43.0756 43.0507 43.255C43.3401 43.3627 43.6657 43.4345 43.9551 43.5063C44.3531 43.6498 44.3892 43.6857 44.3892 44.1164C44.3531 44.1882 44.3531 44.2958 44.3531 44.4035Z" fill="#0288F7"/>
</g>
<defs>
<clipPath id="clip0_2319_1340">
<rect width="53" height="44" fill="white" transform="translate(0 0.976562)"/>
</clipPath>
</defs>
</svg>
