<svg width="47" height="46" viewBox="0 0 47 46" fill="none" xmlns="http://www.w3.org/2000/svg">
<g clip-path="url(#clip0_2319_1361)">
<path d="M0.645264 24.5486C0.645264 23.5952 0.645264 22.4035 0.645264 21.4501C0.645264 21.2118 0.645264 21.2118 0.645264 20.9735C0.883606 19.5434 1.12195 18.1133 1.36029 16.6833C4.69708 4.52786 17.3292 -2.6224 29.4846 0.714387C40.6867 3.81283 47.837 14.5382 46.1686 25.9786C45.4536 31.4605 43.0701 35.989 38.78 39.8025C35.4432 42.9009 31.6297 44.8077 27.3396 45.5227C26.6245 45.761 25.6712 45.761 24.9561 45.761C24.0028 45.761 22.8111 45.761 21.8577 45.761C21.381 45.761 20.666 45.5227 20.1893 45.5227C14.7074 44.8077 10.1789 42.4242 6.60381 38.3724C3.50537 35.0356 1.59863 31.2222 0.883606 26.6937C0.883606 26.217 0.645264 25.2636 0.645264 24.5486ZM43.7852 22.8802C43.7852 11.6781 34.7282 2.85946 23.7644 2.85946C12.5624 2.85946 3.50537 11.9165 3.50537 22.8802C3.50537 34.0823 12.5624 42.9009 23.5261 42.9009C34.7282 43.1393 43.7852 34.0823 43.7852 22.8802Z" fill="#0288F7"/>
<path d="M26.1478 14.5382C26.8628 14.5382 27.5779 14.5382 28.0545 14.2998C28.5312 14.2998 28.7696 14.0615 28.7696 13.5848C28.7696 13.1081 28.5312 12.8698 27.8162 12.8698C26.8628 12.8698 25.6711 13.1081 24.7178 13.1081C22.811 13.1081 20.6659 13.1081 18.7592 12.8698C18.2825 12.8698 18.0442 12.8698 17.8058 13.3465C17.5675 13.8232 17.8058 14.2998 18.2825 14.2998C18.7592 14.2998 19.4742 14.2998 19.9509 14.5382C20.1893 14.5382 20.1893 14.7765 20.4276 14.7765C21.381 17.1599 22.096 19.5434 23.0494 21.9268C23.0494 22.1651 23.0494 22.1651 23.0494 22.4035C21.8576 26.2169 20.4276 30.0304 19.2359 33.8439C19.2359 33.8439 19.2359 33.8439 19.2359 34.0822C16.8525 27.4086 14.7074 20.9734 12.5623 14.5382C13.2773 14.5382 13.9924 14.5382 14.469 14.2998C14.9457 14.2998 15.1841 13.8232 15.1841 13.5848C15.1841 13.1081 14.7074 12.8698 14.2307 12.8698C12.5623 12.8698 10.8939 13.1081 8.98718 13.1081C8.74884 13.1081 8.74884 13.1081 8.5105 13.1081C13.754 4.52781 26.8628 1.66771 35.6815 9.533C35.2048 9.77134 34.7281 9.77134 34.2514 10.0097C32.8214 10.7247 32.3447 12.3931 32.8214 13.8232C33.0597 14.5382 33.5364 15.4915 34.0131 16.2066C34.7281 17.3983 35.4431 18.8283 35.6815 20.2584C35.9198 21.6884 35.9198 23.3568 35.4431 24.7869C34.4898 27.8853 33.5364 30.7454 32.8214 33.8439C32.8214 33.8439 32.8214 33.8439 32.8214 34.0822C30.438 27.4086 28.2929 20.9734 26.1478 14.5382Z" fill="#0288F7"/>
<path d="M29.4845 40.043C25.9094 41.2347 22.0959 41.4731 18.2825 40.2814C20.1892 35.0378 21.8576 29.7943 23.7643 24.5508C25.9094 29.7943 27.8162 34.7995 29.4845 40.043Z" fill="#0288F7"/>
<path d="M15.6608 39.3263C7.0805 35.2745 3.02869 24.5491 7.0805 15.7305C9.9406 23.5958 12.8007 31.461 15.6608 39.3263Z" fill="#0288F7"/>
<path d="M32.8215 38.6116C33.2982 37.1816 33.7749 35.9898 34.2516 34.7981C35.92 30.2696 37.35 25.7411 39.0184 21.2126C39.7335 19.0676 39.9718 16.9225 39.7335 14.7774C39.7335 14.7774 39.7335 14.7774 39.7335 14.5391C43.7853 21.6893 42.1169 33.1297 32.8215 38.6116Z" fill="#0288F7"/>
</g>
<defs>
<clipPath id="clip0_2319_1361">
<rect width="46" height="46" fill="white" transform="translate(0.645264)"/>
</clipPath>
</defs>
</svg>
