<svg width="50" height="49" viewBox="0 0 50 49" fill="none" xmlns="http://www.w3.org/2000/svg">
<g clip-path="url(#clip0_2319_1345)">
<path d="M24.9377 0.000259067C38.8404 -0.0608382 49.9377 10.6923 50 24.2559C50.0623 37.8806 39.0274 48.8781 25.1247 49.0003C11.2219 49.0614 0 38.125 0 24.5614C0 10.8756 10.9726 0.0613563 24.9377 0.000259067ZM24.8753 45.0289C36.4713 45.09 45.8853 35.9865 46.01 24.6225C46.1347 13.2584 36.6584 3.84939 25 3.84939C13.4663 3.84939 3.99003 13.0751 3.92768 24.3781C3.92768 35.7422 13.2793 44.9678 24.8753 45.0289Z" fill="#0288F7"/>
<path d="M24.9991 36.4156C20.3233 36.1712 16.5827 34.3383 14.4006 30.1226C13.9019 29.145 13.7772 28.1675 14.9617 27.6787C15.8345 27.3121 16.5203 27.7398 16.9567 28.5951C18.64 31.8944 21.4455 33.4218 25.1238 33.4218C28.6774 33.4218 31.3582 31.8333 33.0415 28.7173C33.5403 27.7398 34.2261 27.251 35.2859 27.8009C36.2834 28.2897 36.1587 29.2061 35.7223 30.0615C33.4156 34.2772 29.7373 36.1712 24.9991 36.4156Z" fill="#0288F7"/>
<path d="M34.8522 17.7814C34.9146 19.3699 33.6053 20.7141 31.9844 20.7752C30.3634 20.8363 28.8672 19.431 28.8672 17.8425C28.8672 16.254 30.2388 14.9709 31.8597 14.9709C33.4807 14.9098 34.7899 16.1318 34.8522 17.7814Z" fill="#0288F7"/>
<path d="M21.5732 17.8389C21.5732 19.4274 20.2016 20.7716 18.643 20.7716C16.9597 20.7716 15.5881 19.4274 15.6505 17.7167C15.7128 16.0671 17.0221 14.9062 18.7053 14.9062C20.3263 14.9673 21.5732 16.2504 21.5732 17.8389Z" fill="#0288F7"/>
</g>
<defs>
<clipPath id="clip0_2319_1345">
<rect width="50" height="49" fill="white"/>
</clipPath>
</defs>
</svg>
