<svg width="49" height="43" viewBox="0 0 49 43" fill="none" xmlns="http://www.w3.org/2000/svg">
<g clip-path="url(#clip0_2319_1367)">
<path d="M0.996826 43C0.996826 28.6507 0.996826 14.3733 0.996826 0C1.84306 0 2.68928 0 3.67655 0C3.67655 13.3432 3.67655 26.7343 3.67655 40.1972C5.13395 40.1972 6.4503 40.1972 7.88419 40.1972C7.88419 37.7298 7.88419 35.2624 7.88419 32.7471C10.3759 32.7471 12.75 32.7471 15.2182 32.7471C15.2182 35.2145 15.2182 37.6819 15.2182 40.1972C16.0644 40.1972 16.7931 40.1972 17.6628 40.1972C17.6628 35.3343 17.6628 30.4953 17.6628 25.5365C20.1545 25.5365 22.5287 25.5365 25.0203 25.5365C25.0203 30.3994 25.0203 35.2624 25.0203 40.1972C25.8666 40.1972 26.5953 40.1972 27.4415 40.1972C27.4415 30.615 27.4415 21.0568 27.4415 11.4028C29.9097 11.4028 32.2838 11.4028 34.7755 11.4028C34.7755 20.961 34.7755 30.5192 34.7755 40.1733C35.6687 40.1733 36.4209 40.1733 37.3142 40.1733C37.3142 27.8602 37.3142 15.5471 37.3142 3.18607C39.8058 3.18607 42.133 3.18607 44.6011 3.18607C44.6011 15.4992 44.6011 27.8123 44.6011 40.2212C46.129 40.2212 47.5159 40.2212 49.0203 40.2212C49.0203 41.1794 49.0203 42.0418 49.0203 43C33.036 43 17.0517 43 0.996826 43Z" fill="#0288F7"/>
</g>
<defs>
<clipPath id="clip0_2319_1367">
<rect width="48" height="43" fill="white" transform="translate(0.996826)"/>
</clipPath>
</defs>
</svg>
