<svg width="44" height="41" viewBox="0 0 44 41" fill="none" xmlns="http://www.w3.org/2000/svg">
<g clip-path="url(#clip0_2319_1357)">
<path d="M6.52248 3.35506C4.91859 3.35506 3.47509 3.35506 1.97813 3.35506C0.90887 3.41193 0 2.957 0 1.6491C0 0.398058 0.90887 0 2.03159 0C3.58202 0 5.13244 0 6.73633 0C8.50061 0 9.24909 0.682385 9.62333 2.61581C10.158 5.40222 10.158 5.40222 12.8311 5.40222C22.1871 5.40222 31.5431 5.40222 40.8992 5.40222C43.7327 5.40222 44.4277 6.2552 43.8396 9.15534C42.8773 14.1595 41.8615 19.1637 40.8457 24.1678C40.418 26.215 39.7764 26.7836 37.6914 26.7836C30.5808 26.7836 23.4702 26.7836 16.3062 26.7836C15.7716 26.7836 15.2369 26.7836 14.4885 26.7836C14.5954 27.5229 14.6488 28.1484 14.7558 28.8877C16.5735 28.8877 18.2309 28.8877 19.9417 28.8877C25.7157 28.8877 31.4362 28.8877 37.2102 28.8877C38.3329 28.8877 39.3487 29.0583 39.4022 30.5368C39.4557 32.0153 38.3864 32.2427 37.2637 32.2427C29.7789 32.2427 22.2406 32.2427 14.7558 32.2427C12.8311 32.2427 12.1896 31.6741 11.7618 29.57C10.158 21.4383 8.55407 13.3065 6.95018 5.17476C6.84326 4.6061 6.68287 4.03745 6.52248 3.35506ZM13.74 23.4286C14.0073 23.4854 14.2211 23.5423 14.3815 23.5423C21.8129 23.5423 29.2977 23.5423 36.729 23.5423C37.531 23.5423 37.7983 23.1442 37.9052 22.405C38.3329 19.9598 38.8676 17.5714 39.3487 15.1262C39.7764 13.0222 40.1507 10.9182 40.5784 8.75728C30.5273 8.75728 20.6902 8.75728 10.7461 8.75728C11.8153 13.7614 12.7776 18.595 13.74 23.4286Z" fill="#0288F7"/>
<path d="M37.3171 37.6463C37.3171 39.466 35.7667 41.0014 34.1093 40.9445C32.452 40.8876 31.0619 39.4091 31.0085 37.6463C30.955 35.8266 32.452 34.2344 34.1628 34.2344C35.8736 34.2912 37.3171 35.8266 37.3171 37.6463Z" fill="#0288F7"/>
<path d="M20.4764 37.5873C20.4764 39.4638 19.1398 40.9992 17.3755 40.9992C15.6647 40.9992 14.2212 39.5207 14.2212 37.6441C14.2212 35.8244 15.6647 34.2891 17.3755 34.2891C19.0863 34.2891 20.4764 35.7676 20.4764 37.5873Z" fill="#0288F7"/>
</g>
<defs>
<clipPath id="clip0_2319_1357">
<rect width="44" height="41" fill="white"/>
</clipPath>
</defs>
</svg>
