<svg width="53" height="45" viewBox="0 0 53 45" fill="none" xmlns="http://www.w3.org/2000/svg">
<g clip-path="url(#clip0_2319_1340)">
<path d="M39.1803 28.97C43.0151 28.97 46.8499 28.97 50.6847 28.97C50.6847 28.8624 50.6847 28.7547 50.6847 28.6829C50.6847 20.6438 50.6847 12.6046 50.6847 4.56547C50.6847 3.70413 50.2506 3.27346 49.3823 3.27346C34.1154 3.27346 18.8847 3.27346 3.61779 3.27346C2.78571 3.27346 2.3154 3.70413 2.3154 4.56547C2.3154 12.6046 2.3154 20.6438 2.3154 28.6829C2.3154 28.7906 2.3154 28.8624 2.3154 28.97C2.89424 28.97 3.43691 28.97 4.01575 28.97C4.01575 31.4464 4.01575 33.9227 4.01575 36.3632C3.07513 36.4709 2.20687 36.2914 1.41097 35.7172C0.434174 34.9994 -0.0361328 34.0304 -0.0361328 32.8461C-0.0361328 23.4072 -0.0361328 13.9325 -0.0361328 4.49369C4.467e-05 2.51979 1.59185 0.976562 3.61779 0.976562C12.1919 1.01245 20.8021 0.976562 29.3762 0.976562C36.0328 0.976562 42.6533 0.976562 49.31 0.976562C50.1782 0.976562 51.0103 1.1919 51.6977 1.76612C52.5298 2.44801 52.9277 3.30935 52.9639 4.35014C52.9639 4.4578 52.9639 4.52958 52.9639 4.63725C52.9639 14.0402 52.9639 23.4072 52.9639 32.8102C52.9639 33.7792 52.7106 34.6405 52.0233 35.3224C51.4083 35.9684 50.6485 36.3632 49.7441 36.3991C48.1523 36.435 46.5966 36.3991 45.0048 36.3991C43.1598 36.3991 41.2786 36.3991 39.4335 36.3991C39.2164 36.3991 39.1441 36.3632 39.1441 36.112C39.1441 33.8151 39.1441 31.5541 39.1441 29.2572C39.1441 29.1854 39.1803 29.0777 39.1803 28.97Z" fill="#0288F7"/>
<path d="M20.4764 44.9413C20.5126 44.9054 20.5126 44.8695 20.5488 44.8336C21.1276 44.1158 21.3809 43.2904 21.3447 42.3932C21.3085 41.7471 21.3447 41.1011 21.3447 40.4193C26.1563 40.4193 30.9317 40.4193 35.7071 40.4193C35.7071 32.0212 35.7071 23.6591 35.7071 15.2969C29.0143 15.2969 22.3215 15.2969 15.5925 15.2969C15.5925 15.4046 15.5925 15.4763 15.5925 15.584C15.5925 16.7325 15.5925 17.8809 15.5925 18.9935C15.5925 19.2088 15.5563 19.2806 15.3392 19.2806C14.7604 19.2806 14.1454 19.2806 13.5303 19.2806C13.458 19.2806 13.3856 19.2806 13.2771 19.2806C13.2771 19.1729 13.2771 19.1011 13.2771 18.9935C13.2771 17.6297 13.2771 16.2659 13.2771 14.8662C13.2771 13.7537 14.0368 13 15.1583 13C22.2129 13 29.2675 13 36.286 13C37.2989 13 38.0225 13.7178 38.0587 14.7227C38.0587 14.7945 38.0587 14.8303 38.0587 14.9021C38.0587 24.1974 38.0587 33.4927 38.0587 42.7879C38.0587 43.398 37.914 43.9723 37.4798 44.4388C37.1904 44.7977 36.7925 44.9772 36.3221 44.9772C31.1126 44.9772 25.9392 44.9772 20.7297 44.9772C20.6573 44.9772 20.5849 44.9772 20.4764 44.9413ZM25.8307 41.3165C25.288 41.3165 24.8539 41.7471 24.8539 42.3214C24.8539 42.8956 25.288 43.398 25.8307 43.398C26.3733 43.398 26.8075 42.9315 26.8075 42.3573C26.8075 41.783 26.3733 41.3165 25.8307 41.3165Z" fill="#0288F7"/>
<path d="M20.1869 32.6288C20.1869 35.9306 20.1869 39.2324 20.1869 42.5342C20.1869 43.4314 19.8614 44.1133 19.1016 44.6157C18.776 44.8311 18.3781 44.9388 17.9801 44.9388C14.4709 44.9388 10.9617 44.9388 7.45248 44.9388C6.25862 44.9388 5.28183 43.9697 5.20947 42.8213C5.20947 42.7495 5.20947 42.6777 5.20947 42.606C5.20947 35.9665 5.20947 29.327 5.20947 22.6875C5.20947 21.5391 5.93302 20.7854 6.80128 20.4983C7.05452 20.4265 7.30777 20.3906 7.59719 20.3906C11.034 20.3906 14.4709 20.3906 17.8716 20.3906C19.2825 20.3906 20.1869 21.3237 20.1869 22.7234C20.1869 26.0611 20.1869 29.3629 20.1869 32.6288ZM7.52483 22.7234C7.52483 22.8311 7.52483 22.9387 7.52483 23.0464C7.52483 28.5374 7.52483 34.0285 7.52483 39.5195C7.52483 39.7707 7.59719 39.8425 7.85043 39.8425C11.1064 39.8425 14.3262 39.8425 17.5822 39.8425C17.6907 39.8425 17.7631 39.8425 17.8716 39.8425C17.8716 34.1361 17.8716 28.4298 17.8716 22.7234C14.3986 22.7234 10.9617 22.7234 7.52483 22.7234ZM13.5665 42.3547C13.5665 41.7805 13.1323 41.314 12.5897 41.314C12.0832 41.314 11.6129 41.8164 11.6129 42.3547C11.6129 42.929 12.047 43.3955 12.5897 43.3955C13.1323 43.3955 13.5665 42.929 13.5665 42.3547Z" fill="#0288F7"/>
<path d="M44.3536 44.4035C42.617 44.4035 40.9167 44.4035 39.1802 44.4035C39.1802 44.3317 39.1802 44.2599 39.1802 44.1882C39.1802 43.1833 39.1802 42.1784 39.1802 41.2094C39.1802 41.0658 39.2525 40.8864 39.3611 40.7787C39.542 40.5634 39.759 40.5634 39.9399 40.7787C40.0846 40.9581 40.1931 41.1735 40.2655 41.3529C40.4826 41.9989 40.9167 42.4296 41.5317 42.7167C42.0382 42.932 42.5447 43.0756 43.0512 43.255C43.3406 43.3627 43.6662 43.4345 43.9556 43.5063C44.3536 43.6498 44.3897 43.6857 44.3897 44.1164C44.3536 44.1882 44.3536 44.2958 44.3536 44.4035Z" fill="#0288F7"/>
</g>
<defs>
<clipPath id="clip0_2319_1340">
<rect width="53" height="44" fill="white" transform="translate(0 0.976562)"/>
</clipPath>
</defs>
</svg>
