<svg width="50" height="49" viewBox="0 0 50 49" fill="none" xmlns="http://www.w3.org/2000/svg">
<g clip-path="url(#clip0_2319_1345)">
<path d="M24.9377 0.000259067C38.8404 -0.0608382 49.9377 10.6923 50 24.2559C50.0623 37.8806 39.0274 48.8781 25.1247 49.0003C11.2219 49.0614 0 38.125 0 24.5614C0 10.8756 10.9726 0.0613563 24.9377 0.000259067ZM24.8753 45.0289C36.4713 45.09 45.8853 35.9865 46.01 24.6225C46.1347 13.2584 36.6584 3.84939 25 3.84939C13.4663 3.84939 3.99003 13.0751 3.92768 24.3781C3.92768 35.7422 13.2793 44.9678 24.8753 45.0289Z" fill="#0288F7"/>
<path d="M25 36.4156C20.3242 36.1712 16.5835 34.3383 14.4015 30.1226C13.9027 29.145 13.778 28.1675 14.9626 27.6787C15.8354 27.3121 16.5212 27.7398 16.9576 28.5951C18.6409 31.8944 21.4464 33.4218 25.1247 33.4218C28.6783 33.4218 31.3591 31.8333 33.0424 28.7173C33.5411 27.7398 34.2269 27.251 35.2868 27.8009C36.2843 28.2897 36.1596 29.2061 35.7232 30.0615C33.4164 34.2772 29.7381 36.1712 25 36.4156Z" fill="#0288F7"/>
<path d="M34.8504 17.7775C34.9127 19.366 33.6035 20.7102 31.9826 20.7713C30.3616 20.8324 28.8654 19.4271 28.8654 17.8386C28.8654 16.2501 30.2369 14.967 31.8579 14.967C33.4788 14.9059 34.7881 16.1279 34.8504 17.7775Z" fill="#0288F7"/>
<path d="M21.5711 17.8389C21.5711 19.4274 20.1995 20.7716 18.6409 20.7716C16.9576 20.7716 15.5861 19.4274 15.6484 17.7167C15.7108 16.0671 17.02 14.9062 18.7033 14.9062C20.3242 14.9673 21.5711 16.2504 21.5711 17.8389Z" fill="#0288F7"/>
</g>
<defs>
<clipPath id="clip0_2319_1345">
<rect width="50" height="49" fill="white"/>
</clipPath>
</defs>
</svg>
