<svg width="114" height="114" viewBox="0 0 114 114" fill="none" xmlns="http://www.w3.org/2000/svg">
<path fill-rule="evenodd" clip-rule="evenodd" d="M76 42.75C76 47.7891 73.9982 52.6218 70.435 56.185C66.8718 59.7482 62.0391 61.75 57 61.75C51.9609 61.75 47.1282 59.7482 43.565 56.185C40.0018 52.6218 38 47.7891 38 42.75C38 37.7109 40.0018 32.8782 43.565 29.315C47.1282 25.7518 51.9609 23.75 57 23.75C62.0391 23.75 66.8718 25.7518 70.435 29.315C73.9982 32.8782 76 37.7109 76 42.75ZM66.5 42.75C66.5 45.2696 65.4991 47.6859 63.7175 49.4675C61.9359 51.2491 59.5196 52.25 57 52.25C54.4804 52.25 52.0641 51.2491 50.2825 49.4675C48.5009 47.6859 47.5 45.2696 47.5 42.75C47.5 40.2304 48.5009 37.8141 50.2825 36.0325C52.0641 34.2509 54.4804 33.25 57 33.25C59.5196 33.25 61.9359 34.2509 63.7175 36.0325C65.4991 37.8141 66.5 40.2304 66.5 42.75Z" fill="#0288F7"/>
<path fill-rule="evenodd" clip-rule="evenodd" d="M57.25 4.75C28.3938 4.75 5 28.1438 5 57C5 85.8562 28.3938 109.25 57.25 109.25C86.1062 109.25 109.5 85.8562 109.5 57C109.5 28.1438 86.1062 4.75 57.25 4.75ZM14.5 57C14.5 66.9275 17.8867 76.0665 23.563 83.3245C27.5493 78.0895 32.692 73.847 38.5893 70.9285C44.4866 68.0099 50.9788 66.4943 57.5587 66.5C64.0536 66.4938 70.4641 67.9702 76.3019 70.8167C82.1397 73.6632 87.2508 77.8046 91.2458 82.9255C95.3614 77.5276 98.1325 71.2273 99.3298 64.5458C100.527 57.8643 100.116 50.9938 98.1309 44.5027C96.1457 38.0116 92.6433 32.0865 87.9136 27.2177C83.1838 22.3489 77.3627 18.6763 70.9318 16.5039C64.5009 14.3315 57.6452 13.7217 50.9318 14.7249C44.2185 15.7281 37.8405 18.3155 32.3257 22.273C26.8108 26.2305 22.3176 31.4444 19.2178 37.4832C16.1181 43.522 14.5009 50.2121 14.5 57ZM57.25 99.75C47.4363 99.7647 37.9188 96.3886 30.308 90.193C33.3714 85.8075 37.4489 82.2269 42.1934 79.7558C46.938 77.2847 52.2092 75.9962 57.5587 76C62.8415 75.9958 68.0491 77.252 72.7489 79.6643C77.4487 82.0766 81.5052 85.5753 84.5815 89.87C76.9117 96.2668 67.2373 99.764 57.25 99.75Z" fill="#0288F7"/>
</svg>
