<svg width="36" height="37" viewBox="0 0 36 37" fill="none" xmlns="http://www.w3.org/2000/svg">
<path fill-rule="evenodd" clip-rule="evenodd" d="M24 14C24 15.5913 23.3679 17.1174 22.2426 18.2426C21.1174 19.3679 19.5913 20 18 20C16.4087 20 14.8826 19.3679 13.7574 18.2426C12.6321 17.1174 12 15.5913 12 14C12 12.4087 12.6321 10.8826 13.7574 9.75736C14.8826 8.63214 16.4087 8 18 8C19.5913 8 21.1174 8.63214 22.2426 9.75736C23.3679 10.8826 24 12.4087 24 14ZM21 14C21 14.7956 20.6839 15.5587 20.1213 16.1213C19.5587 16.6839 18.7956 17 18 17C17.2044 17 16.4413 16.6839 15.8787 16.1213C15.3161 15.5587 15 14.7956 15 14C15 13.2044 15.3161 12.4413 15.8787 11.8787C16.4413 11.3161 17.2044 11 18 11C18.7956 11 19.5587 11.3161 20.1213 11.8787C20.6839 12.4413 21 13.2044 21 14Z" fill="black"/>
<path fill-rule="evenodd" clip-rule="evenodd" d="M18 2C8.8875 2 1.5 9.3875 1.5 18.5C1.5 27.6125 8.8875 35 18 35C27.1125 35 34.5 27.6125 34.5 18.5C34.5 9.3875 27.1125 2 18 2ZM4.5 18.5C4.5 21.635 5.5695 24.521 7.362 26.813C8.62085 25.1598 10.2449 23.8201 12.1071 22.8985C13.9694 21.9768 16.0196 21.4982 18.0975 21.5C20.1485 21.4981 22.1729 21.9643 24.0164 22.8632C25.8599 23.7621 27.4739 25.0699 28.7355 26.687C30.0352 24.9824 30.9103 22.9928 31.2883 20.8829C31.6664 18.7729 31.5366 16.6033 30.9097 14.5535C30.2828 12.5037 29.1768 10.6326 27.6832 9.09506C26.1896 7.55754 24.3514 6.39779 22.3206 5.71176C20.2898 5.02574 18.1248 4.83316 16.0048 5.14996C13.8848 5.46676 11.8707 6.28384 10.1292 7.53358C8.38762 8.78332 6.96872 10.4298 5.98984 12.3368C5.01097 14.2438 4.50027 16.3565 4.5 18.5ZM18 32C14.9009 32.0047 11.8954 30.9385 9.492 28.982C10.4594 27.5971 11.747 26.4664 13.2453 25.686C14.7436 24.9057 16.4082 24.4988 18.0975 24.5C19.7657 24.4987 21.4102 24.8954 22.8944 25.6571C24.3785 26.4189 25.6595 27.5238 26.631 28.88C24.2089 30.9001 21.1539 32.0044 18 32Z" fill="black"/>
</svg>
