<svg width="335" height="185" viewBox="0 0 335 185" fill="none" xmlns="http://www.w3.org/2000/svg">
<rect width="335" height="185" rx="20" fill="url(#paint0_linear_3609_12896)"/>
<g filter="url(#filter0_b_3609_12896)">
<rect width="335" height="185" rx="20" fill="white" fill-opacity="0.03"/>
</g>
<path fill-rule="evenodd" clip-rule="evenodd" d="M124.051 0H20C8.95431 0 0 8.9543 0 20V165C0 176.046 8.95431 185 20 185H315C323.542 185 330.833 179.645 333.7 172.109L124.051 0Z" fill="white" fill-opacity="0.08"/>
<path fill-rule="evenodd" clip-rule="evenodd" d="M81.6321 0H20C8.95431 0 0 8.9543 0 20V165C0 176.046 8.95431 185 20 185H306.983L81.6321 0Z" fill="white" fill-opacity="0.08"/>
<path fill-rule="evenodd" clip-rule="evenodd" d="M35.6321 0H20C8.95431 0 0 8.9543 0 20V165C0 176.046 8.95431 185 20 185H260.983L35.6321 0Z" fill="white" fill-opacity="0.08"/>
<path opacity="0.9" d="M30.144 46.24C29.3653 46.24 28.656 46.112 28.016 45.856C27.376 45.6 26.8267 45.2267 26.368 44.736C25.9093 44.2453 25.552 43.6427 25.296 42.928C25.0507 42.2027 24.928 41.376 24.928 40.448C24.928 39.52 25.0667 38.6987 25.344 37.984C25.632 37.2587 26.016 36.6507 26.496 36.16C26.976 35.6693 27.536 35.296 28.176 35.04C28.816 34.784 29.4987 34.656 30.224 34.656C30.6827 34.656 31.0933 34.688 31.456 34.752C31.8293 34.816 32.1493 34.8907 32.416 34.976C32.6933 35.0613 32.9173 35.1467 33.088 35.232C33.2587 35.3173 33.376 35.3813 33.44 35.424L32.992 36.704C32.896 36.64 32.7573 36.5707 32.576 36.496C32.3947 36.4213 32.1867 36.3467 31.952 36.272C31.728 36.1973 31.4773 36.1387 31.2 36.096C30.9333 36.0427 30.6613 36.016 30.384 36.016C29.7973 36.016 29.2693 36.1173 28.8 36.32C28.3307 36.5227 27.9307 36.816 27.6 37.2C27.2693 37.584 27.0133 38.0533 26.832 38.608C26.6613 39.152 26.576 39.7653 26.576 40.448C26.576 41.1093 26.6507 41.712 26.8 42.256C26.96 42.8 27.1947 43.2693 27.504 43.664C27.8133 44.048 28.1973 44.3467 28.656 44.56C29.1253 44.7733 29.6693 44.88 30.288 44.88C31.0027 44.88 31.5947 44.8053 32.064 44.656C32.5333 44.5067 32.8853 44.3733 33.12 44.256L33.52 45.536C33.4453 45.5893 33.312 45.6587 33.12 45.744C32.928 45.8187 32.688 45.8933 32.4 45.968C32.112 46.0427 31.776 46.1067 31.392 46.16C31.008 46.2133 30.592 46.24 30.144 46.24ZM38.2739 37.504C38.4019 37.504 38.5459 37.5147 38.7059 37.536C38.8765 37.5467 39.0419 37.568 39.2019 37.6C39.3619 37.6213 39.5059 37.648 39.6339 37.68C39.7725 37.7013 39.8739 37.7227 39.9379 37.744L39.6819 39.04C39.5645 38.9973 39.3672 38.9493 39.0899 38.896C38.8232 38.832 38.4765 38.8 38.0499 38.8C37.7725 38.8 37.4952 38.832 37.2179 38.896C36.9512 38.9493 36.7752 38.9867 36.6899 39.008V46H35.2019V38.032C35.5539 37.904 35.9912 37.7867 36.5139 37.68C37.0365 37.5627 37.6232 37.504 38.2739 37.504ZM40.9098 41.856C40.9098 41.12 41.0164 40.48 41.2298 39.936C41.4431 39.3813 41.7258 38.9227 42.0778 38.56C42.4298 38.1973 42.8351 37.9253 43.2938 37.744C43.7524 37.5627 44.2218 37.472 44.7018 37.472C45.8218 37.472 46.6804 37.824 47.2778 38.528C47.8751 39.2213 48.1737 40.2827 48.1737 41.712C48.1737 41.776 48.1737 41.8613 48.1737 41.968C48.1737 42.064 48.1684 42.1547 48.1578 42.24H42.4618C42.5258 43.104 42.7764 43.76 43.2138 44.208C43.6511 44.656 44.3338 44.88 45.2618 44.88C45.7844 44.88 46.2218 44.8373 46.5738 44.752C46.9364 44.656 47.2084 44.5653 47.3898 44.48L47.5978 45.728C47.4164 45.824 47.0964 45.9253 46.6378 46.032C46.1898 46.1387 45.6778 46.192 45.1018 46.192C44.3764 46.192 43.7471 46.0853 43.2138 45.872C42.6911 45.648 42.2591 45.344 41.9178 44.96C41.5764 44.576 41.3204 44.1227 41.1497 43.6C40.9898 43.0667 40.9098 42.4853 40.9098 41.856ZM46.6218 41.04C46.6324 40.368 46.4618 39.8187 46.1098 39.392C45.7684 38.9547 45.2938 38.736 44.6858 38.736C44.3444 38.736 44.0404 38.8053 43.7738 38.944C43.5178 39.072 43.2991 39.2427 43.1178 39.456C42.9364 39.6693 42.7924 39.9147 42.6858 40.192C42.5898 40.4693 42.5258 40.752 42.4938 41.04H46.6218ZM55.6873 39.44C55.5059 39.2907 55.2446 39.1467 54.9033 39.008C54.5619 38.8693 54.1886 38.8 53.7833 38.8C53.3566 38.8 52.9886 38.88 52.6793 39.04C52.3806 39.1893 52.1353 39.4027 51.9433 39.68C51.7513 39.9467 51.6126 40.2667 51.5273 40.64C51.4419 41.0133 51.3993 41.4133 51.3993 41.84C51.3993 42.8107 51.6393 43.5627 52.1193 44.096C52.5993 44.6187 53.2393 44.88 54.0393 44.88C54.4446 44.88 54.7806 44.864 55.0473 44.832C55.3246 44.7893 55.5379 44.7467 55.6873 44.704V39.44ZM55.6873 33.84L57.1753 33.584V45.76C56.8339 45.856 56.3966 45.952 55.8633 46.048C55.3299 46.144 54.7166 46.192 54.0233 46.192C53.3833 46.192 52.8073 46.0907 52.2953 45.888C51.7833 45.6853 51.3459 45.3973 50.9833 45.024C50.6206 44.6507 50.3379 44.1973 50.1353 43.664C49.9433 43.12 49.8473 42.512 49.8473 41.84C49.8473 41.2 49.9273 40.6133 50.0872 40.08C50.2579 39.5467 50.5033 39.088 50.8233 38.704C51.1433 38.32 51.5326 38.0213 51.9913 37.808C52.4606 37.5947 52.9939 37.488 53.5913 37.488C54.0713 37.488 54.4926 37.552 54.8553 37.68C55.2286 37.808 55.5059 37.9307 55.6873 38.048V33.84ZM61.2211 46H59.7331V37.68H61.2211V46ZM60.4691 36.176C60.2025 36.176 59.9731 36.0907 59.7811 35.92C59.5998 35.7387 59.5091 35.4987 59.5091 35.2C59.5091 34.9013 59.5998 34.6667 59.7811 34.496C59.9731 34.3147 60.2025 34.224 60.4691 34.224C60.7358 34.224 60.9598 34.3147 61.1411 34.496C61.3331 34.6667 61.4291 34.9013 61.4291 35.2C61.4291 35.4987 61.3331 35.7387 61.1411 35.92C60.9598 36.0907 60.7358 36.176 60.4691 36.176ZM65.172 37.68H68.324V38.928H65.172V42.768C65.172 43.184 65.204 43.5307 65.268 43.808C65.332 44.0747 65.428 44.288 65.556 44.448C65.684 44.5973 65.844 44.704 66.036 44.768C66.228 44.832 66.452 44.864 66.708 44.864C67.156 44.864 67.5133 44.816 67.78 44.72C68.0573 44.6133 68.2493 44.5387 68.356 44.496L68.644 45.728C68.4947 45.8027 68.2333 45.8933 67.86 46C67.4867 46.1173 67.06 46.176 66.58 46.176C66.0147 46.176 65.5453 46.1067 65.172 45.968C64.8093 45.8187 64.516 45.6 64.292 45.312C64.068 45.024 63.908 44.672 63.812 44.256C63.7267 43.8293 63.684 43.3387 63.684 42.784V35.36L65.172 35.104V37.68Z" fill="white"/>
<g clip-path="url(#clip0_3609_12896)">
<path d="M286.274 38.4999C286.274 39.55 285.962 40.5765 285.379 41.4497C284.796 42.3229 283.967 43.0035 282.997 43.4056C282.027 43.8077 280.959 43.9131 279.929 43.7087C278.899 43.5042 277.953 42.9989 277.21 42.2568C276.467 41.5147 275.961 40.5689 275.756 39.5392C275.55 38.5094 275.655 37.4418 276.056 36.4714C276.457 35.501 277.137 34.6712 278.009 34.0871C278.882 33.5029 279.908 33.1906 280.958 33.1896H280.963C283.898 33.1896 286.274 35.5678 286.274 38.4999ZM272.624 33.2473C269.673 33.2473 267.308 35.5678 267.308 38.4711C267.308 41.4058 269.613 43.6791 272.577 43.6791C273.414 43.6791 274.133 43.5137 275.018 43.0989V40.8073C274.241 41.5869 273.55 41.8993 272.668 41.8993C270.708 41.8993 269.316 40.4766 269.316 38.4553C269.316 36.5391 270.752 35.0271 272.579 35.0271C273.508 35.0271 274.212 35.3578 275.02 36.1506V33.859C274.286 33.4569 273.461 33.2465 272.624 33.2473ZM263.825 37.3029C262.657 36.8698 262.313 36.5863 262.313 36.0456C262.313 35.4182 262.924 34.9378 263.764 34.9378C264.347 34.9378 264.828 35.1767 265.334 35.7463L266.353 34.4128C265.546 33.6938 264.501 33.2991 263.421 33.3051C261.654 33.3051 260.307 34.5309 260.307 36.1637C260.307 37.5392 260.935 38.2427 262.764 38.9016C263.528 39.1719 263.914 39.3504 264.111 39.4712C264.29 39.578 264.437 39.7296 264.54 39.911C264.642 40.0924 264.695 40.2973 264.694 40.5054C264.694 41.3139 264.051 41.9124 263.182 41.9124C262.252 41.9124 261.504 41.4478 261.058 40.5816L259.801 41.7917C260.698 43.1094 261.775 43.6922 263.258 43.6922C265.282 43.6922 266.699 42.3456 266.699 40.4136C266.694 38.8307 266.038 38.1141 263.825 37.3029ZM311.001 34.0374C311.002 34.2389 310.923 34.4324 310.781 34.5756C310.639 34.7188 310.447 34.7999 310.245 34.8013C310.145 34.8017 310.045 34.7822 309.953 34.7439C309.86 34.7056 309.775 34.6494 309.704 34.5784C309.633 34.5074 309.577 34.423 309.539 34.3302C309.501 34.2373 309.481 34.1379 309.481 34.0374V34.0296C309.476 33.926 309.492 33.8224 309.528 33.7251C309.563 33.6278 309.619 33.5389 309.69 33.4638C309.762 33.3887 309.848 33.3291 309.944 33.2885C310.039 33.2479 310.142 33.2272 310.246 33.2278C310.349 33.2283 310.452 33.25 310.547 33.2916C310.642 33.3332 310.727 33.3937 310.798 33.4696C310.869 33.5454 310.923 33.6349 310.958 33.7325C310.993 33.8302 311.008 33.9339 311.001 34.0374ZM310.846 34.0401C310.848 33.9591 310.833 33.8786 310.803 33.8032C310.774 33.7278 310.729 33.659 310.673 33.6008C310.617 33.5425 310.55 33.4959 310.475 33.4637C310.401 33.4314 310.321 33.4141 310.24 33.4127C310.159 33.4134 310.078 33.4302 310.004 33.4622C309.929 33.4942 309.861 33.5407 309.804 33.5991C309.748 33.6575 309.703 33.7265 309.673 33.8022C309.644 33.8779 309.629 33.9588 309.631 34.0401C309.631 34.3866 309.904 34.6674 310.24 34.6674C310.321 34.6661 310.401 34.6488 310.475 34.6165C310.55 34.5842 310.617 34.5376 310.673 34.4794C310.729 34.4211 310.774 34.3523 310.803 34.277C310.833 34.2016 310.848 34.1211 310.846 34.0401ZM257.115 43.4533H259.063V33.4704H257.115V43.4533ZM290.458 40.1773L287.796 33.4731H285.67L289.907 43.7106H290.954L295.267 33.4731H293.157L290.458 40.1773ZM296.144 43.4533H301.667V41.7628H298.092V39.0669H301.536V37.3764H298.092V35.1609H301.667V33.4704H296.144V43.4533ZM310.342 34.1162L310.631 34.4785H310.377L310.13 34.1372V34.4785H309.92V33.6017H310.201C310.413 33.6017 310.531 33.6962 310.531 33.8721C310.534 33.9928 310.466 34.0821 310.342 34.1162ZM310.327 33.8747C310.327 33.7986 310.272 33.7618 310.169 33.7618H310.132V33.9902H310.169C310.272 33.9902 310.327 33.9534 310.327 33.8747ZM307.103 39.2481L310.245 43.4533H307.851L305.155 39.4423H304.901V43.4533H302.956V33.4704H305.843C308.088 33.4704 309.376 34.5493 309.376 36.4183C309.376 37.9487 308.568 38.9514 307.103 39.2481ZM307.374 36.5233C307.374 35.5521 306.715 35.0454 305.502 35.0454H304.903V38.0694H305.473C306.715 38.0668 307.374 37.5261 307.374 36.5233ZM256.22 38.4711C256.216 39.2034 256.052 39.926 255.739 40.5882C255.427 41.2503 254.972 41.8358 254.409 42.3036C253.451 43.0989 252.359 43.4559 250.847 43.4559H248.004V33.4731H250.863C254.018 33.4731 256.22 35.5232 256.22 38.4711ZM254.215 38.4553C254.215 37.4998 253.81 36.5706 253.136 35.9694C252.493 35.3867 251.729 35.1609 250.471 35.1609H249.949V41.7628H250.471C251.729 41.7628 252.524 41.5213 253.136 40.9701C253.808 40.3716 254.215 39.4134 254.215 38.4553Z" fill="white"/>
</g>
<path d="M32.016 97H27.024L26.704 101.272H26.816C27.0933 100.899 27.4027 100.605 27.744 100.392C28.0853 100.168 28.5547 100.056 29.152 100.056C29.6427 100.056 30.0907 100.136 30.496 100.296C30.912 100.445 31.2693 100.669 31.568 100.968C31.8667 101.267 32.1013 101.629 32.272 102.056C32.4427 102.472 32.528 102.952 32.528 103.496C32.528 104.04 32.4427 104.541 32.272 105C32.1013 105.448 31.8507 105.837 31.52 106.168C31.1893 106.488 30.7893 106.739 30.32 106.92C29.8507 107.101 29.3173 107.192 28.72 107.192C28.2507 107.192 27.8293 107.139 27.456 107.032C27.0933 106.925 26.768 106.781 26.48 106.6C26.2027 106.419 25.9573 106.216 25.744 105.992C25.5307 105.768 25.3387 105.533 25.168 105.288L26.176 104.52C26.3253 104.744 26.4747 104.947 26.624 105.128C26.784 105.309 26.9653 105.469 27.168 105.608C27.3707 105.736 27.6 105.837 27.856 105.912C28.112 105.987 28.4107 106.024 28.752 106.024C29.52 106.024 30.1067 105.816 30.512 105.4C30.928 104.984 31.136 104.408 31.136 103.672V103.544C31.136 102.808 30.928 102.232 30.512 101.816C30.096 101.4 29.4987 101.192 28.72 101.192C28.1867 101.192 27.7707 101.283 27.472 101.464C27.184 101.645 26.9173 101.869 26.672 102.136L25.536 101.976L25.936 95.832H32.016V97ZM42.1858 107H34.7298V105.624L38.4578 102.264C39.0018 101.773 39.4498 101.272 39.8018 100.76C40.1538 100.237 40.3298 99.688 40.3298 99.112V98.92C40.3298 98.248 40.1538 97.7307 39.8018 97.368C39.4498 96.9947 38.9271 96.808 38.2338 96.808C37.5511 96.808 37.0231 96.984 36.6498 97.336C36.2871 97.6773 36.0151 98.136 35.8338 98.712L34.6338 98.264C34.7404 97.9333 34.8844 97.6133 35.0658 97.304C35.2578 96.984 35.4978 96.7013 35.7858 96.456C36.0738 96.2107 36.4204 96.0133 36.8258 95.864C37.2418 95.7147 37.7218 95.64 38.2658 95.64C38.8204 95.64 39.3111 95.72 39.7378 95.88C40.1751 96.04 40.5378 96.264 40.8258 96.552C41.1244 96.84 41.3484 97.1813 41.4978 97.576C41.6578 97.9707 41.7378 98.4027 41.7378 98.872C41.7378 99.2987 41.6738 99.6987 41.5458 100.072C41.4284 100.445 41.2578 100.803 41.0338 101.144C40.8204 101.485 40.5591 101.821 40.2498 102.152C39.9511 102.472 39.6151 102.792 39.2418 103.112L36.1218 105.832H42.1858V107ZM49.2355 107V104.808H43.7315V103.624L48.5635 95.832H50.5155V103.704H52.1795V104.808H50.5155V107H49.2355ZM44.9315 103.704H49.2355V96.872H49.1715L44.9315 103.704ZM61.3733 107H53.9173V105.624L57.6453 102.264C58.1893 101.773 58.6373 101.272 58.9893 100.76C59.3413 100.237 59.5173 99.688 59.5173 99.112V98.92C59.5173 98.248 59.3413 97.7307 58.9893 97.368C58.6373 96.9947 58.1146 96.808 57.4213 96.808C56.7386 96.808 56.2106 96.984 55.8373 97.336C55.4746 97.6773 55.2026 98.136 55.0213 98.712L53.8213 98.264C53.9279 97.9333 54.0719 97.6133 54.2533 97.304C54.4453 96.984 54.6853 96.7013 54.9733 96.456C55.2613 96.2107 55.6079 96.0133 56.0133 95.864C56.4293 95.7147 56.9093 95.64 57.4533 95.64C58.0079 95.64 58.4986 95.72 58.9253 95.88C59.3626 96.04 59.7253 96.264 60.0133 96.552C60.3119 96.84 60.5359 97.1813 60.6853 97.576C60.8453 97.9707 60.9253 98.4027 60.9253 98.872C60.9253 99.2987 60.8613 99.6987 60.7333 100.072C60.6159 100.445 60.4453 100.803 60.2213 101.144C60.0079 101.485 59.7466 101.821 59.4373 102.152C59.1386 102.472 58.8026 102.792 58.4293 103.112L55.3093 105.832H61.3733V107ZM74.4488 102.808V101.464H79.0888V102.808H74.4488ZM93.9563 105.848L93.0443 105.176L95.0283 102.456L91.8443 101.4L92.1803 100.344L95.3643 101.368V97.912H96.5483V101.368L99.7323 100.344L100.068 101.4L96.8843 102.456L98.8683 105.176L97.9563 105.848L95.9563 103.096L93.9563 105.848ZM103.55 105.848L102.638 105.176L104.622 102.456L101.438 101.4L101.774 100.344L104.958 101.368V97.912H106.142V101.368L109.326 100.344L109.662 101.4L106.478 102.456L108.462 105.176L107.55 105.848L105.55 103.096L103.55 105.848ZM113.144 105.848L112.232 105.176L114.216 102.456L111.032 101.4L111.368 100.344L114.552 101.368V97.912H115.736V101.368L118.92 100.344L119.256 101.4L116.072 102.456L118.056 105.176L117.144 105.848L115.144 103.096L113.144 105.848ZM122.738 105.848L121.826 105.176L123.81 102.456L120.626 101.4L120.962 100.344L124.146 101.368V97.912H125.33V101.368L128.514 100.344L128.85 101.4L125.666 102.456L127.65 105.176L126.738 105.848L124.738 103.096L122.738 105.848ZM141.605 102.808V101.464H146.245V102.808H141.605ZM161.113 105.848L160.201 105.176L162.185 102.456L159.001 101.4L159.337 100.344L162.521 101.368V97.912H163.705V101.368L166.889 100.344L167.225 101.4L164.041 102.456L166.025 105.176L165.113 105.848L163.113 103.096L161.113 105.848ZM170.706 105.848L169.794 105.176L171.778 102.456L168.594 101.4L168.93 100.344L172.114 101.368V97.912H173.298V101.368L176.482 100.344L176.818 101.4L173.634 102.456L175.618 105.176L174.706 105.848L172.706 103.096L170.706 105.848ZM180.3 105.848L179.388 105.176L181.372 102.456L178.188 101.4L178.524 100.344L181.708 101.368V97.912H182.892V101.368L186.076 100.344L186.412 101.4L183.228 102.456L185.212 105.176L184.3 105.848L182.3 103.096L180.3 105.848ZM189.894 105.848L188.982 105.176L190.966 102.456L187.782 101.4L188.118 100.344L191.302 101.368V97.912H192.486V101.368L195.67 100.344L196.006 101.4L192.822 102.456L194.806 105.176L193.894 105.848L191.894 103.096L189.894 105.848ZM208.761 102.808V101.464H213.401V102.808H208.761ZM231.517 107V104.808H226.013V103.624L230.845 95.832H232.797V103.704H234.461V104.808H232.797V107H231.517ZM227.213 103.704H231.517V96.872H231.453L227.213 103.704ZM239.863 107.192C239.212 107.192 238.641 107.112 238.151 106.952C237.66 106.781 237.249 106.552 236.919 106.264C236.599 105.976 236.353 105.635 236.183 105.24C236.023 104.845 235.943 104.419 235.943 103.96C235.943 103.192 236.151 102.584 236.567 102.136C236.983 101.688 237.532 101.373 238.215 101.192V101.064C237.617 100.861 237.143 100.536 236.791 100.088C236.449 99.6293 236.279 99.08 236.279 98.44C236.279 97.5867 236.593 96.9093 237.223 96.408C237.852 95.896 238.732 95.64 239.863 95.64C240.993 95.64 241.873 95.896 242.503 96.408C243.132 96.9093 243.447 97.5867 243.447 98.44C243.447 99.08 243.271 99.6293 242.919 100.088C242.577 100.536 242.108 100.861 241.511 101.064V101.192C242.193 101.373 242.743 101.688 243.159 102.136C243.575 102.584 243.783 103.192 243.783 103.96C243.783 104.419 243.697 104.845 243.527 105.24C243.367 105.635 243.121 105.976 242.791 106.264C242.46 106.552 242.049 106.781 241.559 106.952C241.079 107.112 240.513 107.192 239.863 107.192ZM239.863 106.056C240.652 106.056 241.271 105.88 241.719 105.528C242.167 105.176 242.391 104.68 242.391 104.04V103.688C242.391 103.048 242.167 102.552 241.719 102.2C241.281 101.848 240.663 101.672 239.863 101.672C239.063 101.672 238.439 101.848 237.991 102.2C237.553 102.552 237.335 103.048 237.335 103.688V104.04C237.335 104.68 237.559 105.176 238.007 105.528C238.455 105.88 239.073 106.056 239.863 106.056ZM239.863 100.584C240.588 100.584 241.137 100.429 241.511 100.12C241.895 99.8107 242.087 99.368 242.087 98.792V98.568C242.087 97.992 241.889 97.5493 241.495 97.24C241.111 96.9307 240.567 96.776 239.863 96.776C239.159 96.776 238.609 96.9307 238.215 97.24C237.831 97.5493 237.639 97.992 237.639 98.568V98.792C237.639 99.368 237.825 99.8107 238.199 100.12C238.583 100.429 239.137 100.584 239.863 100.584ZM247.424 107L251.792 96.984H246.896V99.064H245.696V95.832H253.152V97.016L248.864 107H247.424ZM259.05 107.192C258.399 107.192 257.829 107.112 257.338 106.952C256.847 106.781 256.437 106.552 256.106 106.264C255.786 105.976 255.541 105.635 255.37 105.24C255.21 104.845 255.13 104.419 255.13 103.96C255.13 103.192 255.338 102.584 255.754 102.136C256.17 101.688 256.719 101.373 257.402 101.192V101.064C256.805 100.861 256.33 100.536 255.978 100.088C255.637 99.6293 255.466 99.08 255.466 98.44C255.466 97.5867 255.781 96.9093 256.41 96.408C257.039 95.896 257.919 95.64 259.05 95.64C260.181 95.64 261.061 95.896 261.69 96.408C262.319 96.9093 262.634 97.5867 262.634 98.44C262.634 99.08 262.458 99.6293 262.106 100.088C261.765 100.536 261.295 100.861 260.698 101.064V101.192C261.381 101.373 261.93 101.688 262.346 102.136C262.762 102.584 262.97 103.192 262.97 103.96C262.97 104.419 262.885 104.845 262.714 105.24C262.554 105.635 262.309 105.976 261.978 106.264C261.647 106.552 261.237 106.781 260.746 106.952C260.266 107.112 259.701 107.192 259.05 107.192ZM259.05 106.056C259.839 106.056 260.458 105.88 260.906 105.528C261.354 105.176 261.578 104.68 261.578 104.04V103.688C261.578 103.048 261.354 102.552 260.906 102.2C260.469 101.848 259.85 101.672 259.05 101.672C258.25 101.672 257.626 101.848 257.178 102.2C256.741 102.552 256.522 103.048 256.522 103.688V104.04C256.522 104.68 256.746 105.176 257.194 105.528C257.642 105.88 258.261 106.056 259.05 106.056ZM259.05 100.584C259.775 100.584 260.325 100.429 260.698 100.12C261.082 99.8107 261.274 99.368 261.274 98.792V98.568C261.274 97.992 261.077 97.5493 260.682 97.24C260.298 96.9307 259.754 96.776 259.05 96.776C258.346 96.776 257.797 96.9307 257.402 97.24C257.018 97.5493 256.826 97.992 256.826 98.568V98.792C256.826 99.368 257.013 99.8107 257.386 100.12C257.77 100.429 258.325 100.584 259.05 100.584Z" fill="white"/>
<path d="M31.28 125.4V121.864H31.152L28.8 127.608L26.448 121.864H26.32V125.4V131H25.088V119.832H26.816L28.784 124.76H28.88L30.848 119.832H32.512V131H31.28V125.4ZM38.3938 131.192C37.8178 131.192 37.2951 131.091 36.8258 130.888C36.3671 130.685 35.9724 130.397 35.6418 130.024C35.3218 129.64 35.0764 129.187 34.9058 128.664C34.7351 128.131 34.6497 127.533 34.6497 126.872C34.6497 126.221 34.7351 125.629 34.9058 125.096C35.0764 124.563 35.3218 124.109 35.6418 123.736C35.9724 123.352 36.3671 123.059 36.8258 122.856C37.2951 122.653 37.8178 122.552 38.3938 122.552C38.9698 122.552 39.4871 122.653 39.9458 122.856C40.4151 123.059 40.8098 123.352 41.1298 123.736C41.4604 124.109 41.7111 124.563 41.8818 125.096C42.0524 125.629 42.1378 126.221 42.1378 126.872C42.1378 127.533 42.0524 128.131 41.8818 128.664C41.7111 129.187 41.4604 129.64 41.1298 130.024C40.8098 130.397 40.4151 130.685 39.9458 130.888C39.4871 131.091 38.9698 131.192 38.3938 131.192ZM38.3938 130.088C39.1084 130.088 39.6844 129.875 40.1218 129.448C40.5591 129.021 40.7778 128.36 40.7778 127.464V126.28C40.7778 125.384 40.5591 124.723 40.1218 124.296C39.6844 123.869 39.1084 123.656 38.3938 123.656C37.6791 123.656 37.1031 123.869 36.6658 124.296C36.2284 124.723 36.0098 125.384 36.0098 126.28V127.464C36.0098 128.36 36.2284 129.021 36.6658 129.448C37.1031 129.875 37.6791 130.088 38.3938 130.088ZM44.7555 131V122.744H46.0355V124.088H46.0995C46.1848 123.885 46.2915 123.693 46.4195 123.512C46.5475 123.32 46.7022 123.155 46.8835 123.016C47.0755 122.877 47.2995 122.765 47.5555 122.68C47.8115 122.595 48.1102 122.552 48.4515 122.552C49.3155 122.552 50.0088 122.829 50.5315 123.384C51.0542 123.928 51.3155 124.701 51.3155 125.704V131H50.0355V125.928C50.0355 125.171 49.8702 124.611 49.5395 124.248C49.2088 123.875 48.7235 123.688 48.0835 123.688C47.8275 123.688 47.5768 123.72 47.3315 123.784C47.0862 123.848 46.8675 123.944 46.6755 124.072C46.4835 124.2 46.3288 124.365 46.2115 124.568C46.0942 124.771 46.0355 125.005 46.0355 125.272V131H44.7555ZM57.9813 131C57.3519 131 56.8879 130.824 56.5893 130.472C56.3013 130.12 56.1573 129.667 56.1573 129.112V123.832H53.4053V122.744H55.4533C55.7306 122.744 55.9226 122.691 56.0293 122.584C56.1466 122.467 56.2053 122.269 56.2053 121.992V119.832H57.4373V122.744H61.1973V123.832H57.4373V129.912H61.1973V131H57.9813ZM63.943 119.16H65.223V124.088H65.287C65.3723 123.885 65.479 123.693 65.607 123.512C65.735 123.32 65.8897 123.155 66.071 123.016C66.263 122.877 66.487 122.765 66.743 122.68C66.999 122.595 67.2977 122.552 67.639 122.552C68.503 122.552 69.1963 122.829 69.719 123.384C70.2417 123.928 70.503 124.701 70.503 125.704V131H69.223V125.928C69.223 125.171 69.0577 124.611 68.727 124.248C68.3963 123.875 67.911 123.688 67.271 123.688C67.015 123.688 66.7643 123.72 66.519 123.784C66.2737 123.848 66.055 123.944 65.863 124.072C65.671 124.2 65.5163 124.365 65.399 124.568C65.2817 124.771 65.223 125.005 65.223 125.272V131H63.943V119.16ZM73.4088 133.208L78.9768 118.84H80.1288L74.5608 133.208H73.4088ZM85.6905 131V126.616L81.8345 119.832H83.3705L84.9705 122.744L86.3305 125.288H86.3945L87.7865 122.744L89.3865 119.832H90.8905L87.0345 126.616V131H85.6905ZM96.1003 131.192C95.5029 131.192 94.9643 131.091 94.4843 130.888C94.0149 130.685 93.6096 130.397 93.2682 130.024C92.9376 129.64 92.6816 129.187 92.5003 128.664C92.3189 128.131 92.2283 127.539 92.2283 126.888C92.2283 126.227 92.3189 125.629 92.5003 125.096C92.6923 124.563 92.9536 124.109 93.2843 123.736C93.6149 123.352 94.0096 123.059 94.4683 122.856C94.9376 122.653 95.4549 122.552 96.0203 122.552C96.5749 122.552 97.0763 122.653 97.5243 122.856C97.9829 123.059 98.3723 123.341 98.6923 123.704C99.0123 124.056 99.2576 124.477 99.4283 124.968C99.5989 125.459 99.6843 125.997 99.6843 126.584V127.192H93.5723V127.576C93.5723 127.939 93.6309 128.275 93.7483 128.584C93.8656 128.893 94.0309 129.16 94.2443 129.384C94.4683 129.608 94.7349 129.784 95.0443 129.912C95.3643 130.029 95.7163 130.088 96.1003 130.088C96.6549 130.088 97.1349 129.96 97.5403 129.704C97.9456 129.448 98.2549 129.096 98.4683 128.648L99.4123 129.288C99.1669 129.843 98.7563 130.301 98.1803 130.664C97.6149 131.016 96.9216 131.192 96.1003 131.192ZM96.0203 123.608C95.6683 123.608 95.3429 123.672 95.0443 123.8C94.7456 123.928 94.4843 124.104 94.2603 124.328C94.0469 124.552 93.8763 124.819 93.7483 125.128C93.6309 125.427 93.5723 125.757 93.5723 126.12V126.232H98.3083V126.056C98.3083 125.693 98.2496 125.363 98.1323 125.064C98.0256 124.765 97.8709 124.509 97.6683 124.296C97.4763 124.072 97.2363 123.901 96.9483 123.784C96.6709 123.667 96.3616 123.608 96.0203 123.608ZM108.67 131C108.169 131 107.811 130.872 107.598 130.616C107.385 130.36 107.251 130.04 107.198 129.656H107.118C106.937 130.136 106.643 130.515 106.238 130.792C105.843 131.059 105.31 131.192 104.638 131.192C103.774 131.192 103.086 130.968 102.574 130.52C102.062 130.072 101.806 129.459 101.806 128.68C101.806 127.912 102.083 127.32 102.638 126.904C103.203 126.488 104.11 126.28 105.358 126.28H107.118V125.464C107.118 124.856 106.947 124.403 106.606 124.104C106.265 123.795 105.779 123.64 105.15 123.64C104.595 123.64 104.142 123.752 103.79 123.976C103.438 124.189 103.155 124.483 102.942 124.856L102.078 124.216C102.185 124.003 102.329 123.795 102.51 123.592C102.691 123.389 102.915 123.213 103.182 123.064C103.449 122.904 103.753 122.781 104.094 122.696C104.435 122.6 104.814 122.552 105.23 122.552C106.201 122.552 106.969 122.797 107.534 123.288C108.11 123.779 108.398 124.461 108.398 125.336V129.88H109.55V131H108.67ZM104.862 130.12C105.193 130.12 105.491 130.083 105.758 130.008C106.035 129.923 106.275 129.816 106.478 129.688C106.681 129.549 106.835 129.389 106.942 129.208C107.059 129.016 107.118 128.813 107.118 128.6V127.24H105.358C104.59 127.24 104.03 127.347 103.678 127.56C103.326 127.773 103.15 128.083 103.15 128.488V128.824C103.15 129.251 103.299 129.576 103.598 129.8C103.907 130.013 104.329 130.12 104.862 130.12ZM111.576 129.912H113.992V123.832H111.576V122.744H115.272V124.824H115.352C115.522 124.173 115.842 123.667 116.312 123.304C116.792 122.931 117.4 122.744 118.136 122.744H119.288V124.024H117.736C117 124.024 116.402 124.237 115.944 124.664C115.496 125.091 115.272 125.651 115.272 126.344V129.912H118.472V131H111.576V129.912ZM28.8 155.192C28.1173 155.192 27.5307 155.064 27.04 154.808C26.5493 154.541 26.144 154.163 25.824 153.672C25.504 153.181 25.2693 152.579 25.12 151.864C24.9707 151.149 24.896 150.333 24.896 149.416C24.896 148.509 24.9707 147.699 25.12 146.984C25.2693 146.259 25.504 145.651 25.824 145.16C26.144 144.669 26.5493 144.296 27.04 144.04C27.5307 143.773 28.1173 143.64 28.8 143.64C29.4827 143.64 30.0693 143.773 30.56 144.04C31.0507 144.296 31.456 144.669 31.776 145.16C32.096 145.651 32.3307 146.259 32.48 146.984C32.6293 147.699 32.704 148.509 32.704 149.416C32.704 150.333 32.6293 151.149 32.48 151.864C32.3307 152.579 32.096 153.181 31.776 153.672C31.456 154.163 31.0507 154.541 30.56 154.808C30.0693 155.064 29.4827 155.192 28.8 155.192ZM28.8 154.024C29.248 154.024 29.632 153.939 29.952 153.768C30.272 153.587 30.528 153.336 30.72 153.016C30.9227 152.696 31.072 152.312 31.168 151.864C31.264 151.405 31.312 150.893 31.312 150.328V148.504C31.312 147.949 31.264 147.443 31.168 146.984C31.072 146.525 30.9227 146.136 30.72 145.816C30.528 145.496 30.272 145.251 29.952 145.08C29.632 144.899 29.248 144.808 28.8 144.808C28.352 144.808 27.968 144.899 27.648 145.08C27.328 145.251 27.0667 145.496 26.864 145.816C26.672 146.136 26.528 146.525 26.432 146.984C26.336 147.443 26.288 147.949 26.288 148.504V150.328C26.288 150.893 26.336 151.405 26.432 151.864C26.528 152.312 26.672 152.696 26.864 153.016C27.0667 153.336 27.328 153.587 27.648 153.768C27.968 153.939 28.352 154.024 28.8 154.024ZM28.8 150.36C28.4267 150.36 28.1653 150.285 28.016 150.136C27.8773 149.987 27.808 149.805 27.808 149.592V149.24C27.808 149.027 27.8773 148.845 28.016 148.696C28.1653 148.547 28.4267 148.472 28.8 148.472C29.1733 148.472 29.4293 148.547 29.568 148.696C29.7173 148.845 29.792 149.027 29.792 149.24V149.592C29.792 149.805 29.7173 149.987 29.568 150.136C29.4293 150.285 29.1733 150.36 28.8 150.36ZM38.4098 155.192C37.8231 155.192 37.2951 155.096 36.8258 154.904C36.3564 154.701 35.9564 154.419 35.6258 154.056C35.3058 153.683 35.0551 153.229 34.8738 152.696C34.7031 152.163 34.6178 151.565 34.6178 150.904C34.6178 150.072 34.7404 149.293 34.9858 148.568C35.2418 147.832 35.5618 147.165 35.9457 146.568C36.3404 145.96 36.7778 145.427 37.2578 144.968C37.7378 144.499 38.2071 144.12 38.6658 143.832H40.3938C39.7858 144.269 39.2418 144.696 38.7618 145.112C38.2924 145.528 37.8764 145.965 37.5138 146.424C37.1511 146.872 36.8471 147.357 36.6018 147.88C36.3564 148.392 36.1538 148.973 35.9938 149.624L36.0738 149.656C36.3404 149.197 36.6924 148.819 37.1298 148.52C37.5671 148.211 38.1324 148.056 38.8258 148.056C39.3164 148.056 39.7644 148.136 40.1698 148.296C40.5751 148.456 40.9271 148.685 41.2258 148.984C41.5244 149.283 41.7538 149.645 41.9138 150.072C42.0844 150.499 42.1698 150.973 42.1698 151.496C42.1698 152.04 42.0791 152.541 41.8978 153C41.7164 153.448 41.4604 153.837 41.1298 154.168C40.8098 154.488 40.4151 154.739 39.9458 154.92C39.4871 155.101 38.9751 155.192 38.4098 155.192ZM38.3938 154.056C39.1618 154.056 39.7538 153.848 40.1698 153.432C40.5964 153.016 40.8098 152.429 40.8098 151.672V151.544C40.8098 150.787 40.5964 150.2 40.1698 149.784C39.7538 149.368 39.1618 149.16 38.3938 149.16C37.6258 149.16 37.0284 149.368 36.6018 149.784C36.1858 150.2 35.9778 150.787 35.9778 151.544V151.672C35.9778 152.429 36.1858 153.016 36.6018 153.432C37.0284 153.848 37.6258 154.056 38.3938 154.056ZM54.2213 157.208L59.7893 142.84H60.9413L55.3733 157.208H54.2213ZM80.5608 155H73.1048V153.624L76.8328 150.264C77.3768 149.773 77.8248 149.272 78.1768 148.76C78.5288 148.237 78.7048 147.688 78.7048 147.112V146.92C78.7048 146.248 78.5288 145.731 78.1768 145.368C77.8248 144.995 77.3021 144.808 76.6088 144.808C75.9261 144.808 75.3981 144.984 75.0248 145.336C74.6621 145.677 74.3901 146.136 74.2088 146.712L73.0088 146.264C73.1154 145.933 73.2594 145.613 73.4408 145.304C73.6328 144.984 73.8728 144.701 74.1608 144.456C74.4488 144.211 74.7954 144.013 75.2008 143.864C75.6168 143.715 76.0968 143.64 76.6408 143.64C77.1954 143.64 77.6861 143.72 78.1128 143.88C78.5501 144.04 78.9128 144.264 79.2008 144.552C79.4994 144.84 79.7234 145.181 79.8728 145.576C80.0328 145.971 80.1128 146.403 80.1128 146.872C80.1128 147.299 80.0488 147.699 79.9208 148.072C79.8034 148.445 79.6328 148.803 79.4088 149.144C79.1954 149.485 78.9341 149.821 78.6248 150.152C78.3261 150.472 77.9901 150.792 77.6168 151.112L74.4968 153.832H80.5608V155ZM84.3305 155L88.6985 144.984H83.8025V147.064H82.6025V143.832H90.0585V145.016L85.7705 155H84.3305Z" fill="white"/>
<defs>
<filter id="filter0_b_3609_12896" x="-80" y="-80" width="495" height="345" filterUnits="userSpaceOnUse" color-interpolation-filters="sRGB">
<feFlood flood-opacity="0" result="BackgroundImageFix"/>
<feGaussianBlur in="BackgroundImage" stdDeviation="40"/>
<feComposite in2="SourceAlpha" operator="in" result="effect1_backgroundBlur_3609_12896"/>
<feBlend mode="normal" in="SourceGraphic" in2="effect1_backgroundBlur_3609_12896" result="shape"/>
</filter>
<linearGradient id="paint0_linear_3609_12896" x1="-48" y1="-20" x2="382" y2="205.5" gradientUnits="userSpaceOnUse">
<stop offset="0.122247" stop-color="#FF974B"/>
<stop offset="0.878935" stop-color="#FF94A1"/>
</linearGradient>
<clipPath id="clip0_3609_12896">
<rect width="63" height="63" fill="white" transform="translate(248 7)"/>
</clipPath>
</defs>
</svg>
