<svg width="85" height="103" viewBox="0 0 85 103" fill="none" xmlns="http://www.w3.org/2000/svg">
<path d="M5.06348 14.1019V88.9642C5.06348 91.446 6.04938 93.8262 7.80431 95.5811C9.55923 97.336 11.9394 98.3219 14.4213 98.3219H70.5679C73.0498 98.3219 75.43 97.336 77.1849 95.5811C78.9398 93.8262 79.9257 91.446 79.9257 88.9642V34.4177C79.9256 33.171 79.6763 31.937 79.1926 30.788C78.7089 29.639 78.0005 28.5983 77.109 27.7269L56.3348 7.41111C54.5865 5.70171 52.2387 4.74444 49.7937 4.74414H14.4213C11.9394 4.74414 9.55923 5.73005 7.80431 7.48497C6.04938 9.23989 5.06348 11.6201 5.06348 14.1019V14.1019Z" stroke="#0288F7" stroke-width="9.35778" stroke-linecap="round" stroke-linejoin="round"/>
<path d="M28.457 56.2129H56.5304" stroke="#0288F7" stroke-width="9.35778" stroke-linecap="round" stroke-linejoin="round"/>
<path d="M28.457 74.9277H42.4937" stroke="#0288F7" stroke-width="9.35778" stroke-linecap="round" stroke-linejoin="round"/>
<path d="M51.8506 4.74414V23.4597C51.8506 25.9415 52.8365 28.3217 54.5914 30.0767C56.3463 31.8316 58.7265 32.8175 61.2084 32.8175H79.9239" stroke="#0288F7" stroke-width="9.35778" stroke-linejoin="round"/>
</svg>
