<svg width="255" height="255" viewBox="0 0 255 255" fill="none" xmlns="http://www.w3.org/2000/svg">
<circle cx="127.568" cy="127.572" r="126.994" fill="#F1F7FC"/>
<path d="M122.32 100.317L127.52 90.1172L132.72 100.317L127.52 104.217L122.32 100.317ZM140.42 122.617L142.92 138.217L145.32 131.717L140.42 122.617ZM136.52 99.8172L135.42 100.717L141.52 107.417C139.82 104.617 138.12 102.117 136.52 99.8172ZM139.42 116.917L145.32 127.617L144.92 114.117L135.92 104.217L139.42 116.917ZM135.32 98.3172C133.92 96.4172 132.52 94.8172 131.42 93.5172L134.32 99.1172L135.32 98.3172ZM119.12 104.217L110.12 114.117L109.72 127.617L115.62 116.917L119.12 104.217ZM123.62 93.5172C122.42 94.8172 121.12 96.5172 119.72 98.3172L120.72 99.1172L123.62 93.5172ZM118.52 99.8172C116.92 102.017 115.22 104.617 113.62 107.317L119.62 100.617L118.52 99.8172ZM141.62 141.817L137.72 117.717L127.52 106.717L117.42 117.717L113.52 141.817L117.02 151.817L127.62 155.717L138.22 151.817L141.62 141.817ZM136.72 154.417L130.52 156.717L134.62 158.117L136.72 154.417ZM124.52 156.717L118.32 154.417L120.42 158.117L124.52 156.717ZM114.62 122.617L109.72 131.617L112.12 138.117L114.62 122.617ZM142.52 145.017L140.62 150.617L143.72 149.017L142.52 145.017ZM128.92 105.517L136.52 113.717L133.32 102.217L128.92 105.517ZM118.42 113.717L126.02 105.517L121.62 102.217L118.42 113.717ZM111.32 149.017L114.42 150.617L112.52 145.017L111.32 149.017ZM150.32 131.117C149.62 126.817 148.42 122.717 146.92 118.917L147.22 130.717L150.32 131.117ZM145.42 156.017C146.42 154.517 147.32 153.017 148.02 151.417L145.72 150.817L145.42 156.017ZM136.72 158.217L143.42 158.117L143.82 151.217L139.52 153.417L136.72 158.217ZM137.72 162.917C139.22 162.117 140.62 161.217 141.82 160.117L136.52 160.217L137.72 162.917ZM148.82 149.617C149.42 148.017 149.92 146.417 150.32 145.117L146.72 149.017L148.82 149.617ZM148.22 132.817L151.12 138.017C151.02 136.317 150.92 134.717 150.72 133.117L148.22 132.817ZM130.12 165.017C132.22 164.817 134.22 164.317 135.92 163.717L134.62 160.917L130.12 165.017ZM143.52 141.917L145.22 147.617L150.82 141.617L146.52 133.917L143.52 141.917ZM108.02 118.917C106.52 122.717 105.42 126.817 104.62 131.117L107.62 130.717L108.02 118.917ZM104.62 145.017C104.92 146.417 105.42 147.917 106.12 149.617L108.42 149.017L104.62 145.017ZM106.92 151.517C107.62 153.117 108.52 154.717 109.62 156.217L109.32 150.817L106.92 151.517ZM104.42 133.117C104.22 134.717 104.02 136.317 104.02 138.017L106.92 132.817L104.42 133.117ZM127.52 157.717L121.92 159.617L127.52 164.717L133.12 159.617L127.52 157.717ZM108.42 133.917L104.12 141.617L109.72 147.617L111.42 141.917L108.42 133.917ZM119.02 163.717C120.72 164.417 122.72 164.817 124.82 165.017L120.32 160.917L119.02 163.717ZM117.32 162.917L118.52 160.217L113.12 160.117C114.32 161.217 115.72 162.117 117.32 162.917ZM115.52 153.317L111.22 151.117L111.62 158.017L118.32 158.117L115.52 153.317Z" fill="#0288F7"/>
</svg>
