<svg width="255" height="255" viewBox="0 0 255 255" fill="none" xmlns="http://www.w3.org/2000/svg">
<circle cx="127.475" cy="127.572" r="126.994" fill="#F1F7FC"/>
<path d="M144.883 111.806L136.583 107.906H152.783L144.883 111.806ZM149.383 122.706L139.883 144.306L160.483 122.706H149.383ZM158.583 120.706L146.783 114.906L149.283 120.706H158.583ZM132.183 120.506L142.983 113.006L132.183 108.006L121.383 113.006L132.183 120.506ZM114.983 120.706L117.583 114.906L105.883 120.706H114.983ZM119.883 114.306L117.083 120.706H129.083L119.883 114.306ZM135.283 120.706H147.283L144.483 114.306L135.283 120.706ZM173.483 120.706L163.283 112.906L163.683 120.706H173.483ZM161.683 120.106L161.183 111.406L156.783 108.106L147.083 112.906L161.683 120.106ZM137.183 145.606L147.283 122.706H133.283L137.183 145.606ZM132.183 127.506L128.583 148.806L132.183 160.406L135.783 148.806L132.183 127.506ZM90.5825 122.706L113.583 143.206L101.083 122.706H90.5825ZM107.083 128.806L118.483 147.606L129.883 157.806L126.783 149.506L107.083 128.806ZM124.483 144.306L114.983 122.706H103.883L124.483 144.306ZM137.583 149.506L134.483 157.806L145.883 147.606L157.283 128.806L137.583 149.506ZM150.783 143.206L173.783 122.706H163.283L150.783 143.206ZM131.083 122.706H117.083L127.183 145.606L131.083 122.706ZM107.483 108.106L103.083 111.406L102.583 120.106L117.283 112.906L107.483 108.106ZM127.783 107.906H111.583L119.483 111.806L127.783 107.906ZM101.083 112.906L90.8825 120.706H100.683L101.083 112.906Z" fill="#0288F7"/>
</svg>
