<svg width="255" height="255" viewBox="0 0 255 255" fill="none" xmlns="http://www.w3.org/2000/svg">
<circle cx="127.521" cy="127.572" r="126.994" fill="#F1F7FC"/>
<path d="M127.523 98.7656H147.023L145.023 101.966H127.523H110.023L108.023 98.7656H127.523ZM111.723 146.766L108.623 143.166L105.823 145.266L109.523 150.366L111.723 146.766ZM143.723 151.166L141.623 147.666H127.523H113.423L111.323 151.166H127.523H143.723ZM149.623 127.566V111.966L147.223 113.766V127.566V141.466L149.623 143.266V127.566ZM154.923 105.666L148.923 99.3656L146.723 102.966L150.823 108.666L154.923 105.666ZM156.423 104.466L161.223 100.866L153.123 92.3656L149.823 97.6656L156.423 104.466ZM149.223 109.766L145.523 104.666L143.323 108.266L146.423 111.866L149.223 109.766ZM127.523 109.366H113.323L109.623 113.566V127.566V141.566L113.323 145.766H127.523H141.723L145.423 141.566V127.566V113.566L141.723 109.366H127.523ZM100.123 105.666L104.223 108.666L108.323 102.966L106.123 99.3656L100.123 105.666ZM105.423 127.566V143.166L107.823 141.366V127.466V113.666L105.423 111.866V127.566ZM105.823 109.766L108.623 111.866L111.723 108.266L109.523 104.666L105.823 109.766ZM111.323 103.966L113.423 107.466H127.523H141.623L143.723 103.966H127.523H111.323ZM149.223 145.266L146.423 143.166L143.323 146.766L145.523 150.366L149.223 145.266ZM149.923 157.466L152.923 162.266L161.523 154.466L156.423 150.666L149.923 157.466ZM127.523 158.366H106.823L103.723 163.366H151.323L148.223 158.366H127.523ZM98.623 150.666L93.423 154.466L102.023 162.266L105.023 157.466L98.623 150.666ZM97.723 127.566V106.266L93.223 102.966V152.266L97.723 148.966V127.566ZM157.323 127.566V148.866L161.823 152.166V102.866L157.323 106.166V127.566ZM155.423 127.566V107.666L151.623 110.466V127.466V144.466L155.423 147.266V127.566ZM154.923 149.466L150.823 146.466L146.723 152.166L148.923 155.766L154.923 149.466ZM108.423 152.166L104.323 146.466L100.223 149.466L106.223 155.766L108.423 152.166ZM105.123 97.6656L101.823 92.3656L93.723 100.866L98.523 104.466L105.123 97.6656ZM147.023 156.366L145.023 153.166H127.523H110.023L108.023 156.366H127.523H147.023ZM99.623 127.566V147.466L103.423 144.666V127.666V110.666L99.623 107.866V127.566ZM127.523 96.7656H148.223L151.323 91.7656H103.723L106.823 96.7656H127.523Z" fill="#0288F7"/>
</svg>
