<svg width="63" height="60" viewBox="0 0 63 60" fill="none" xmlns="http://www.w3.org/2000/svg">
<g clip-path="url(#clip0_2319_723)">
<g clip-path="url(#clip1_2319_723)">
<path d="M54.7657 10.9939C54.6639 11.6916 54.5622 12.3395 54.4605 13.0372C53.7484 16.7252 51.9681 19.9148 49.2722 22.5562C48.1022 23.7025 46.9832 24.8487 45.7624 25.9451C45.2538 26.4435 44.9994 26.9917 44.9486 27.6396C44.5925 30.8292 44.1347 33.969 43.7278 37.1586C43.7278 37.3081 43.6261 37.4576 43.5243 37.5573C40.9302 40.0491 38.336 42.5909 35.7419 45.1326C35.691 45.1824 35.691 45.1824 35.5893 45.2322C34.6737 43.0394 33.809 40.7967 32.8934 38.6039C32.3847 39.1022 31.9269 39.6006 31.4183 40.0491C30.6553 39.3016 29.8923 38.554 29.1802 37.8563C27.5525 39.0026 25.9756 40.099 24.4497 41.1954C20.889 37.7068 17.3284 34.2182 13.7678 30.7295C14.836 29.2843 15.9551 27.7393 17.125 26.1445C16.362 25.4468 15.6499 24.749 14.836 23.9516C15.3955 23.4533 15.9551 23.0047 16.5146 22.5064C14.1748 21.5594 11.9367 20.7122 9.64771 19.8151C9.8003 19.6656 9.90203 19.5659 10.0038 19.4164C12.3945 17.0741 14.7852 14.7317 17.1758 12.3893C17.5319 12.0405 17.9388 11.8411 18.4475 11.7913C21.4994 11.4424 24.6022 11.0437 27.6542 10.6949C28.3663 10.5952 28.875 10.3958 29.3836 9.89747C30.757 8.50202 32.1813 7.15641 33.6055 5.8108C36.1488 3.46844 39.1499 2.07299 42.507 1.37526C43.1683 1.12607 43.8804 1.07624 44.6434 0.976562C45.5081 0.976562 46.4237 0.976562 47.2884 0.976562C47.441 1.0264 47.5427 1.0264 47.6953 1.07624C49.5265 1.22575 51.2559 1.67429 52.9854 2.32217C53.138 2.37201 53.3414 2.52152 53.3923 2.67104C53.7484 3.76746 54.1044 4.86389 54.4096 6.01015C54.6131 6.70787 54.6639 7.45543 54.8165 8.203C54.7657 9.10007 54.7657 10.047 54.7657 10.9939ZM31.3674 35.9126C31.4183 35.8628 31.52 35.7631 31.6217 35.6634C36.81 30.58 41.9984 25.4966 47.1358 20.463C47.5936 20.0145 48.0514 19.5659 48.4074 19.0676C51.7137 14.7815 52.5784 10.047 51.0016 4.91372C50.9507 4.76421 50.7981 4.6147 50.6455 4.56486C48.204 3.76746 45.6607 3.61795 43.1174 4.06649C39.862 4.6147 37.0644 6.10982 34.7245 8.40235C29.6888 13.4858 24.5005 18.5194 19.3631 23.6028C19.2613 23.7025 19.1596 23.8021 19.1087 23.852C20.8382 25.5464 22.5168 27.1911 24.2971 28.9354C28.0103 25.2973 31.7743 21.6093 35.4367 18.021C36.0979 18.6689 36.7592 19.3168 37.5222 20.0145C33.809 23.6526 30.0449 27.3406 26.3317 30.9787C28.0103 32.6234 29.6888 34.268 31.3674 35.9126ZM17.5319 30.4305C19.9226 32.7729 22.3133 35.1152 24.704 37.4576C25.467 36.9592 26.23 36.411 26.9929 35.8628C24.3479 33.3211 21.8046 30.7794 19.1596 28.1878C18.6001 28.9354 18.0406 29.6829 17.5319 30.4305ZM14.7343 18.7187C15.9042 19.1672 17.0741 19.6158 18.1932 20.1142C18.4984 20.2637 18.7018 20.2138 18.9561 19.9646C20.889 18.021 22.8728 16.1272 24.8057 14.1835C24.9074 14.0838 24.9583 13.9841 25.1109 13.8346C23.2797 14.0838 21.5503 14.2832 19.77 14.4825C19.4139 14.5324 19.007 14.5324 18.8035 14.7317C17.481 15.9776 16.1077 17.3233 14.7343 18.7187ZM36.6574 40.1987C37.98 38.9029 39.2516 37.6569 40.5232 36.411C40.7776 36.1618 40.9302 35.8628 40.9302 35.5139C40.981 34.9159 41.0828 34.3178 41.1336 33.7198C41.2862 32.5237 41.4388 31.2778 41.5914 30.0817C41.5406 30.0817 41.4897 30.0816 41.4388 30.1315C39.3533 32.1748 37.2678 34.2182 35.1823 36.2615C35.0806 36.3612 35.0297 36.5605 35.0806 36.6602C35.691 37.7566 36.1488 38.9527 36.6574 40.1987Z" fill="#0288F7"/>
<path d="M16.0059 45.0817C17.3284 43.7859 18.6509 42.4901 20.0243 41.1445C20.6346 41.7426 21.3468 42.3905 21.9572 43.0384C20.6346 44.3341 19.2613 45.6797 17.9388 46.9755C17.3284 46.3775 16.6671 45.7296 16.0059 45.0817Z" fill="#0288F7"/>
<path d="M9.69853 38.9521C9.03727 38.3042 8.37601 37.6563 7.76562 37.0583C9.08814 35.7625 10.4615 34.4169 11.784 33.1211C12.4453 33.769 13.1065 34.4169 13.7169 35.0149C12.3944 36.3107 11.0719 37.6065 9.69853 38.9521Z" fill="#0288F7"/>
<path d="M13.8186 42.9911C13.1574 42.3433 12.4961 41.6954 11.8857 41.0973C13.2083 39.8015 14.5816 38.4559 15.9041 37.1602C16.5145 37.7582 17.2267 38.4061 17.837 39.054C16.5145 40.3498 15.192 41.6954 13.8186 42.9911Z" fill="#0288F7"/>
<path d="M47.5936 12.2391C47.5936 14.5815 45.6099 16.575 43.2192 16.5252C40.8285 16.4753 38.8447 14.5815 38.8447 12.2391C38.8447 9.89679 40.8285 8.00296 43.2192 7.95312C45.6099 8.00296 47.5936 9.89679 47.5936 12.2391ZM43.2192 10.8935C42.4053 10.8935 41.7949 11.4916 41.7949 12.289C41.7949 13.0365 42.4562 13.6844 43.2192 13.6844C44.033 13.6844 44.6434 13.0365 44.6434 12.2391C44.6434 11.4417 44.033 10.8437 43.2192 10.8935Z" fill="#0288F7"/>
</g>
</g>
<defs>
<clipPath id="clip0_2319_723">
<rect width="62" height="59" fill="white" transform="translate(0.265625 0.976562)"/>
</clipPath>
<clipPath id="clip1_2319_723">
<rect width="47" height="46" fill="white" transform="translate(7.76562 0.976562)"/>
</clipPath>
</defs>
</svg>
