<svg width="63" height="60" viewBox="0 0 63 60" fill="none" xmlns="http://www.w3.org/2000/svg">
<g clip-path="url(#clip0_2319_749)">
<g clip-path="url(#clip1_2319_749)">
<path d="M16.6484 24.5525C16.6484 23.5991 16.6484 22.4074 16.6484 21.454C16.6484 21.2157 16.6484 21.2157 16.6484 20.9774C16.8868 19.5473 17.1251 18.1173 17.3635 16.6872C20.7003 4.53176 33.3324 -2.61849 45.4878 0.718293C56.6899 3.81674 63.8402 14.5421 62.1718 25.9825C61.4567 31.4644 59.0733 35.9929 54.7832 39.8064C51.4464 42.9048 47.6329 44.8116 43.3427 45.5266C42.6277 45.7649 41.6743 45.7649 40.9593 45.7649C40.006 45.7649 38.8142 45.7649 37.8609 45.7649C37.3842 45.7649 36.6692 45.5266 36.1925 45.5266C30.7106 44.8116 26.1821 42.4281 22.607 38.3763C19.5085 35.0395 17.6018 31.2261 16.8868 26.6976C16.8868 26.2209 16.6484 25.2675 16.6484 24.5525ZM59.7883 22.8841C59.7883 11.682 50.7313 2.86337 39.7676 2.86337C28.5655 2.86337 19.5085 11.9204 19.5085 22.8841C19.5085 34.0862 28.5655 42.9048 39.5293 42.9048C50.7313 43.1432 59.7883 34.0862 59.7883 22.8841Z" fill="#0288F7"/>
<path d="M42.1529 14.5382C42.868 14.5382 43.583 14.5382 44.0597 14.2998C44.5364 14.2998 44.7747 14.0615 44.7747 13.5848C44.7747 13.1081 44.5364 12.8698 43.8213 12.8698C42.868 12.8698 41.6762 13.1081 40.7229 13.1081C38.8161 13.1081 36.6711 13.1081 34.7643 12.8698C34.2876 12.8698 34.0493 12.8698 33.811 13.3465C33.5726 13.8232 33.811 14.2998 34.2876 14.2998C34.7643 14.2998 35.4794 14.2998 35.956 14.5382C36.1944 14.5382 36.1944 14.7765 36.4327 14.7765C37.3861 17.1599 38.1011 19.5434 39.0545 21.9268C39.0545 22.1651 39.0545 22.1651 39.0545 22.4035C37.8628 26.2169 36.4327 30.0304 35.241 33.8439C35.241 33.8439 35.241 33.8439 35.241 34.0822C32.8576 27.4086 30.7125 20.9734 28.5674 14.5382C29.2825 14.5382 29.9975 14.5382 30.4742 14.2998C30.9509 14.2998 31.1892 13.8232 31.1892 13.5848C31.1892 13.1081 30.7125 12.8698 30.2358 12.8698C28.5674 12.8698 26.899 13.1081 24.9923 13.1081C24.754 13.1081 24.754 13.1081 24.5156 13.1081C29.7591 4.52781 42.868 1.66771 51.6866 9.533C51.2099 9.77134 50.7332 9.77134 50.2566 10.0097C48.8265 10.7247 48.3498 12.3931 48.8265 13.8232C49.0648 14.5382 49.5415 15.4915 50.0182 16.2066C50.7332 17.3983 51.4483 18.8283 51.6866 20.2584C51.925 21.6884 51.925 23.3568 51.4483 24.7869C50.4949 27.8853 49.5415 30.7454 48.8265 33.8439C48.8265 33.8439 48.8265 33.8439 48.8265 34.0822C46.4431 27.4086 44.298 20.9734 42.1529 14.5382Z" fill="#0288F7"/>
<path d="M45.4911 40.0391C41.916 41.2308 38.1025 41.4692 34.2891 40.2774C36.1958 35.0339 37.8642 29.7904 39.7709 24.5469C41.916 29.7904 43.8227 34.7956 45.4911 40.0391Z" fill="#0288F7"/>
<path d="M31.6608 39.3302C23.0805 35.2784 19.0287 24.553 23.0805 15.7344C25.9406 23.5997 28.8007 31.4649 31.6608 39.3302Z" fill="#0288F7"/>
<path d="M48.8281 38.6116C49.3048 37.1816 49.7815 35.9898 50.2582 34.7981C51.9266 30.2696 53.3566 25.7411 55.025 21.2126C55.74 19.0676 55.9784 16.9225 55.74 14.7774C55.74 14.7774 55.74 14.7774 55.74 14.5391C59.7919 21.6893 58.1235 33.1297 48.8281 38.6116Z" fill="#0288F7"/>
</g>
</g>
<defs>
<clipPath id="clip0_2319_749">
<rect width="62" height="59" fill="white" transform="translate(0.648438 0.375)"/>
</clipPath>
<clipPath id="clip1_2319_749">
<rect width="46" height="46" fill="white" transform="translate(16.6484)"/>
</clipPath>
</defs>
</svg>
