<svg width="63" height="60" viewBox="0 0 63 60" fill="none" xmlns="http://www.w3.org/2000/svg">
<g clip-path="url(#clip0_2319_755)">
<g clip-path="url(#clip1_2319_755)">
<path d="M9 43C9 28.6507 9 14.3733 9 0C9.84623 0 10.6925 0 11.6797 0C11.6797 13.3432 11.6797 26.7343 11.6797 40.1972C13.1371 40.1972 14.4535 40.1972 15.8874 40.1972C15.8874 37.7298 15.8874 35.2624 15.8874 32.7471C18.379 32.7471 20.7532 32.7471 23.2214 32.7471C23.2214 35.2145 23.2214 37.6819 23.2214 40.1972C24.0676 40.1972 24.7963 40.1972 25.666 40.1972C25.666 35.3343 25.666 30.4953 25.666 25.5365C28.1577 25.5365 30.5318 25.5365 33.0235 25.5365C33.0235 30.3994 33.0235 35.2624 33.0235 40.1972C33.8697 40.1972 34.5984 40.1972 35.4447 40.1972C35.4447 30.615 35.4447 21.0568 35.4447 11.4028C37.9128 11.4028 40.287 11.4028 42.7786 11.4028C42.7786 20.961 42.7786 30.5192 42.7786 40.1733C43.6719 40.1733 44.4241 40.1733 45.3173 40.1733C45.3173 27.8602 45.3173 15.5471 45.3173 3.18607C47.809 3.18607 50.1361 3.18607 52.6043 3.18607C52.6043 15.4992 52.6043 27.8123 52.6043 40.2212C54.1322 40.2212 55.5191 40.2212 57.0235 40.2212C57.0235 41.1794 57.0235 42.0418 57.0235 43C41.0392 43 25.0548 43 9 43Z" fill="#0288F7"/>
</g>
</g>
<defs>
<clipPath id="clip0_2319_755">
<rect width="62" height="59" fill="white" transform="translate(0.03125 0.375)"/>
</clipPath>
<clipPath id="clip1_2319_755">
<rect width="48" height="43" fill="white" transform="translate(9)"/>
</clipPath>
</defs>
</svg>
