<svg width="63" height="60" viewBox="0 0 63 60" fill="none" xmlns="http://www.w3.org/2000/svg">
<g clip-path="url(#clip0_2319_723)">
<g clip-path="url(#clip1_2319_723)">
<path d="M54.7664 10.9939C54.6647 11.6916 54.5629 12.3395 54.4612 13.0372C53.7491 16.7252 51.9688 19.9148 49.2729 22.5562C48.103 23.7025 46.9839 24.8487 45.7632 25.9451C45.2545 26.4435 45.0002 26.9917 44.9493 27.6396C44.5932 30.8292 44.1354 33.969 43.7285 37.1586C43.7285 37.3081 43.6268 37.4576 43.5251 37.5573C40.9309 40.0491 38.3367 42.5909 35.7426 45.1326C35.6917 45.1824 35.6917 45.1824 35.59 45.2322C34.6744 43.0394 33.8097 40.7967 32.8941 38.6039C32.3855 39.1022 31.9277 39.6006 31.419 40.0491C30.656 39.3016 29.893 38.554 29.1809 37.8563C27.5532 39.0026 25.9764 40.099 24.4504 41.1954C20.8898 37.7068 17.3292 34.2182 13.7686 30.7295C14.8367 29.2843 15.9558 27.7393 17.1257 26.1445C16.3627 25.4468 15.6506 24.749 14.8367 23.9516C15.3963 23.4533 15.9558 23.0047 16.5153 22.5064C14.1755 21.5594 11.9374 20.7122 9.64844 19.8151C9.80103 19.6656 9.90277 19.5659 10.0045 19.4164C12.3952 17.0741 14.7859 14.7317 17.1766 12.3893C17.5326 12.0405 17.9396 11.8411 18.4482 11.7913C21.5002 11.4424 24.603 11.0437 27.6549 10.6949C28.3671 10.5952 28.8757 10.3958 29.3844 9.89747C30.7577 8.50202 32.182 7.15641 33.6062 5.8108C36.1495 3.46844 39.1506 2.07299 42.5077 1.37526C43.169 1.12607 43.8811 1.07624 44.6441 0.976562C45.5088 0.976562 46.4244 0.976562 47.2891 0.976562C47.4417 1.0264 47.5435 1.0264 47.6961 1.07624C49.5272 1.22575 51.2567 1.67429 52.9861 2.32217C53.1387 2.37201 53.3422 2.52152 53.393 2.67104C53.7491 3.76746 54.1051 4.86389 54.4103 6.01015C54.6138 6.70787 54.6647 7.45543 54.8173 8.203C54.7664 9.10007 54.7664 10.047 54.7664 10.9939ZM31.3681 35.9126C31.419 35.8628 31.5207 35.7631 31.6225 35.6634C36.8108 30.58 41.9991 25.4966 47.1365 20.463C47.5943 20.0145 48.0521 19.5659 48.4082 19.0676C51.7145 14.7815 52.5792 10.047 51.0023 4.91372C50.9515 4.76421 50.7989 4.6147 50.6463 4.56486C48.2047 3.76746 45.6614 3.61795 43.1181 4.06649C39.8627 4.6147 37.0651 6.10982 34.7253 8.40235C29.6896 13.4858 24.5013 18.5194 19.3638 23.6028C19.2621 23.7025 19.1603 23.8021 19.1095 23.852C20.8389 25.5464 22.5175 27.1911 24.2978 28.9354C28.011 25.2973 31.7751 21.6093 35.4374 18.021C36.0987 18.6689 36.7599 19.3168 37.5229 20.0145C33.8097 23.6526 30.0456 27.3406 26.3324 30.9787C28.011 32.6234 29.6896 34.268 31.3681 35.9126ZM17.5326 30.4305C19.9233 32.7729 22.314 35.1152 24.7047 37.4576C25.4677 36.9592 26.2307 36.411 26.9937 35.8628C24.3487 33.3211 21.8054 30.7794 19.1603 28.1878C18.6008 28.9354 18.0413 29.6829 17.5326 30.4305ZM14.735 18.7187C15.9049 19.1672 17.0748 19.6158 18.1939 20.1142C18.4991 20.2637 18.7025 20.2138 18.9569 19.9646C20.8898 18.021 22.8735 16.1272 24.8064 14.1835C24.9082 14.0838 24.959 13.9841 25.1116 13.8346C23.2805 14.0838 21.551 14.2832 19.7707 14.4825C19.4147 14.5324 19.0077 14.5324 18.8043 14.7317C17.4818 15.9776 16.1084 17.3233 14.735 18.7187ZM36.6582 40.1987C37.9807 38.9029 39.2523 37.6569 40.524 36.411C40.7783 36.1618 40.9309 35.8628 40.9309 35.5139C40.9818 34.9159 41.0835 34.3178 41.1344 33.7198C41.287 32.5237 41.4396 31.2778 41.5922 30.0817C41.5413 30.0817 41.4904 30.0816 41.4396 30.1315C39.3541 32.1748 37.2686 34.2182 35.1831 36.2615C35.0813 36.3612 35.0305 36.5605 35.0813 36.6602C35.6917 37.7566 36.1495 38.9527 36.6582 40.1987Z" fill="#0288F7"/>
<path d="M16.0078 45.0856C17.3303 43.7898 18.6528 42.494 20.0262 41.1484C20.6366 41.7465 21.3487 42.3944 21.9591 43.0423C20.6366 44.338 19.2632 45.6836 17.9407 46.9794C17.3303 46.3814 16.6691 45.7335 16.0078 45.0856Z" fill="#0288F7"/>
<path d="M9.69853 38.956C9.03727 38.3081 8.37601 37.6602 7.76562 37.0622C9.08814 35.7664 10.4615 34.4208 11.784 33.125C12.4453 33.7729 13.1065 34.4208 13.7169 35.0188C12.3944 36.3146 11.0719 37.6104 9.69853 38.956Z" fill="#0288F7"/>
<path d="M13.8157 42.9872C13.1545 42.3394 12.4932 41.6915 11.8828 41.0934C13.2053 39.7976 14.5787 38.452 15.9012 37.1562C16.5116 37.7543 17.2237 38.4022 17.8341 39.0501C16.5116 40.3459 15.1891 41.6915 13.8157 42.9872Z" fill="#0288F7"/>
<path d="M47.5927 12.2391C47.5927 14.5815 45.6089 16.575 43.2182 16.5252C40.8275 16.4753 38.8438 14.5815 38.8438 12.2391C38.8438 9.89679 40.8275 8.00296 43.2182 7.95312C45.6089 8.00296 47.5927 9.89679 47.5927 12.2391ZM43.2182 10.8935C42.4044 10.8935 41.794 11.4916 41.794 12.289C41.794 13.0365 42.4552 13.6844 43.2182 13.6844C44.0321 13.6844 44.6424 13.0365 44.6424 12.2391C44.6424 11.4417 44.0321 10.8437 43.2182 10.8935Z" fill="#0288F7"/>
</g>
</g>
<defs>
<clipPath id="clip0_2319_723">
<rect width="62" height="59" fill="white" transform="translate(0.265625 0.976562)"/>
</clipPath>
<clipPath id="clip1_2319_723">
<rect width="47" height="46" fill="white" transform="translate(7.76562 0.976562)"/>
</clipPath>
</defs>
</svg>
