<svg width="21" height="20" viewBox="0 0 21 20" fill="none" xmlns="http://www.w3.org/2000/svg">
<path fill-rule="evenodd" clip-rule="evenodd" d="M20.465 5.88007C20.4182 4.81739 20.2463 4.08681 20.0001 3.45375C19.7462 2.78177 19.3555 2.18015 18.8436 1.68002C18.3435 1.17211 17.7379 0.777437 17.0737 0.527448C16.437 0.281275 15.7102 0.109427 14.6475 0.0625734C13.5769 0.0117516 13.237 0 10.5216 0C7.80625 0 7.46637 0.0117516 6.39973 0.0586054C5.33705 0.105459 4.60646 0.27746 3.97355 0.52348C3.30142 0.777437 2.6998 1.16814 2.19967 1.68002C1.69176 2.18015 1.29724 2.78574 1.0471 3.44993C0.800929 4.08681 0.629081 4.81342 0.582227 5.8761C0.531405 6.94672 0.519653 7.2866 0.519653 10.002C0.519653 12.7174 0.531405 13.0572 0.578259 14.1239C0.625112 15.1866 0.797113 15.9172 1.04329 16.5502C1.29724 17.2222 1.69176 17.8238 2.19967 18.3239C2.6998 18.8319 3.30539 19.2265 3.96959 19.4765C4.60646 19.7227 5.33308 19.8945 6.39591 19.9414C7.46241 19.9884 7.80244 20 10.5178 20C13.2332 20 13.5731 19.9884 14.6397 19.9414C15.7024 19.8945 16.433 19.7227 17.0659 19.4765C18.41 18.9569 19.4727 17.8942 19.9924 16.5502C20.2384 15.9133 20.4104 15.1866 20.4572 14.1239C20.5041 13.0572 20.5158 12.7174 20.5158 10.002C20.5158 7.2866 20.5119 6.94672 20.465 5.88007ZM18.664 14.0458C18.6209 15.0225 18.4569 15.55 18.3201 15.9016C17.9841 16.7729 17.2925 17.4644 16.4212 17.8005C16.0696 17.9372 15.5383 18.1013 14.5654 18.1442C13.5105 18.1912 13.1941 18.2028 10.5256 18.2028C7.85708 18.2028 7.53673 18.1912 6.48565 18.1442C5.50889 18.1013 4.98145 17.9372 4.62981 17.8005C4.19622 17.6402 3.80155 17.3863 3.48121 17.0542C3.14911 16.7299 2.89515 16.3391 2.73491 15.9056C2.59816 15.5539 2.4341 15.0225 2.39121 14.0497C2.3442 12.9948 2.3326 12.6783 2.3326 10.0098C2.3326 7.34124 2.3442 7.02089 2.39121 5.96996C2.4341 4.99321 2.59816 4.46576 2.73491 4.11413C2.89515 3.68039 3.14911 3.28587 3.48518 2.96537C3.80934 2.63327 4.20004 2.37932 4.63378 2.21922C4.98541 2.08247 5.51683 1.91841 6.48962 1.87537C7.54451 1.82852 7.86104 1.81677 10.5294 1.81677C13.2019 1.81677 13.5183 1.82852 14.5694 1.87537C15.5461 1.91841 16.0736 2.08247 16.4252 2.21922C16.8588 2.37932 17.2535 2.63327 17.5738 2.96537C17.9059 3.28968 18.1599 3.68039 18.3201 4.11413C18.4569 4.46576 18.6209 4.99702 18.664 5.96996C18.7108 7.02486 18.7226 7.34124 18.7226 10.0098C18.7226 12.6783 18.7108 12.9909 18.664 14.0458ZM10.5226 4.86719C7.68622 4.86719 5.38489 7.16836 5.38489 10.0049C5.38489 12.8415 7.68622 15.1427 10.5226 15.1427C13.3592 15.1427 15.6604 12.8415 15.6604 10.0049C15.6604 7.16836 13.3592 4.86719 10.5226 4.86719ZM10.5226 13.3376C8.68251 13.3376 7.1899 11.8452 7.1899 10.0049C7.1899 8.16466 8.68251 6.6722 10.5226 6.6722C12.3629 6.6722 13.8553 8.16466 13.8553 10.0049C13.8553 11.8452 12.3629 13.3376 10.5226 13.3376ZM15.8619 5.86025C16.5245 5.86025 17.0617 5.32308 17.0617 4.66059C17.0617 3.99795 16.5245 3.46094 15.8619 3.46094C15.1994 3.46094 14.6622 3.99795 14.6622 4.66059C14.6622 5.32308 15.1994 5.86025 15.8619 5.86025Z" fill="black"/>
</svg>
