<svg width="71" height="71" viewBox="0 0 71 71" fill="none" xmlns="http://www.w3.org/2000/svg">
<circle opacity="0.1" cx="35.2297" cy="35.837" r="34.9732" fill="#0288F7"/>
<path d="M50.578 34.7853C47.1431 28.4354 41.1193 24.5928 34.4534 24.5928C27.7874 24.5928 21.7534 28.4354 18.3491 34.7853L18.0637 35.2644L18.3287 35.7536C21.7636 42.1036 27.7874 45.9462 34.4534 45.9462C41.1193 45.9462 47.1533 42.1546 50.578 35.7536L50.843 35.2644L50.578 34.7853ZM34.4534 43.8567C28.715 43.8567 23.4454 40.6563 20.3876 35.2644C23.4454 29.8725 28.715 26.6721 34.4534 26.6721C40.1918 26.6721 45.4002 29.8827 48.5089 35.2644C45.4002 40.6563 40.1816 43.8567 34.4534 43.8567Z" fill="#0288F7"/>
<path d="M34.7483 28.3015C33.3663 28.3115 32.0183 28.7309 30.8746 29.5067C29.7308 30.2825 28.8426 31.3798 28.3221 32.66C27.8016 33.9403 27.6722 35.3461 27.9502 36.6999C28.2282 38.0537 28.9011 39.2947 29.8841 40.2662C30.867 41.2378 32.1158 41.8962 33.4727 42.1585C34.8296 42.4207 36.2338 42.2749 37.5079 41.7395C38.782 41.2042 39.8689 40.3032 40.6313 39.1505C41.3937 37.9978 41.7974 36.645 41.7914 35.263C41.7874 34.343 41.6019 33.4329 41.2455 32.5848C40.8892 31.7367 40.3689 30.9672 39.7146 30.3205C39.0604 29.6738 38.2849 29.1626 37.4327 28.8161C36.5805 28.4696 35.6683 28.2947 34.7483 28.3015ZM34.7483 40.2471C33.7721 40.2371 32.8207 39.9388 32.0135 39.3898C31.2063 38.8407 30.5793 38.0654 30.2112 37.1612C29.8432 36.257 29.7506 35.2642 29.945 34.3075C30.1394 33.3508 30.6121 32.4729 31.3038 31.784C31.9955 31.0951 32.8754 30.6259 33.8329 30.4354C34.7903 30.245 35.7827 30.3416 36.6855 30.7133C37.5882 31.085 38.3609 31.7152 38.9067 32.5246C39.4524 33.3341 39.7468 34.2868 39.7529 35.263C39.7556 35.92 39.6279 36.571 39.3771 37.1783C39.1263 37.7855 38.7574 38.337 38.2919 38.8006C37.8264 39.2642 37.2734 39.6308 36.6651 39.8792C36.0568 40.1275 35.4053 40.2525 34.7483 40.2471Z" fill="#0288F7"/>
</svg>
