<svg width="108" height="30" viewBox="0 0 108 30" fill="none" xmlns="http://www.w3.org/2000/svg">
<path d="M-4.47035e-08 29.05C0.81 29.26 1.86 29.41 2.43 29.41C7.17 29.41 8.91 26.32 8.91 22.63V1.33H5.7V22.63C5.7 24.64 4.83 26.35 2.43 26.35C2.19 26.35 0.87 26.26 0.3 26.08L-4.47035e-08 29.05ZM26.771 14.95C26.771 10.51 23.711 7.69 19.751 7.69C15.791 7.69 12.551 10.51 12.551 14.95C12.551 19.39 15.791 22.3 19.751 22.3C22.361 22.3 25.031 21.19 26.231 18.7L23.711 17.59C22.991 18.88 21.461 19.6 19.901 19.6C17.621 19.6 15.941 18.25 15.611 16.09H26.741C26.771 15.76 26.771 15.28 26.771 14.95ZM15.611 13.84C15.941 11.68 17.591 10.39 19.751 10.39C21.881 10.39 23.411 11.65 23.741 13.84H15.611ZM50.588 7.99H47.288L44.018 17.44L40.778 7.99H37.898L34.658 17.44L31.418 7.99H28.118L33.398 22H35.918L39.338 12.07L42.908 22H45.458L50.588 7.99ZM66.3511 14.95C66.3511 10.51 63.2911 7.69 59.3311 7.69C55.3711 7.69 52.1311 10.51 52.1311 14.95C52.1311 19.39 55.3711 22.3 59.3311 22.3C61.9411 22.3 64.6111 21.19 65.8111 18.7L63.2911 17.59C62.5711 18.88 61.0411 19.6 59.4811 19.6C57.2011 19.6 55.5211 18.25 55.1911 16.09H66.3211C66.3511 15.76 66.3511 15.28 66.3511 14.95ZM55.1911 13.84C55.5211 11.68 57.1711 10.39 59.3311 10.39C61.4611 10.39 62.9911 11.65 63.3211 13.84H55.1911ZM69.6131 22H72.7031V0.37H69.6131V22ZM80.0852 7.99H77.0252V22H80.0852V7.99ZM76.4852 2.32C76.4852 3.43 77.4452 4.27 78.5552 4.27C79.7252 4.27 80.5952 3.43 80.5952 2.32C80.5952 1.21 79.7252 0.37 78.5552 0.37C77.4452 0.37 76.4852 1.21 76.4852 2.32ZM92.808 0.37H91.278C87.438 0.37 85.668 2.86 85.668 6.7V7.99H82.998V10.54H85.668V22H88.788V10.54H91.938V7.99H88.788V6.7C88.788 4.9 89.238 3.34 91.278 3.34H92.808V0.37ZM107.468 7.99H104.168L100.238 17.59L96.3384 7.99H93.0384L98.5884 21.34L95.5584 28.84H98.7984L107.468 7.99Z" fill="#007ADF"/>
</svg>
