<svg width="108" height="30" viewBox="0 0 108 30" fill="none" xmlns="http://www.w3.org/2000/svg">
<path d="M-4.47035e-08 29.0988C0.81 29.3088 1.86 29.4588 2.43 29.4588C7.17 29.4588 8.91 26.3688 8.91 22.6788V1.37883H5.7V22.6788C5.7 24.6888 4.83 26.3988 2.43 26.3988C2.19 26.3988 0.87 26.3088 0.3 26.1288L-4.47035e-08 29.0988ZM26.771 14.9988C26.771 10.5588 23.711 7.73883 19.751 7.73883C15.791 7.73883 12.551 10.5588 12.551 14.9988C12.551 19.4388 15.791 22.3488 19.751 22.3488C22.361 22.3488 25.031 21.2388 26.231 18.7488L23.711 17.6388C22.991 18.9288 21.461 19.6488 19.901 19.6488C17.621 19.6488 15.941 18.2988 15.611 16.1388H26.741C26.771 15.8088 26.771 15.3288 26.771 14.9988ZM15.611 13.8888C15.941 11.7288 17.591 10.4388 19.751 10.4388C21.881 10.4388 23.411 11.6988 23.741 13.8888H15.611ZM50.588 8.03883H47.288L44.018 17.4888L40.778 8.03883H37.898L34.658 17.4888L31.418 8.03883H28.118L33.398 22.0488H35.918L39.338 12.1188L42.908 22.0488H45.458L50.588 8.03883ZM66.3511 14.9988C66.3511 10.5588 63.2911 7.73883 59.3311 7.73883C55.3711 7.73883 52.1311 10.5588 52.1311 14.9988C52.1311 19.4388 55.3711 22.3488 59.3311 22.3488C61.9411 22.3488 64.6111 21.2388 65.8111 18.7488L63.2911 17.6388C62.5711 18.9288 61.0411 19.6488 59.4811 19.6488C57.2011 19.6488 55.5211 18.2988 55.1911 16.1388H66.3211C66.3511 15.8088 66.3511 15.3288 66.3511 14.9988ZM55.1911 13.8888C55.5211 11.7288 57.1711 10.4388 59.3311 10.4388C61.4611 10.4388 62.9911 11.6988 63.3211 13.8888H55.1911ZM69.6131 22.0488H72.7031V0.418828H69.6131V22.0488ZM80.0852 8.03883H77.0252V22.0488H80.0852V8.03883ZM76.4852 2.36883C76.4852 3.47883 77.4452 4.31883 78.5552 4.31883C79.7252 4.31883 80.5952 3.47883 80.5952 2.36883C80.5952 1.25883 79.7252 0.418828 78.5552 0.418828C77.4452 0.418828 76.4852 1.25883 76.4852 2.36883ZM92.808 0.418828H91.278C87.438 0.418828 85.668 2.90883 85.668 6.74883V8.03883H82.998V10.5888H85.668V22.0488H88.788V10.5888H91.938V8.03883H88.788V6.74883C88.788 4.94883 89.238 3.38883 91.278 3.38883H92.808V0.418828ZM107.468 8.03883H104.168L100.238 17.6388L96.3384 8.03883H93.0384L98.5884 21.3888L95.5584 28.8888H98.7984L107.468 8.03883Z" fill="white"/>
</svg>
