<svg width="21" height="20" viewBox="0 0 21 20" fill="none" xmlns="http://www.w3.org/2000/svg">
<path fill-rule="evenodd" clip-rule="evenodd" d="M15.8367 6.18861C18.787 6.18861 21.0001 8.11759 21.0001 12.2623V19.9993H16.5152V12.7795C16.5152 10.9661 15.8665 9.72882 14.2427 9.72882C13.004 9.72882 12.2661 10.5632 11.9424 11.3685C11.8235 11.6571 11.7944 12.0601 11.7944 12.4631V20H7.3089L7.30961 19.8488C7.31342 19.0351 7.3312 15.0877 7.33472 11.6781L7.33476 9.61607C7.3328 8.0623 7.32547 6.85797 7.3089 6.50504H11.7944V8.41685C12.389 7.49794 13.4559 6.18861 15.8367 6.18861ZM4.82632 6.50504V19.9993H0.341432V6.50504H4.82632ZM2.61327 0C4.14721 0 5.09255 1.00743 5.12161 2.33064C5.12161 3.62675 4.14721 4.66325 2.58355 4.66325H2.55514C1.04961 4.66325 0.0758667 3.62675 0.0758667 2.33064C0.0758667 1.00743 1.07933 0 2.61327 0Z" fill="black"/>
</svg>
