<svg width="147" height="108" viewBox="0 0 147 108" fill="none" xmlns="http://www.w3.org/2000/svg">
<path d="M15.4292 36.4287C23.6257 36.4287 30.2704 29.758 30.2704 21.5293C30.2704 13.3006 23.6257 6.62988 15.4292 6.62988C7.23263 6.62988 0.588013 13.3006 0.588013 21.5293C0.588013 29.758 7.23263 36.4287 15.4292 36.4287Z" fill="#0288F7"/>
<path d="M22.7501 24.6703C21.592 24.6703 20.5919 25.3502 20.1262 26.3316L13.8553 25.4833C13.8054 24.346 13.2981 23.3251 12.5143 22.5994L16.0593 17.4805C16.4751 17.6572 16.9305 17.755 17.4087 17.755C19.3174 17.755 20.8705 16.2039 20.8705 14.2952C20.8705 12.3886 19.3174 10.8354 17.4087 10.8354C15.5 10.8354 13.9468 12.3865 13.9468 14.2952C13.9468 15.1123 14.2317 15.8629 14.7057 16.4555L11.0609 21.7241C10.6305 21.5723 10.1669 21.4912 9.68452 21.4912C7.38079 21.4912 5.50745 23.3646 5.50745 25.6662C5.50745 27.9679 7.38079 29.8412 9.68452 29.8412C11.4414 29.8412 12.9509 28.7497 13.5663 27.2111L19.8912 28.0677C20.1282 29.4316 21.3196 30.4733 22.7522 30.4733C24.3531 30.4733 25.6547 29.1717 25.6547 27.5728C25.6547 25.9739 24.351 24.6703 22.7501 24.6703Z" fill="white"/>
<path d="M66.5679 76.074C85.9983 76.074 101.75 60.3226 101.75 40.8922C101.75 21.4619 85.9983 5.71045 66.5679 5.71045C47.1375 5.71045 31.3861 21.4619 31.3861 40.8922C31.3861 60.3226 47.1375 76.074 66.5679 76.074Z" fill="#0059AC"/>
<path d="M94.8085 28.7282C93.2658 25.0065 91.0556 21.6652 88.2404 18.796C85.4272 15.9267 82.1484 13.675 78.4994 12.101C74.7195 10.4709 70.7067 9.64551 66.5691 9.64551C62.4315 9.64551 58.4187 10.4709 54.6388 12.101C50.9898 13.675 47.7109 15.9267 44.8978 18.796C42.0847 21.6652 39.8745 25.0065 38.3297 28.7282C36.7308 32.5809 35.9199 36.6748 35.9199 40.8914C35.9199 45.108 36.7308 49.2019 38.3297 53.0546C39.8724 56.7763 42.0826 60.1176 44.8978 62.9868C47.7109 65.8561 50.9898 68.1079 54.6388 69.6818C58.4187 71.3119 62.4315 72.1373 66.5691 72.1373C70.7067 72.1373 74.7195 71.3119 78.4994 69.6818C82.1484 68.1079 85.4272 65.8561 88.2404 62.9868C91.0535 60.1176 93.2637 56.7763 94.8085 53.0546C96.4074 49.2019 97.2183 45.108 97.2183 40.8914C97.2183 36.6748 96.4053 32.583 94.8085 28.7282ZM94.1328 40.8914C94.1328 43.191 93.8625 45.449 93.3406 47.6259L84.1278 47.6259C84.6787 45.0934 84.9574 42.5194 84.9574 39.9267C84.9574 37.4878 84.712 35.0926 84.2213 32.7618L92.9663 32.7618C93.7356 35.367 94.1328 38.0991 94.1328 40.8914ZM86.0593 21.0207C88.5294 23.5386 90.4734 26.4515 91.8332 29.6202L83.4042 29.6202C83.0965 28.6326 82.741 27.6574 82.3417 26.6989C80.957 23.3722 79.0275 20.2244 76.6095 17.3426C75.3578 15.8498 74.1082 14.5877 72.9709 13.5502C77.8861 14.7333 82.3979 17.2865 86.0593 21.0207ZM68.1118 13.5897C69.5569 14.648 71.9084 16.5754 74.2662 19.3844C76.4805 22.0229 78.2416 24.8963 79.5037 27.9277C79.7365 28.487 79.9507 29.0505 80.1503 29.6202L68.1118 29.6202L68.1118 13.5897V13.5897ZM81.061 32.7639C81.6016 35.0863 81.8739 37.4816 81.8739 39.9287C81.8739 42.5236 81.5683 45.0976 80.9612 47.6279L68.1118 47.6279L68.1118 32.766L81.061 32.766L81.061 32.7639ZM51.6739 39.9287C51.6739 37.4816 51.9462 35.0863 52.4868 32.7639L65.0284 32.7639L65.0284 47.6259L52.5887 47.6259C51.9795 45.0976 51.6739 42.5236 51.6739 39.9287ZM65.0263 13.8974L65.0263 29.6202L53.3975 29.6202C53.5888 29.0713 53.7946 28.5286 54.0171 27.9922C55.2667 24.9732 57.0132 22.106 59.2088 19.4717C61.3691 16.879 63.5501 15.0181 65.0263 13.8974ZM47.0789 21.0207C50.8755 17.1493 55.5848 14.5461 60.7141 13.4213C59.5394 14.4838 58.2399 15.7874 56.9383 17.3405C54.5203 20.2244 52.5908 23.3722 51.206 26.6968C50.8068 27.6554 50.4534 28.6305 50.1436 29.6181L41.305 29.6181C42.6669 26.4515 44.6088 23.5386 47.0789 21.0207ZM40.1718 32.7639L49.3244 32.7639C48.8358 35.0947 48.5884 37.4899 48.5884 39.9287C48.5884 42.5215 48.867 45.0955 49.418 47.6279L39.7976 47.6279C39.2736 45.449 39.0054 43.1931 39.0054 40.8935C39.0075 38.0991 39.4046 35.367 40.1718 32.7639ZM47.0789 60.7642C44.2512 57.8804 42.1138 54.4809 40.7499 50.7717L50.2517 50.7717C50.5303 51.6657 50.8443 52.5556 51.1936 53.4351C52.57 56.9073 54.487 60.2673 56.8905 63.4214C58.4603 65.4819 60.0259 67.1805 61.3691 68.4967C55.9882 67.4571 51.0376 64.7999 47.0789 60.7642ZM59.3273 61.494C57.0984 58.5686 55.3249 55.4602 54.0545 52.2562C53.8591 51.7634 53.6761 51.2686 53.5035 50.7717L65.0263 50.7717L65.0263 67.6442C63.5605 66.3468 61.4439 64.2718 59.3273 61.494ZM68.1118 67.9977L68.1118 50.7717L80.0422 50.7717C79.8779 51.2499 79.7012 51.726 79.5161 52.198C78.2562 55.3916 76.4951 58.4916 74.2808 61.4108C71.9479 64.4901 69.5922 66.7231 68.1118 67.9977ZM86.0593 60.7642C82.2274 64.671 77.4661 67.2866 72.2827 68.3948C73.6009 67.0932 75.127 65.4319 76.6552 63.4235C79.0587 60.2673 80.9757 56.9073 82.3521 53.4372C82.7014 52.5556 83.0154 51.6678 83.294 50.7737L92.3883 50.7737C91.0244 54.4788 88.887 57.8804 86.0593 60.7642Z" fill="white"/>
<path d="M69.2736 57.7524L80.21 103.002L89.0964 94.057L99.6608 107.838L104.703 103.973L109.745 100.107L99.1805 86.3266L110.127 80.0703L69.2736 57.7524Z" fill="#0288F7"/>
<path d="M110.449 99.4011C109.26 97.85 108.073 96.301 106.884 94.7499C104.987 92.2757 103.091 89.8036 101.197 87.3314C100.864 86.8969 100.532 86.4623 100.197 86.0278C103.255 84.2813 106.312 82.5327 109.37 80.7862C109.828 80.5263 110.283 80.2643 110.74 80.0044C111.067 79.8173 110.915 79.364 110.651 79.2206C109.293 78.4783 107.938 77.7381 106.58 76.9958C103.322 75.2161 100.064 73.4363 96.8057 71.6565C92.8802 69.5129 88.9527 67.3672 85.0272 65.2235C81.6319 63.3689 78.2366 61.5143 74.8413 59.6596C73.7144 59.0442 72.5875 58.4288 71.4605 57.8133C70.9324 57.5243 70.4106 57.1979 69.8658 56.9422C69.8409 56.9318 69.818 56.9172 69.7951 56.9026C69.6184 56.807 69.4625 56.8424 69.3502 56.938C69.2026 57.0087 69.1048 57.1563 69.1568 57.3705C69.5207 58.8737 69.8824 60.377 70.2463 61.8802C71.1175 65.4876 71.9907 69.097 72.8619 72.7044C73.9119 77.052 74.964 81.4016 76.0139 85.7492C76.9225 89.5104 77.8311 93.2696 78.7397 97.0308C79.1847 98.8667 79.6234 100.705 80.0725 102.541C80.0787 102.568 80.085 102.593 80.0912 102.62C80.1869 103.019 80.6089 103.148 80.9021 102.852C83.4928 100.243 86.0855 97.6338 88.6761 95.0265C88.9132 94.7894 89.1481 94.5503 89.3851 94.3133C90.4663 95.7251 91.5496 97.1368 92.6307 98.5465C94.527 101.019 96.4232 103.493 98.3173 105.965C98.7539 106.535 99.1926 107.106 99.6293 107.676C99.779 107.87 100.07 107.919 100.27 107.768C102.946 105.716 105.621 103.665 108.299 101.613C108.983 101.087 109.67 100.563 110.356 100.037C110.551 99.8917 110.601 99.5986 110.449 99.4011ZM101.781 105.464C101.216 105.898 100.65 106.331 100.085 106.766C98.9909 105.337 97.8952 103.909 96.8016 102.48C94.9054 100.008 93.0092 97.534 91.115 95.0618C90.6784 94.4921 90.2397 93.9203 89.8031 93.3507C89.6097 93.097 89.2853 93.1323 89.0795 93.3403C86.4888 95.9496 83.8961 98.559 81.3055 101.166C81.137 101.335 80.9686 101.505 80.8002 101.674C80.505 100.451 80.2097 99.2306 79.9145 98.008C79.0433 94.4006 78.1701 90.7912 77.2989 87.1838C76.2489 82.8362 75.1968 78.4866 74.1468 74.139C73.2382 70.3778 72.3296 66.6187 71.421 62.8574C71.0468 61.3084 70.6746 59.7594 70.2983 58.2125C71.367 58.7968 72.4336 59.3789 73.5023 59.9632C76.7604 61.743 80.0184 63.5227 83.2765 65.3025C87.202 67.4462 91.1296 69.5919 95.0551 71.7355C98.4504 73.5901 101.846 75.4448 105.241 77.2994C106.368 77.9148 107.495 78.5303 108.622 79.1457C108.911 79.3037 109.206 79.4929 109.505 79.6655C106.543 81.3579 103.582 83.0525 100.619 84.7449C100.162 85.0048 99.7062 85.2668 99.2488 85.5267C99.0367 85.6473 99.0201 85.9883 99.1573 86.1671C100.347 87.7182 101.534 89.2671 102.723 90.8182C104.619 93.2904 106.515 95.7646 108.41 98.2367C108.755 98.6879 109.102 99.1391 109.447 99.5903C106.89 101.549 104.337 103.505 101.781 105.464Z" fill="white"/>
<path d="M120.659 37.6739C130.801 37.6739 139.022 29.4523 139.022 19.3106C139.022 9.1688 130.801 0.947266 120.659 0.947266C110.517 0.947266 102.296 9.1688 102.296 19.3106C102.296 29.4523 110.517 37.6739 120.659 37.6739Z" fill="#0288F7"/>
<path d="M133.524 16.9413C132.162 14.6043 129.36 13.4961 126.806 14.1989C126.802 14.201 126.796 14.201 126.792 14.201C126.006 14.4941 125.351 15.0617 125.068 15.9599C125.006 16.1575 124.702 16.0722 124.765 15.8747C125.068 14.9141 125.746 14.2883 126.569 13.9494C125.669 11.0448 122.931 8.98638 119.922 9.21509C116.961 9.43964 114.556 11.7475 113.982 14.7062C114.231 14.7665 114.475 14.8517 114.712 14.9619C115.654 15.4027 116.383 16.1616 116.905 17.0702C117.007 17.249 116.737 17.4112 116.633 17.2324C116.462 16.933 116.263 16.6502 116.036 16.3924C115.198 15.4339 114.001 14.8642 112.739 14.9204C111.462 14.9786 110.088 15.6772 109.229 16.6357C108.245 17.7314 107.713 19.2139 107.844 20.7088C107.973 22.1746 108.717 23.5427 109.869 24.4222C110.938 25.2393 112.181 25.6115 113.502 25.6635C114.369 25.6967 115.236 25.7092 116.103 25.7217C118.581 25.757 121.057 25.7654 123.536 25.7737C124.625 25.7758 125.713 25.7778 126.802 25.7799C127.696 25.7799 128.638 25.8548 129.518 25.6801C132.397 25.1104 134.578 22.4012 134.291 19.3469C134.214 18.4945 133.95 17.6711 133.524 16.9413Z" fill="white"/>
<path d="M54.1044 96.7342C59.5657 91.2729 59.5657 82.4185 54.1044 76.9572C48.6431 71.496 39.7887 71.496 34.3274 76.9572C28.8662 82.4185 28.8662 91.2729 34.3274 96.7342C39.7887 102.195 48.6431 102.195 54.1044 96.7342Z" fill="#0288F7"/>
<path d="M54.1691 82.0257C53.6327 81.0922 52.6222 80.5246 51.5514 80.5121C51.3123 80.51 51.0732 80.5121 50.8341 80.5121C49.5887 80.5121 48.3433 80.5121 47.0978 80.5121C46.1664 80.5121 45.2328 80.5079 44.3013 80.5121C43.4634 80.5142 42.6359 80.8406 42.06 81.4602C41.5007 82.0632 41.2553 82.8117 41.2408 83.6205C40.7355 83.6205 40.2324 83.6205 39.7271 83.6205C38.7957 83.6205 37.8621 83.6163 36.9306 83.6205C36.0927 83.6226 35.2652 83.949 34.6893 84.5686C34.1113 85.1923 33.8659 85.9699 33.8659 86.8079C33.8659 87.4129 33.8659 88.0159 33.8659 88.6209C33.8659 89.1677 33.8264 89.7374 33.9553 90.2718C34.209 91.3155 35.0573 92.1721 36.0927 92.4528C36.4919 92.5609 36.8932 92.5589 37.2987 92.5589C39.5317 92.5589 41.7627 92.5589 43.9957 92.5589C44.0581 92.5589 44.1184 92.5589 44.1807 92.5589C45.2765 92.5443 46.3265 91.9476 46.84 90.9683C47.0188 90.6273 47.1082 90.2801 47.154 89.9225L47.156 89.9225L47.156 89.9038C47.1748 89.7541 47.1852 89.6044 47.1914 89.4505C47.2933 89.4505 47.3931 89.4505 47.495 89.4505C48.784 89.4505 50.0752 89.4505 51.3643 89.4505C51.4267 89.4505 51.487 89.4505 51.5493 89.4505C52.6451 89.4359 53.6951 88.8392 54.2086 87.8599C54.533 87.2424 54.5683 86.6041 54.5683 85.9263C54.5683 85.2797 54.5683 84.633 54.5683 83.9864C54.5704 83.2982 54.5226 82.6412 54.1691 82.0257ZM44.4157 84.9948C44.4219 84.9969 44.4261 84.9969 44.4323 84.999C44.5113 85.0156 44.5903 85.0322 44.6693 85.0572C44.7089 85.0697 44.7463 85.0842 44.7837 85.0946C44.7962 85.0988 44.8066 85.1009 44.8149 85.1029C44.8211 85.1071 44.8315 85.1112 44.8419 85.1175C44.9292 85.1632 45.0166 85.2069 45.1018 85.2609C45.1122 85.2672 45.1829 85.3192 45.1975 85.3275C45.2141 85.342 45.2307 85.3545 45.2453 85.3691C45.3409 85.4543 45.4303 85.5458 45.5114 85.6456C45.5135 85.6477 45.5135 85.6477 45.5156 85.6498C45.5197 85.656 45.5239 85.6643 45.5301 85.6726C45.5613 85.7225 45.5946 85.7724 45.6237 85.8223C45.6466 85.8598 45.7422 86.0781 45.7173 86.0032C45.7484 86.0905 45.7776 86.1799 45.8004 86.2693C45.8108 86.3109 45.8191 86.3504 45.8254 86.392C45.8233 86.3879 45.8358 86.4897 45.8378 86.5147C45.8607 86.9472 45.842 87.3859 45.842 87.8183C45.842 87.9077 45.842 87.9971 45.842 88.0886C45.7963 88.0886 45.7484 88.0886 45.7027 88.0886C45.6777 88.0886 45.6507 88.0886 45.6258 88.0886C45.2307 88.0886 44.8378 88.0886 44.4427 88.0886C44.3803 88.0886 44.32 88.0886 44.2577 88.0886C44.1849 88.0886 44.1142 88.0845 44.0435 88.0782C44.0789 88.0782 43.8668 88.0429 43.8273 88.0325C43.7691 88.0159 43.7129 87.9951 43.6547 87.9784C43.6464 87.9764 43.6381 87.9743 43.6318 87.9722C43.6298 87.9701 43.6277 87.9701 43.6235 87.968C43.505 87.9119 43.399 87.8454 43.2888 87.7788C43.2805 87.7726 43.2617 87.7601 43.2472 87.7497C43.2139 87.7227 43.1807 87.6936 43.1495 87.6645C43.0767 87.5979 43.0122 87.5252 42.9457 87.4503C42.9374 87.442 42.9312 87.4358 42.927 87.4295C42.9228 87.4212 42.9166 87.4129 42.9104 87.4004C42.8896 87.3672 42.8667 87.3339 42.8459 87.3006C42.8147 87.2507 42.7856 87.1987 42.7586 87.1447C42.7461 87.1197 42.7336 87.0948 42.7232 87.0698C42.7212 87.0678 42.7212 87.0636 42.7191 87.0615C42.6817 86.9576 42.6484 86.8515 42.6255 86.7413C42.6214 86.7205 42.6172 86.6997 42.613 86.6789C42.6151 86.6748 42.6006 86.5687 42.6006 86.5542C42.5964 86.4877 42.5964 86.4232 42.5964 86.3567C42.5964 85.8972 42.5964 85.4398 42.5964 84.9803C42.9935 84.9803 43.3907 84.9803 43.7899 84.9803C43.9021 84.9803 44.0165 84.9803 44.1288 84.9803C44.1454 84.9803 44.162 84.9803 44.1787 84.9803C44.2577 84.9823 44.3367 84.9865 44.4157 84.9948ZM45.8316 89.727C45.8316 89.7353 45.8316 89.7416 45.8316 89.7478C45.8316 89.752 45.8295 89.7561 45.8295 89.7603C45.8046 89.8913 45.7672 90.0139 45.7297 90.1408C45.7277 90.1491 45.7193 90.1678 45.7131 90.1824C45.6944 90.2239 45.6736 90.2655 45.6528 90.305C45.6154 90.3757 45.5717 90.4423 45.526 90.5088C45.5239 90.5109 45.4636 90.5899 45.4553 90.6024C45.4303 90.6315 45.4033 90.6606 45.3742 90.6897C45.3326 90.7313 45.291 90.7728 45.2453 90.8124C45.2266 90.829 45.2079 90.8435 45.1912 90.8581C45.1871 90.8602 45.1829 90.8643 45.1746 90.8685C45.0831 90.9288 44.9937 90.987 44.896 91.0369C44.8773 91.0473 44.8586 91.0556 44.8398 91.0639C44.8294 91.066 44.74 91.1014 44.7276 91.1055C44.6298 91.1367 44.5321 91.1596 44.4344 91.1804C44.4198 91.1824 44.4095 91.1866 44.4011 91.1887C44.3928 91.1887 44.3824 91.1887 44.3699 91.1887C44.3076 91.1908 44.2452 91.1949 44.1807 91.197C42.2055 91.197 40.2282 91.197 38.253 91.197C37.858 91.197 37.465 91.197 37.0699 91.197C37.0076 91.197 36.9473 91.197 36.8849 91.197C36.8121 91.197 36.7414 91.1928 36.6707 91.1866C36.7061 91.1866 36.494 91.1513 36.4545 91.1409C36.3963 91.1242 36.3402 91.1034 36.2819 91.0868C36.2736 91.0847 36.2653 91.0826 36.2591 91.0806C36.257 91.0785 36.2549 91.0785 36.2508 91.0764C36.1322 91.0203 36.0262 90.9537 35.916 90.8872C35.9077 90.883 35.889 90.8685 35.8744 90.8581C35.8412 90.8311 35.8079 90.802 35.7767 90.7728C35.7039 90.7063 35.6395 90.6335 35.5729 90.5587C35.5646 90.5504 35.5584 90.5441 35.5542 90.5379C35.5501 90.5296 35.5438 90.5213 35.5376 90.5088C35.5168 90.4755 35.4939 90.4423 35.4731 90.409C35.442 90.3591 35.4128 90.3071 35.3858 90.2531C35.3733 90.2281 35.3609 90.2032 35.3505 90.1782C35.3484 90.1761 35.3484 90.172 35.3463 90.1699C35.3089 90.0659 35.2756 89.9599 35.2527 89.8497C35.2486 89.8289 35.2444 89.8081 35.2403 89.7873C35.2423 89.7832 35.2278 89.6771 35.2278 89.6626C35.2236 89.596 35.2236 89.5316 35.2236 89.465C35.2216 88.9307 35.2236 88.3964 35.2236 87.8641C35.2236 87.4358 35.2112 87.0054 35.2236 86.5791C35.2257 86.5376 35.2299 86.496 35.2299 86.4544C35.2299 86.4419 35.2299 86.4294 35.2299 86.4211C35.232 86.4128 35.234 86.4024 35.2382 86.3899C35.2611 86.2901 35.2819 86.1924 35.313 86.0968C35.3172 86.0843 35.3588 85.9803 35.3546 85.9845C35.3671 85.9575 35.3817 85.9304 35.3962 85.9034C35.4191 85.8597 35.444 85.8161 35.469 85.7745C35.4794 85.7579 35.5605 85.6414 35.5625 85.6331C35.6145 85.5687 35.6707 85.5084 35.7289 85.4522C35.7642 85.4169 35.8017 85.3857 35.837 85.3524C35.8474 85.3441 35.8682 85.3275 35.8848 85.315C35.9576 85.2651 36.0324 85.2173 36.1114 85.1736C36.1489 85.1528 36.1863 85.1341 36.2258 85.1154C36.2154 85.1216 36.3402 85.0738 36.3609 85.0676C36.4566 85.0385 36.5543 85.0135 36.652 84.9969C36.6666 84.9948 36.6811 84.9927 36.6895 84.9927C36.7518 84.9907 36.8142 84.9865 36.8787 84.9844C36.8932 84.9844 36.9078 84.9844 36.9223 84.9844C37.0304 84.9844 37.1406 84.9844 37.2488 84.9844C37.7083 84.9844 38.1657 84.9844 38.6252 84.9844C39.4943 84.9844 40.3613 84.9844 41.2304 84.9844C41.2304 84.9948 41.2304 85.0031 41.2304 85.0135L41.2241 85.0135L41.2241 85.1009L41.2304 85.1029C41.2304 85.2402 41.2304 85.3774 41.2304 85.5146C41.2304 86.0614 41.1909 86.6311 41.3198 87.1655C41.5735 88.2092 42.4218 89.0658 43.4572 89.3465C43.8564 89.4547 44.2577 89.4526 44.6631 89.4526C45.0062 89.4526 45.3513 89.4526 45.6944 89.4526C45.7401 89.4526 45.7879 89.4526 45.8337 89.4526C45.8337 89.4817 45.8337 89.5108 45.8337 89.5399C45.8378 89.6002 45.8337 89.6626 45.8316 89.727ZM53.2106 84.712C53.2106 85.2547 53.2106 85.7995 53.2106 86.3421C53.2106 86.3712 53.2106 86.4003 53.2106 86.4294C53.2106 86.4918 53.2044 86.5542 53.2023 86.6186C53.2023 86.627 53.2023 86.6332 53.2023 86.6394C53.2023 86.6436 53.2002 86.6478 53.2002 86.6519C53.1753 86.7829 53.1378 86.9056 53.1004 87.0324C53.0983 87.0407 53.09 87.0594 53.0838 87.074C53.0651 87.1156 53.0443 87.1572 53.0235 87.1967C52.9861 87.2674 52.9424 87.3339 52.8967 87.4004C52.8946 87.4025 52.8343 87.4815 52.826 87.494C52.801 87.5231 52.774 87.5522 52.7449 87.5813C52.7033 87.6229 52.6617 87.6645 52.616 87.704C52.5973 87.7206 52.5785 87.7352 52.5619 87.7497C52.5578 87.7518 52.5536 87.756 52.5453 87.7601C52.4538 87.8204 52.3644 87.8786 52.2667 87.9285C52.248 87.9389 52.2292 87.9472 52.2105 87.9556C52.2001 87.9576 52.1107 87.993 52.0983 87.9971C52.0005 88.0283 51.9028 88.0512 51.8051 88.072C51.7905 88.0741 51.7801 88.0782 51.7718 88.0803C51.7635 88.0803 51.7531 88.0803 51.7406 88.0803C51.6783 88.0824 51.6159 88.0865 51.5514 88.0886C50.2 88.0886 48.8485 88.0886 47.497 88.0886C47.3993 88.0886 47.2995 88.0886 47.2018 88.0886C47.2018 87.758 47.2018 87.4254 47.2018 87.0948C47.2018 86.4066 47.154 85.7516 46.7984 85.1362C46.262 84.2026 45.2515 83.635 44.1807 83.6226C43.9416 83.6205 43.7025 83.6226 43.4634 83.6226C43.1744 83.6226 42.8854 83.6226 42.5985 83.6226C42.5985 83.5727 42.5985 83.5207 42.6006 83.4708C42.6026 83.4292 42.6068 83.3876 42.6068 83.346C42.6068 83.3335 42.6068 83.3211 42.6068 83.3128C42.6089 83.3044 42.611 83.294 42.6151 83.2816C42.638 83.1818 42.6588 83.084 42.69 82.9884C42.6941 82.9759 42.7357 82.872 42.7316 82.8761C42.744 82.8491 42.7586 82.8221 42.7731 82.795C42.796 82.7514 42.821 82.7077 42.8459 82.6661C42.8563 82.6495 42.9374 82.5331 42.9395 82.5247C42.9914 82.4603 43.0476 82.4 43.1058 82.3439C43.1412 82.3085 43.1786 82.2773 43.2139 82.2441C43.2243 82.2357 43.2451 82.2191 43.2617 82.2066C43.3345 82.1567 43.4094 82.1089 43.4884 82.0652C43.5258 82.0445 43.5632 82.0257 43.6027 82.007C43.5923 82.0133 43.7171 81.9655 43.7379 81.9592C43.8335 81.9301 43.9312 81.9052 44.029 81.8885C44.0435 81.8864 44.0581 81.8844 44.0664 81.8844C44.1288 81.8823 44.1911 81.8781 44.2556 81.876C44.2701 81.876 44.2847 81.876 44.2993 81.876C44.4074 81.876 44.5176 81.876 44.6257 81.876C45.0852 81.876 45.5426 81.876 46.0021 81.876C47.2579 81.876 48.5117 81.876 49.7675 81.876C50.2312 81.876 50.6969 81.876 51.1605 81.876C51.2728 81.876 51.3872 81.876 51.4995 81.876C51.5161 81.876 51.5327 81.876 51.5493 81.876C51.6284 81.876 51.7074 81.8802 51.7864 81.8885C51.7926 81.8906 51.7968 81.8906 51.803 81.8927C51.882 81.9093 51.961 81.9259 52.04 81.9509C52.0795 81.9634 52.117 81.9779 52.1544 81.9883C52.1669 81.9925 52.1773 81.9946 52.1856 81.9966C52.1918 82.0008 52.2022 82.005 52.2126 82.0112C52.2999 82.0569 52.3873 82.1006 52.4725 82.1547C52.4829 82.1609 52.5536 82.2129 52.5681 82.2212C52.5848 82.2357 52.6014 82.2482 52.616 82.2628C52.7116 82.348 52.801 82.4395 52.8821 82.5393C52.8842 82.5414 52.8842 82.5414 52.8863 82.5435C52.8904 82.5497 52.8946 82.558 52.9008 82.5663C52.932 82.6162 52.9653 82.6661 52.9944 82.716C53.0172 82.7535 53.1129 82.9718 53.0879 82.8969C53.1191 82.9842 53.1482 83.0737 53.1711 83.1631C53.1815 83.2046 53.1898 83.2462 53.1961 83.2857C53.194 83.2816 53.2065 83.3834 53.2085 83.4084C53.2293 83.8409 53.2106 84.2775 53.2106 84.712Z" fill="white"/>
<path d="M138.288 57.626C143.072 57.626 146.95 53.7479 146.95 48.9641C146.95 44.1803 143.072 40.3022 138.288 40.3022C133.504 40.3022 129.626 44.1803 129.626 48.9641C129.626 53.7479 133.504 57.626 138.288 57.626Z" fill="#0288F7"/>
</svg>
