<svg width="24" height="25" viewBox="0 0 24 25" fill="none" xmlns="http://www.w3.org/2000/svg">
<g clip-path="url(#clip0_3609_12645)">
<path d="M17.9023 14.9685C16.7447 14.9685 15.7161 15.5311 15.0751 16.397L9.55672 13.5769C9.6493 13.2624 9.69922 12.9298 9.69922 12.5857C9.69922 12.1196 9.60785 11.6746 9.44242 11.2672L15.226 7.79226C15.8713 8.54969 16.8316 9.03098 17.9023 9.03098C19.8409 9.03098 21.418 7.45387 21.418 5.51535C21.418 3.57683 19.8409 1.99973 17.9023 1.99973C15.9638 1.99973 14.3867 3.57683 14.3867 5.51535C14.3867 5.9634 14.4711 6.39203 14.6246 6.78644L8.82656 10.27C8.18172 9.53496 7.23598 9.07004 6.18359 9.07004C4.24508 9.07004 2.66797 10.6471 2.66797 12.5857C2.66797 14.5242 4.24508 16.1013 6.18359 16.1013C7.36023 16.1013 8.40359 15.5202 9.04207 14.63L14.5444 17.4419C14.442 17.7713 14.3867 18.1214 14.3867 18.4841C14.3867 20.4226 15.9638 21.9997 17.9023 21.9997C19.8409 21.9997 21.418 20.4226 21.418 18.4841C21.418 16.5456 19.8409 14.9685 17.9023 14.9685ZM17.9023 3.1716C19.1947 3.1716 20.2461 4.22301 20.2461 5.51535C20.2461 6.80769 19.1947 7.8591 17.9023 7.8591C16.61 7.8591 15.5586 6.80769 15.5586 5.51535C15.5586 4.22301 16.61 3.1716 17.9023 3.1716ZM6.18359 14.9294C4.89125 14.9294 3.83984 13.878 3.83984 12.5857C3.83984 11.2933 4.89125 10.2419 6.18359 10.2419C7.47594 10.2419 8.52734 11.2933 8.52734 12.5857C8.52734 13.878 7.47594 14.9294 6.18359 14.9294ZM17.9023 20.8279C16.61 20.8279 15.5586 19.7764 15.5586 18.4841C15.5586 17.1918 16.61 16.1404 17.9023 16.1404C19.1947 16.1404 20.2461 17.1918 20.2461 18.4841C20.2461 19.7764 19.1947 20.8279 17.9023 20.8279Z" fill="white"/>
</g>
<defs>
<clipPath id="clip0_3609_12645">
<rect width="24" height="24" fill="white" transform="translate(0 0.66687)"/>
</clipPath>
</defs>
</svg>
