<svg width="24" height="25" viewBox="0 0 24 25" fill="none" xmlns="http://www.w3.org/2000/svg">
<path d="M17.9023 14.7344C16.7447 14.7344 15.7161 15.297 15.0751 16.1629L9.55672 13.3428C9.6493 13.0283 9.69922 12.6957 9.69922 12.3516C9.69922 11.8855 9.60785 11.4405 9.44242 11.0331L15.226 7.55816C15.8713 8.31559 16.8316 8.79688 17.9023 8.79688C19.8409 8.79688 21.418 7.21977 21.418 5.28125C21.418 3.34273 19.8409 1.76562 17.9023 1.76562C15.9638 1.76562 14.3867 3.34273 14.3867 5.28125C14.3867 5.7293 14.4711 6.15793 14.6246 6.55234L8.82656 10.0359C8.18172 9.30086 7.23598 8.83594 6.18359 8.83594C4.24508 8.83594 2.66797 10.413 2.66797 12.3516C2.66797 14.2901 4.24508 15.8672 6.18359 15.8672C7.36023 15.8672 8.40359 15.2861 9.04207 14.3959L14.5444 17.2078C14.442 17.5372 14.3867 17.8873 14.3867 18.25C14.3867 20.1885 15.9638 21.7656 17.9023 21.7656C19.8409 21.7656 21.418 20.1885 21.418 18.25C21.418 16.3115 19.8409 14.7344 17.9023 14.7344ZM17.9023 2.9375C19.1947 2.9375 20.2461 3.98891 20.2461 5.28125C20.2461 6.57359 19.1947 7.625 17.9023 7.625C16.61 7.625 15.5586 6.57359 15.5586 5.28125C15.5586 3.98891 16.61 2.9375 17.9023 2.9375ZM6.18359 14.6953C4.89125 14.6953 3.83984 13.6439 3.83984 12.3516C3.83984 11.0592 4.89125 10.0078 6.18359 10.0078C7.47594 10.0078 8.52734 11.0592 8.52734 12.3516C8.52734 13.6439 7.47594 14.6953 6.18359 14.6953ZM17.9023 20.5938C16.61 20.5938 15.5586 19.5423 15.5586 18.25C15.5586 16.9577 16.61 15.9062 17.9023 15.9062C19.1947 15.9062 20.2461 16.9577 20.2461 18.25C20.2461 19.5423 19.1947 20.5938 17.9023 20.5938Z" fill="#007ADF"/>
</svg>
