<svg width="24" height="25" viewBox="0 0 24 25" fill="none" xmlns="http://www.w3.org/2000/svg">
<path d="M21.4931 10.9431L17.2509 6.8201L17.6499 5.84802C17.6672 5.80548 17.676 5.75992 17.6758 5.71397C17.6755 5.66801 17.6662 5.62256 17.6483 5.58022C17.6305 5.53788 17.6044 5.49948 17.5717 5.46721C17.539 5.43495 17.5002 5.40946 17.4576 5.39221L11.9789 3.16734V2.11583C11.9789 2.0231 11.9421 1.93417 11.8767 1.86852C11.8112 1.80287 11.7223 1.76586 11.6296 1.76562H5.26187C5.16914 1.76586 5.0803 1.80287 5.01482 1.86852C4.94934 1.93417 4.91257 2.0231 4.91257 2.11583V15.9471C4.51835 15.9985 4.14135 16.1403 3.81099 16.3615C3.48062 16.5827 3.20582 16.8772 3.00803 17.222C2.81024 17.5669 2.69481 17.9528 2.67075 18.3496C2.64668 18.7465 2.71463 19.1435 2.86929 19.5097C3.02396 19.876 3.26115 20.2015 3.56237 20.461C3.86359 20.7205 4.22068 20.9068 4.60579 21.0055C4.9909 21.1042 5.39361 21.1126 5.7825 21.0301C6.17139 20.9475 6.53594 20.7762 6.84771 20.5295L6.35219 20.0475L9.58345 23.1894C9.61623 23.2215 9.65506 23.2469 9.69769 23.2639C9.74032 23.281 9.7859 23.2894 9.83181 23.2887C9.87772 23.2881 9.92304 23.2783 9.96515 23.26C10.0073 23.2417 10.0453 23.2153 10.0772 23.1822L21.5003 11.4377C21.5323 11.4048 21.5576 11.3659 21.5746 11.3232C21.5916 11.2805 21.6 11.2349 21.5993 11.1889C21.5986 11.143 21.5889 11.0976 21.5707 11.0554C21.5524 11.0133 21.5261 10.9751 21.4931 10.9431ZM16.8709 5.90759L15.8826 8.34457L11.9789 6.75963V3.921L16.8709 5.90759ZM11.2803 6.47171V8.3554H5.61207V5.79025H11.2803V6.47171ZM11.2803 14.2737V14.8856H5.61207V12.3196H11.2803V14.2737ZM11.2803 10.7536V11.6246H5.61207V9.05491H11.2803V10.75V10.7536ZM5.61207 15.5878H11.2803V18.1503H5.61207V15.5842V15.5878ZM11.6161 18.8453L10.9698 20.4365L7.05169 18.8453H11.6161ZM11.9771 14.5544L13.1613 15.0345L11.9771 17.9499V14.5544ZM11.9771 13.7989V11.0343L14.3933 12.0136L13.4285 14.3901L11.9771 13.7989ZM11.9771 10.2788V7.51058L15.6181 8.98902L14.6524 11.3655L11.9771 10.2788ZM11.2785 2.46513V5.09165H5.61026V2.46513H11.2785ZM5.26187 20.3878C4.79128 20.3882 4.33751 20.2128 3.98962 19.8959C3.64173 19.579 3.42485 19.1435 3.38155 18.6749C3.33825 18.2063 3.47166 17.7385 3.75559 17.3632C4.03952 16.9879 4.45347 16.7323 4.91618 16.6466V18.5014C4.91853 18.5163 4.92184 18.5311 4.9261 18.5456C4.92778 18.5765 4.93418 18.6069 4.94506 18.6359C4.94506 18.6431 4.95408 18.6485 4.95679 18.6548C4.97222 18.688 4.99295 18.7185 5.01817 18.7451L6.34587 20.0367C6.02977 20.2634 5.6509 20.3862 5.26187 20.3878ZM9.81992 22.4448L6.78904 19.4969L11.0168 21.2118L9.81992 22.4448ZM11.6919 20.5195L16.9702 7.52232L20.7556 11.2031L11.6919 20.5195Z" fill="white" stroke="white" stroke-width="0.133333"/>
</svg>
