<svg width="24" height="24" viewBox="0 0 24 24" fill="none" xmlns="http://www.w3.org/2000/svg">
<g clip-path="url(#clip0_3609_12653)">
<path d="M9.63223 2.5188C9.63223 1.86425 10.1628 1.33362 10.8174 1.33362H13.1878C13.8424 1.33362 14.373 1.86425 14.373 2.5188V3.19292C14.373 3.69995 14.7132 4.14043 15.1815 4.33484C15.65 4.52933 16.1954 4.45521 16.5541 4.09656L17.0309 3.61973C17.4937 3.15688 18.2441 3.15688 18.707 3.61973L20.383 5.29583C20.846 5.75868 20.846 6.5091 20.383 6.97195L19.9064 7.4487C19.5476 7.80737 19.4735 8.35284 19.668 8.82131C19.8624 9.28961 20.3029 9.62991 20.8101 9.62991H21.4841C22.1387 9.62991 22.6693 10.1605 22.6693 10.8151V13.1855C22.6693 13.84 22.1387 14.3707 21.4841 14.3707H20.81C20.3029 14.3707 19.8625 14.7109 19.668 15.1792C19.4735 15.6477 19.5476 16.1931 19.9064 16.5518L20.383 17.0286C20.846 17.4914 20.846 18.2418 20.383 18.7046L18.707 20.3807C18.2441 20.8437 17.4937 20.8437 17.0309 20.3807L16.5541 19.904C16.1954 19.5453 15.65 19.4712 15.1815 19.6657C14.7132 19.8601 14.373 20.3006 14.373 20.8076V21.4818C14.373 22.1363 13.8424 22.667 13.1878 22.667H10.8174C10.1628 22.667 9.63223 22.1363 9.63223 21.4818V20.8078C9.63223 20.3006 9.29193 19.8601 8.82363 19.6657C8.35516 19.4712 7.80969 19.5453 7.45102 19.904L6.97424 20.3807C6.51139 20.8437 5.76098 20.8437 5.29814 20.3807L3.62203 18.7046C3.15919 18.2418 3.15919 17.4914 3.62203 17.0286L4.09888 16.5518C4.45753 16.1931 4.53165 15.6477 4.33716 15.1792C4.14275 14.7109 3.70227 14.3707 3.19524 14.3707H2.52112C1.86657 14.3707 1.33594 13.84 1.33594 13.1855V10.8151C1.33594 10.1605 1.86657 9.62991 2.52112 9.62991H3.19522C3.70225 9.62991 4.14275 9.28962 4.33717 8.82133C4.53167 8.35288 4.45755 7.80744 4.09888 7.44877L3.62205 6.97195C3.1592 6.5091 3.1592 5.75869 3.62205 5.29585L5.29815 3.61973C5.761 3.15689 6.51142 3.15689 6.97427 3.61973L7.45109 4.09656C7.80975 4.45523 8.3552 4.52935 8.82365 4.33485C9.29194 4.14043 9.63223 3.69994 9.63223 3.19289V2.5188Z" stroke="#007ADF" stroke-width="1.33333"/>
<path d="M14.3736 12.0001C14.3736 13.3093 13.3123 14.3705 12.0032 14.3705C10.694 14.3705 9.63281 13.3093 9.63281 12.0001C9.63281 10.6909 10.694 9.62973 12.0032 9.62973C13.3123 9.62973 14.3736 10.6909 14.3736 12.0001Z" stroke="#007ADF" stroke-width="1.33333"/>
</g>
<defs>
<clipPath id="clip0_3609_12653">
<rect width="24" height="24" fill="white" transform="translate(0 0.000244141)"/>
</clipPath>
</defs>
</svg>
