<svg width="24" height="25" viewBox="0 0 24 25" fill="none" xmlns="http://www.w3.org/2000/svg">
<g clip-path="url(#clip0_3598_3947)">
<path d="M21.0252 6.0918H20.5058C19.932 6.0918 19.4668 6.55696 19.4668 7.13076V19.9879C19.4668 20.5617 19.932 21.0269 20.5058 21.0269H21.0252C21.599 21.0269 22.0642 20.5617 22.0642 19.9879V7.13076C22.0642 6.55696 21.599 6.0918 21.0252 6.0918Z" stroke="white" stroke-width="1.06667"/>
<path d="M15.8319 10.6367H15.3124C14.7386 10.6367 14.2734 11.1019 14.2734 11.6757V19.9874C14.2734 20.5612 14.7386 21.0263 15.3124 21.0263H15.8319C16.4057 21.0263 16.8708 20.5612 16.8708 19.9874V11.6757C16.8708 11.1019 16.4057 10.6367 15.8319 10.6367Z" stroke="white" stroke-width="1.06667"/>
<path d="M10.6366 13.2344H10.1171C9.54328 13.2344 9.07812 13.6995 9.07812 14.2733V19.9876C9.07812 20.5614 9.54328 21.0266 10.1171 21.0266H10.6366C11.2104 21.0266 11.6755 20.5614 11.6755 19.9876V14.2733C11.6755 13.6995 11.2104 13.2344 10.6366 13.2344Z" stroke="white" stroke-width="1.06667"/>
<path d="M5.44125 17.1289H4.92177C4.34797 17.1289 3.88281 17.5941 3.88281 18.1679V19.986C3.88281 20.5599 4.34797 21.025 4.92177 21.025H5.44125C6.01506 21.025 6.48022 20.5599 6.48022 19.986V18.1679C6.48022 17.5941 6.01506 17.1289 5.44125 17.1289Z" stroke="white" stroke-width="1.06667"/>
<path d="M1.28607 20.9103H23.364C23.4281 20.9103 23.48 20.9622 23.48 21.0263C23.48 21.0904 23.4281 21.1423 23.364 21.1423H1.28607C1.22199 21.1423 1.17005 21.0904 1.17005 21.0263C1.17005 20.9622 1.22199 20.9103 1.28607 20.9103Z" fill="white" stroke="white" stroke-width="1.06667"/>
<mask id="path-6-inside-1_3598_3947" fill="white">
<path fill-rule="evenodd" clip-rule="evenodd" d="M17.5138 1.73651C17.7457 1.8356 17.9082 2.06578 17.9082 2.33392C17.9082 2.38885 17.9014 2.44218 17.8885 2.49312V4.40305C17.8885 4.76168 17.5978 5.05241 17.2392 5.05241C16.8806 5.05241 16.5898 4.76168 16.5898 4.40305V4.0369L2.46791 14.6785C2.1815 14.8944 1.77435 14.8371 1.55853 14.5507C1.3427 14.2643 1.39992 13.8572 1.68633 13.6413L15.8301 2.98327H15.1809C14.8223 2.98327 14.5316 2.69255 14.5316 2.33392C14.5316 1.97529 14.8223 1.68457 15.1809 1.68457H17.1321C17.1669 1.67879 17.2027 1.67578 17.2392 1.67578C17.3373 1.67578 17.4304 1.69755 17.5138 1.73651Z"/>
</mask>
<path fill-rule="evenodd" clip-rule="evenodd" d="M17.5138 1.73651C17.7457 1.8356 17.9082 2.06578 17.9082 2.33392C17.9082 2.38885 17.9014 2.44218 17.8885 2.49312V4.40305C17.8885 4.76168 17.5978 5.05241 17.2392 5.05241C16.8806 5.05241 16.5898 4.76168 16.5898 4.40305V4.0369L2.46791 14.6785C2.1815 14.8944 1.77435 14.8371 1.55853 14.5507C1.3427 14.2643 1.39992 13.8572 1.68633 13.6413L15.8301 2.98327H15.1809C14.8223 2.98327 14.5316 2.69255 14.5316 2.33392C14.5316 1.97529 14.8223 1.68457 15.1809 1.68457H17.1321C17.1669 1.67879 17.2027 1.67578 17.2392 1.67578C17.3373 1.67578 17.4304 1.69755 17.5138 1.73651Z" fill="white"/>
<path d="M17.5138 1.73651L17.0622 2.70289L17.0783 2.71042L17.0947 2.71741L17.5138 1.73651ZM17.8885 2.49312L16.8542 2.23243L16.8219 2.36077V2.49312H17.8885ZM16.5898 4.0369H17.6565V1.8975L15.9479 3.18502L16.5898 4.0369ZM2.46791 14.6785L1.82598 13.8267L1.82598 13.8267L2.46791 14.6785ZM1.55853 14.5507L0.706649 15.1927L0.70665 15.1927L1.55853 14.5507ZM1.68633 13.6413L1.0444 12.7895H1.0444L1.68633 13.6413ZM15.8301 2.98327L16.472 3.83515L19.018 1.9166H15.8301V2.98327ZM17.1321 1.68457V2.75124H17.22L17.3067 2.73685L17.1321 1.68457ZM18.9749 2.33392C18.9749 1.62365 18.5436 1.01654 17.9328 0.755617L17.0947 2.71741C16.9478 2.65465 16.8415 2.50791 16.8415 2.33392H18.9749ZM18.9229 2.7538C18.957 2.61832 18.9749 2.47744 18.9749 2.33392H16.8415C16.8415 2.30025 16.8458 2.26604 16.8542 2.23243L18.9229 2.7538ZM16.8219 2.49312V4.40305H18.9552V2.49312H16.8219ZM16.8219 4.40305C16.8219 4.17257 17.0087 3.98574 17.2392 3.98574V6.11907C18.1869 6.11907 18.9552 5.35079 18.9552 4.40305H16.8219ZM17.2392 3.98574C17.4697 3.98574 17.6565 4.17258 17.6565 4.40305H15.5232C15.5232 5.35078 16.2915 6.11907 17.2392 6.11907V3.98574ZM17.6565 4.40305V4.0369H15.5232V4.40305H17.6565ZM15.9479 3.18502L1.82598 13.8267L3.10985 15.5304L17.2318 4.88878L15.9479 3.18502ZM1.82598 13.8267C2.01004 13.688 2.2717 13.7247 2.4104 13.9088L0.70665 15.1927C1.27701 15.9496 2.35296 16.1008 3.10985 15.5304L1.82598 13.8267ZM2.41041 13.9088C2.54911 14.0929 2.51234 14.3545 2.32827 14.4932L1.0444 12.7895C0.287507 13.3598 0.136291 14.4358 0.706649 15.1927L2.41041 13.9088ZM2.32827 14.4932L16.472 3.83515L15.1881 2.13139L1.0444 12.7895L2.32827 14.4932ZM15.1809 4.04994H15.8301V1.9166H15.1809V4.04994ZM13.4649 2.33392C13.4649 3.28165 14.2332 4.04994 15.1809 4.04994V1.9166C15.4114 1.9166 15.5982 2.10344 15.5982 2.33392H13.4649ZM15.1809 0.617904C14.2332 0.617904 13.4649 1.38619 13.4649 2.33392H15.5982C15.5982 2.5644 15.4114 2.75124 15.1809 2.75124V0.617904ZM17.1321 0.617904H15.1809V2.75124H17.1321V0.617904ZM17.3067 2.73685C17.2841 2.7406 17.2615 2.74245 17.2392 2.74245V0.609115C17.144 0.609115 17.0498 0.616974 16.9575 0.632294L17.3067 2.73685ZM17.2392 2.74245C17.1781 2.74245 17.1173 2.72861 17.0622 2.70289L17.9653 0.770132C17.7435 0.666481 17.4966 0.609115 17.2392 0.609115V2.74245Z" fill="white" mask="url(#path-6-inside-1_3598_3947)"/>
</g>
<defs>
<clipPath id="clip0_3598_3947">
<rect width="24" height="24" fill="white" transform="translate(0 0.433594)"/>
</clipPath>
</defs>
</svg>
