<svg width="33" height="33" viewBox="0 0 33 33" fill="none" xmlns="http://www.w3.org/2000/svg">
<path d="M28.668 23H27.0426L26.0013 18.836V13.6667C25.9987 11.4242 25.1888 9.25765 23.7197 7.56337C22.2507 5.86909 20.2208 4.76035 18.0013 4.44V3H15.3346V4.44C13.1152 4.76035 11.0852 5.86909 9.61621 7.56337C8.14718 9.25765 7.33726 11.4242 7.33464 13.6667V18.836L6.2933 23H4.66797V25.6667H11.524C11.815 26.8101 12.4787 27.824 13.4103 28.5481C14.3418 29.2723 15.4881 29.6654 16.668 29.6654C17.8479 29.6654 18.9941 29.2723 19.9257 28.5481C20.8572 27.824 21.5209 26.8101 21.812 25.6667H28.668V23ZM9.9613 19.324L10.0013 13.6667C10.0013 11.8986 10.7037 10.2029 11.9539 8.95262C13.2042 7.70238 14.8999 7 16.668 7C18.4361 7 20.1318 7.70238 21.382 8.95262C22.6323 10.2029 23.3346 11.8986 23.3346 13.6667V19L24.3053 23H9.04264L9.9613 19.324ZM16.668 27C16.202 26.9986 15.7445 26.8747 15.3415 26.6406C14.9385 26.4066 14.6042 26.0707 14.372 25.6667H18.964C18.7318 26.0707 18.3974 26.4066 17.9944 26.6406C17.5914 26.8747 17.134 26.9986 16.668 27Z" fill="#007ADF"/>
</svg>
