<svg width="71" height="71" viewBox="0 0 71 71" fill="none" xmlns="http://www.w3.org/2000/svg">
<circle opacity="0.1" cx="35.3233" cy="35.8375" r="34.9732" fill="#0288F7"/>
<path d="M38.5474 24.9063C37.911 24.9109 37.2792 24.9418 36.6118 25.1207C35.8848 25.3181 35.195 25.633 34.5696 26.053C33.6913 25.537 32.8404 25.1127 32.0252 25.0129C31.0127 24.8879 30.0724 24.9556 28.9796 24.9785C27.6839 25.0049 26.8388 25.6665 25.4674 26.1963C24.0971 26.7238 22.3324 27.2352 19.8419 27.2352H18.6952V38.2718L19.3408 38.594L21.4541 39.634L28.9796 48.0184L29.0152 48.054C29.8752 48.9048 31.0356 49.1158 32.0607 49.0573C33.087 49 34.0502 48.6996 34.8196 48.234C36.5132 47.2123 41.1262 44.0051 41.1262 44.0051L41.234 43.9329L41.3062 43.8618C41.8521 43.3194 42.1261 42.6578 42.3096 41.9629L46.7162 39.7407L50.0129 38.6307L50.8018 38.3784V27.2352H49.6551C47.7276 27.2483 45.8163 26.8829 44.0296 26.1596C42.6582 25.6241 41.8257 24.9694 40.5162 24.9418C39.8167 24.9281 39.1815 24.9017 38.5462 24.9063H38.5474ZM38.5818 27.1996C39.0978 27.195 39.694 27.2226 40.4463 27.2352C40.5667 27.2398 41.6686 27.7099 43.2051 28.3107C44.5043 28.821 46.3091 29.2739 48.5084 29.4207V36.7307L45.8562 37.6274H45.7851L45.7129 37.6618L42.2385 39.4185C42.0541 38.8863 41.7612 38.3983 41.3785 37.9851L41.3062 37.8773L36.4329 31.8941L35.7163 30.9974L34.8196 31.714L31.7385 34.2229C30.7042 34.9396 29.866 34.7332 29.0152 34.3307C28.7686 34.2138 28.7824 34.1782 28.5852 34.0441L33.8174 29.7074L33.8885 29.6363C35.4422 28.0952 36.3974 27.562 37.2207 27.343C37.6335 27.2306 38.0681 27.2042 38.5829 27.1996H38.5818ZM30.593 27.2352C30.9756 27.2207 31.3587 27.2326 31.7396 27.2707C32.0401 27.3063 32.3806 27.562 32.6719 27.6652C32.5549 27.7729 32.4701 27.8349 32.3485 27.9518L32.2774 28.0241L26.0063 33.2185L25.0385 34.0074L25.8985 34.9029C25.8985 34.9029 26.7276 35.7996 28.013 36.4085C29.2984 37.0174 31.2833 37.3625 33.0652 36.1218L33.1374 36.0496L35.3585 34.2229L39.5874 39.4185L39.6229 39.4907L39.6585 39.5251C40.4153 40.2739 40.3981 41.4515 39.6585 42.214C39.6493 42.2221 39.6677 42.2404 39.6585 42.2484C39.6493 42.2542 39.498 42.3436 39.4796 42.3574L37.974 40.314L36.1107 41.6762L37.5807 43.6462C36.9845 44.0498 36.7162 44.2608 36.0752 44.6862L34.5352 42.6073L32.6707 43.9696L34.1407 45.9395C34.01 46.0198 33.7417 46.1998 33.6385 46.2629C33.2762 46.4819 32.5767 46.7284 31.9541 46.764C31.3681 46.7961 30.9198 46.6608 30.7008 46.4773L30.6652 46.4418L22.9963 37.9496L22.853 37.7696L20.9885 36.8385V29.4207C23.1786 29.2774 24.9973 28.8428 26.2918 28.3463C27.8238 27.7592 28.9177 27.2753 29.0507 27.2707L30.5918 27.2352H30.593Z" fill="#0288F7"/>
</svg>
