<svg width="71" height="71" viewBox="0 0 71 71" fill="none" xmlns="http://www.w3.org/2000/svg">
<circle opacity="0.1" cx="35.6139" cy="35.1732" r="34.9732" fill="#0288F7"/>
<path d="M39.6304 48.3617H30.4571V35.5191C30.4571 35.2758 30.5538 35.0425 30.7258 34.8704C30.8978 34.6984 31.1312 34.6018 31.3745 34.6018H38.7131C38.9564 34.6018 39.1897 34.6984 39.3617 34.8704C39.5338 35.0425 39.6304 35.2758 39.6304 35.5191V48.3617V48.3617ZM47.8864 48.3617H39.6304V43.928C39.6304 43.6847 39.7271 43.4513 39.8991 43.2793C40.0711 43.1073 40.3045 43.0106 40.5478 43.0106H47.8864C48.1297 43.0106 48.363 43.1073 48.5351 43.2793C48.7071 43.4513 48.8037 43.6847 48.8037 43.928V47.4444C48.8037 47.6877 48.7071 47.921 48.5351 48.093C48.363 48.2651 48.1297 48.3617 47.8864 48.3617V48.3617ZM30.4571 48.3617V40.8702C30.4571 40.6269 30.3605 40.3936 30.1884 40.2215C30.0164 40.0495 29.7831 39.9529 29.5398 39.9529H22.2011C21.9579 39.9529 21.7245 40.0495 21.5525 40.2215C21.3805 40.3936 21.2838 40.6269 21.2838 40.8702V47.4444C21.2838 47.6877 21.3805 47.921 21.5525 48.093C21.7245 48.2651 21.9579 48.3617 22.2011 48.3617H30.4571V48.3617ZM33.2183 24.0723L34.608 21.1262C34.6456 21.0419 34.7067 20.9704 34.784 20.9202C34.8613 20.87 34.9516 20.8433 35.0438 20.8433C35.136 20.8433 35.2262 20.87 35.3035 20.9202C35.3809 20.9704 35.442 21.0419 35.4795 21.1262L36.8708 24.0723L39.9775 24.5478C40.3765 24.609 40.5355 25.1227 40.2466 25.4162L37.9991 27.7095L38.5296 30.9477C38.5969 31.3636 38.181 31.6816 37.8233 31.4844L35.0438 29.9555L32.2643 31.4844C31.908 31.6801 31.4906 31.3636 31.5579 30.9477L32.0884 27.7095L29.841 25.4162C29.5505 25.1227 29.711 24.609 30.1085 24.5478L33.2183 24.0739V24.0723Z" stroke="#0288F7" stroke-width="2.29333" stroke-linecap="round" stroke-linejoin="round"/>
</svg>
