<svg width="24" height="24" viewBox="0 0 24 24" fill="none" xmlns="http://www.w3.org/2000/svg">
<path d="M9.63028 2.74378C9.63028 2.08922 10.1609 1.55859 10.8155 1.55859H13.1858C13.8404 1.55859 14.371 2.08922 14.371 2.74378V3.4179C14.371 3.92492 14.7113 4.36541 15.1796 4.55981C15.6481 4.7543 16.1935 4.68018 16.5521 4.32153L17.0289 3.84471C17.4917 3.38186 18.2422 3.38186 18.705 3.84471L20.3811 5.52081C20.844 5.98366 20.844 6.73407 20.3811 7.19692L19.9044 7.67368C19.5457 8.03235 19.4716 8.57782 19.6661 9.04629C19.8604 9.51459 20.301 9.85489 20.8081 9.85489H21.4821C22.1367 9.85489 22.6673 10.3855 22.6673 11.0401V13.4104C22.6673 14.065 22.1367 14.5956 21.4821 14.5956H20.808C20.301 14.5956 19.8606 14.9359 19.6661 15.4042C19.4716 15.8727 19.5457 16.4181 19.9044 16.7767L20.3811 17.2535C20.844 17.7163 20.844 18.4668 20.3811 18.9296L18.705 20.6057C18.2422 21.0686 17.4917 21.0686 17.0289 20.6057L16.5521 20.129C16.1935 19.7703 15.6481 19.6962 15.1796 19.8907C14.7113 20.0851 14.371 20.5256 14.371 21.0326V21.7067C14.371 22.3613 13.8404 22.8919 13.1858 22.8919H10.8155C10.1609 22.8919 9.63028 22.3613 9.63028 21.7067V21.0327C9.63028 20.5256 9.28998 20.0851 8.82168 19.8907C8.35321 19.6962 7.80774 19.7703 7.44907 20.129L6.97229 20.6057C6.50944 21.0686 5.75903 21.0686 5.29619 20.6057L3.62008 18.9296C3.15724 18.4668 3.15724 17.7163 3.62008 17.2535L4.09692 16.7767C4.45557 16.4181 4.52969 15.8727 4.33521 15.4042C4.1408 14.9359 3.70031 14.5956 3.19329 14.5956H2.51917C1.86462 14.5956 1.33398 14.065 1.33398 13.4104V11.0401C1.33398 10.3855 1.86462 9.85489 2.51917 9.85489H3.19327C3.7003 9.85489 4.1408 9.5146 4.33522 9.04631C4.52972 8.57785 4.4556 8.03242 4.09692 7.67375L3.6201 7.19692C3.15725 6.73407 3.15725 5.98366 3.6201 5.52082L5.2962 3.84471C5.75905 3.38187 6.50946 3.38187 6.97231 3.84471L7.44914 4.32153C7.8078 4.68021 8.35324 4.75433 8.8217 4.55983C9.28999 4.36541 9.63028 3.92491 9.63028 3.41786V2.74378Z" stroke="white" stroke-width="1.33333"/>
<path d="M14.3696 12.2258C14.3696 13.535 13.3084 14.5962 11.9993 14.5962C10.6901 14.5962 9.62891 13.535 9.62891 12.2258C9.62891 10.9167 10.6901 9.85547 11.9993 9.85547C13.3084 9.85547 14.3696 10.9167 14.3696 12.2258Z" stroke="white" stroke-width="1.33333"/>
</svg>
