<svg width="40" height="33" viewBox="0 0 40 33" fill="none" xmlns="http://www.w3.org/2000/svg">
<path d="M39.1171 4.58424C37.705 5.21171 36.1885 5.63523 34.594 5.82359C36.2197 4.84938 37.4686 3.30649 38.0577 1.46846C36.5352 2.36948 34.8507 3.02695 33.0571 3.37848C31.6198 1.84879 29.573 0.892578 27.3067 0.892578C22.9575 0.892578 19.4338 4.41747 19.4338 8.7666C19.4338 9.38327 19.5022 9.98556 19.6366 10.5614C13.0919 10.2327 7.28986 7.09773 3.40504 2.33349C2.72838 3.49726 2.33965 4.84939 2.33965 6.2927C2.33965 9.02575 3.73017 11.4349 5.84175 12.8482C4.55201 12.8062 3.33785 12.4535 2.27607 11.8632C2.27487 11.8956 2.27487 11.9304 2.27487 11.9616C2.27487 15.778 4.98872 18.961 8.5916 19.6844C7.93173 19.8632 7.23587 19.9604 6.51722 19.9604C6.00852 19.9604 5.51662 19.9112 5.03671 19.82C6.03731 22.9466 8.94673 25.2237 12.3912 25.2885C9.69778 27.4001 6.30246 28.661 2.6132 28.661C1.97733 28.661 1.34985 28.6238 0.734375 28.5506C4.21848 30.7822 8.35765 32.0863 12.8052 32.0863C27.2887 32.0863 35.2107 20.0875 35.2107 9.68081C35.2107 9.34008 35.2011 8.99935 35.1867 8.66102C36.726 7.55124 38.0601 6.16552 39.1171 4.58424Z" fill="black"/>
</svg>
