<svg width="71" height="71" viewBox="0 0 71 71" fill="none" xmlns="http://www.w3.org/2000/svg">
<circle opacity="0.1" cx="35.4406" cy="35.837" r="34.9732" fill="#0288F7"/>
<path d="M21.1058 30.6783H48.6258V28.385C48.6258 27.7768 48.3841 27.1934 47.9541 26.7634C47.524 26.3333 46.9407 26.0917 46.3324 26.0917H23.3992C22.7909 26.0917 22.2076 26.3333 21.7775 26.7634C21.3474 27.1934 21.1058 27.7768 21.1058 28.385V30.6783ZM21.1058 32.9716V44.4383C21.1058 45.0465 21.3474 45.6298 21.7775 46.0599C22.2076 46.49 22.7909 46.7316 23.3992 46.7316H46.3324C46.9407 46.7316 47.524 46.49 47.9541 46.0599C48.3841 45.6298 48.6258 45.0465 48.6258 44.4383V32.9716H21.1058ZM23.3992 23.7983H46.3324C47.5489 23.7983 48.7155 24.2816 49.5757 25.1417C50.4358 26.0019 50.9191 27.1685 50.9191 28.385V44.4383C50.9191 45.6547 50.4358 46.8214 49.5757 47.6815C48.7155 48.5417 47.5489 49.0249 46.3324 49.0249H23.3992C22.1827 49.0249 21.0161 48.5417 20.1559 47.6815C19.2957 46.8214 18.8125 45.6547 18.8125 44.4383V28.385C18.8125 27.1685 19.2957 26.0019 20.1559 25.1417C21.0161 24.2816 22.1827 23.7983 23.3992 23.7983Z" fill="#0288F7"/>
<path d="M30.2804 21.5008V23.7942H39.4537V21.5008H30.2804ZM30.2804 19.2075H39.4537C40.0619 19.2075 40.6452 19.4491 41.0753 19.8792C41.5054 20.3093 41.747 20.8926 41.747 21.5008V23.7942C41.747 24.4024 41.5054 24.9857 41.0753 25.4158C40.6452 25.8459 40.0619 26.0875 39.4537 26.0875H30.2804C29.6722 26.0875 29.0888 25.8459 28.6588 25.4158C28.2287 24.9857 27.9871 24.4024 27.9871 23.7942V21.5008C27.9871 20.8926 28.2287 20.3093 28.6588 19.8792C29.0888 19.4491 29.6722 19.2075 30.2804 19.2075Z" fill="#0288F7"/>
</svg>
