<svg width="71" height="21" viewBox="0 0 71 21" fill="none" xmlns="http://www.w3.org/2000/svg">
<path d="M0.6 14.913V13.013C1.14667 13.3463 1.69333 13.513 2.24 13.513C3.33333 13.513 3.88 12.933 3.88 11.773V1.85301H5.94V11.693C5.94 12.933 5.63333 13.853 5.02 14.453C4.42 15.0397 3.60667 15.333 2.58 15.333C1.75333 15.333 1.09333 15.193 0.6 14.913ZM15.0433 9.53301V9.17301C15.0166 8.41301 14.8099 7.81301 14.4233 7.37301C14.0366 6.91967 13.4833 6.69301 12.7633 6.69301C12.0966 6.69301 11.5233 6.93967 11.0433 7.43301C10.5633 7.91301 10.2633 8.61301 10.1433 9.53301H15.0433ZM16.3033 13.033V14.793C15.5566 15.2197 14.5699 15.433 13.3433 15.433C11.7699 15.433 10.5166 14.9597 9.58328 14.013C8.64995 13.0663 8.18328 11.8263 8.18328 10.293C8.18328 8.66634 8.60995 7.39301 9.46328 6.47301C10.3166 5.53967 11.4033 5.07301 12.7233 5.07301C14.0166 5.07301 15.0433 5.47967 15.8033 6.29301C16.5633 7.09301 16.9433 8.25301 16.9433 9.77301C16.9433 10.1863 16.9033 10.6197 16.8233 11.073H10.1633C10.2966 11.953 10.6699 12.6263 11.2833 13.093C11.8966 13.5597 12.6699 13.793 13.6033 13.793C14.6833 13.793 15.5833 13.5397 16.3033 13.033ZM21.4311 15.333L18.2511 5.19301H20.3311L21.2711 8.55301C21.5778 9.61967 21.8378 10.5597 22.0511 11.373C22.2644 12.1863 22.3978 12.733 22.4511 13.013L22.5311 13.433C22.7044 12.593 23.1444 10.9597 23.8511 8.53301L24.8311 5.19301H26.7311L27.7311 8.53301C28.0511 9.63967 28.3244 10.6063 28.5511 11.433C28.7778 12.2463 28.9244 12.7863 28.9911 13.053L29.0711 13.453C29.2311 12.6663 29.6844 11.0263 30.4311 8.53301L31.4311 5.19301H33.4111L30.1911 15.333H27.9511L27.0111 12.013C26.7311 10.9997 26.4844 10.1063 26.2711 9.33301C26.0711 8.54634 25.9378 8.01301 25.8711 7.73301L25.7911 7.33301C25.6044 8.19967 25.1978 9.75967 24.5711 12.013L23.6511 15.333H21.4311ZM41.4691 9.53301V9.17301C41.4424 8.41301 41.2357 7.81301 40.8491 7.37301C40.4624 6.91967 39.9091 6.69301 39.1891 6.69301C38.5224 6.69301 37.9491 6.93967 37.4691 7.43301C36.9891 7.91301 36.6891 8.61301 36.5691 9.53301H41.4691ZM42.7291 13.033V14.793C41.9824 15.2197 40.9957 15.433 39.7691 15.433C38.1957 15.433 36.9424 14.9597 36.0091 14.013C35.0757 13.0663 34.6091 11.8263 34.6091 10.293C34.6091 8.66634 35.0357 7.39301 35.8891 6.47301C36.7424 5.53967 37.8291 5.07301 39.1491 5.07301C40.4424 5.07301 41.4691 5.47967 42.2291 6.29301C42.9891 7.09301 43.3691 8.25301 43.3691 9.77301C43.3691 10.1863 43.3291 10.6197 43.2491 11.073H36.5891C36.7224 11.953 37.0957 12.6263 37.7091 13.093C38.3224 13.5597 39.0957 13.793 40.0291 13.793C41.1091 13.793 42.0091 13.5397 42.7291 13.033ZM45.7569 15.333V1.19301H47.7369V15.333H45.7569ZM50.6592 15.333V5.19301H52.6392V15.333H50.6592ZM50.7592 2.97301C50.5326 2.73301 50.4192 2.43967 50.4192 2.09301C50.4192 1.74634 50.5326 1.45301 50.7592 1.21301C50.9992 0.973007 51.2926 0.853007 51.6392 0.853007C51.9859 0.853007 52.2792 0.973007 52.5192 1.21301C52.7592 1.45301 52.8792 1.74634 52.8792 2.09301C52.8792 2.42634 52.7592 2.71301 52.5192 2.95301C52.2792 3.19301 51.9859 3.31301 51.6392 3.31301C51.2926 3.31301 50.9992 3.19967 50.7592 2.97301ZM60.7016 1.17301V2.89301C60.3949 2.75967 60.0749 2.69301 59.7416 2.69301C58.7682 2.69301 58.2816 3.27301 58.2816 4.43301V5.19301H60.4216V6.71301H58.2816V15.333H56.3216V6.71301H54.7016V5.19301H56.3216V4.41301C56.3216 3.35967 56.6016 2.53301 57.1616 1.93301C57.7349 1.31967 58.5349 1.01301 59.5616 1.01301C59.9349 1.01301 60.3149 1.06634 60.7016 1.17301ZM64.9613 15.113L60.9213 5.19301H63.1013L64.3613 8.49301L65.9413 12.773C66.0613 12.373 66.5413 10.9463 67.3813 8.49301L68.5213 5.19301H70.6013L66.9413 15.053C65.9679 17.653 64.4813 18.953 62.4813 18.953C62.1213 18.953 61.8146 18.9197 61.5613 18.853V17.173C61.7746 17.2263 62.0013 17.253 62.2413 17.253C63.5346 17.253 64.4413 16.5397 64.9613 15.113Z" fill="#202020"/>
</svg>
