<svg width="119" height="107" viewBox="0 0 119 107" fill="none" xmlns="http://www.w3.org/2000/svg">
<path d="M14.3705 71.2192L43.8796 71.2192L43.8796 106.435L14.3705 106.435L14.3705 71.2192Z" fill="#EFF9FF"/>
<path d="M6.14068 71.2192L41.356 71.2192L41.356 106.435L6.14068 106.435L6.14068 71.2192Z" fill="url(#paint0_linear_3648_8712)"/>
<path opacity="0.5" d="M14.3746 71.2192L21.4625 71.2192L21.4625 75.3358L14.3746 75.3358L14.3746 71.2192Z" fill="#DAE6EC"/>
<path d="M37.1266 79.4517L22.262 79.4517L22.262 77.2792L37.1266 77.2792L37.1266 79.4517Z" fill="#EFF9FF"/>
<path d="M6.14224 96.0684L26.4196 96.0684L26.4196 102.773L6.14224 102.773L6.14224 96.0684Z" fill="#EFF9FF"/>
<path opacity="0.5" d="M25.0644 98.9385L16.66 98.9385L16.66 97.3937L25.0644 97.3937L25.0644 98.9385Z" fill="#DAE6EC"/>
<path d="M12.0262 101.629L7.5102 101.629L7.5102 97.1128L12.0262 97.1128L12.0262 101.629Z" fill="url(#paint1_linear_3648_8712)"/>
<path d="M38.5241 36.1704L68.0332 36.1704L68.0332 71.3857L38.5241 71.3857L38.5241 36.1704Z" fill="#EFF9FF"/>
<path d="M30.2945 36.1704L65.5098 36.1704L65.5098 71.3857L30.2945 71.3857L30.2945 36.1704Z" fill="#0288F7"/>
<path opacity="0.5" d="M38.5283 36.1704L45.6162 36.1704L45.6162 40.287L38.5283 40.287L38.5283 36.1704Z" fill="#DAE6EC"/>
<path d="M61.2804 44.4019L46.4158 44.4019L46.4158 42.2294L61.2804 42.2294L61.2804 44.4019Z" fill="#EFF9FF"/>
<path d="M30.2959 61.0234L50.5732 61.0234L50.5732 67.7282L30.2959 67.7282L30.2959 61.0234Z" fill="#EFF9FF"/>
<path opacity="0.5" d="M49.2181 63.8979L40.8137 63.8979L40.8137 62.3532L49.2181 62.3532L49.2181 63.8979Z" fill="#DAE6EC"/>
<path d="M36.1801 66.5795L31.664 66.5795L31.664 62.0635L36.1801 62.0635L36.1801 66.5795Z" fill="url(#paint2_linear_3648_8712)"/>
<path d="M75.9003 36.1704L105.409 36.1704L105.409 71.3857L75.9003 71.3857L75.9003 36.1704Z" fill="#EFF9FF"/>
<path d="M67.6705 36.1704L102.886 36.1704L102.886 71.3857L67.6705 71.3857L67.6705 36.1704Z" fill="#0288F7"/>
<path opacity="0.5" d="M75.9045 36.1704L82.9924 36.1704L82.9924 40.287L75.9045 40.287L75.9045 36.1704Z" fill="#DAE6EC"/>
<path d="M98.6517 44.4019L83.7871 44.4019L83.7871 42.2294L98.6517 42.2294L98.6517 44.4019Z" fill="#EFF9FF"/>
<path d="M67.6719 61.0234L87.9492 61.0234L87.9492 67.7282L67.6719 67.7282L67.6719 61.0234Z" fill="#EFF9FF"/>
<path opacity="0.5" d="M86.5921 63.8979L78.1877 63.8979L78.1877 62.3532L86.5921 62.3532L86.5921 63.8979Z" fill="#DAE6EC"/>
<path d="M73.5559 66.5795L69.0399 66.5795L69.0399 62.0635L73.5559 62.0635L73.5559 66.5795Z" fill="url(#paint3_linear_3648_8712)"/>
<path d="M46.3915 0.947754L75.9006 0.947754L75.9006 36.163L46.3915 36.163L46.3915 0.947754Z" fill="#EFF9FF"/>
<path d="M38.1617 0.947754L73.377 0.947754L73.377 36.163L38.1617 36.163L38.1617 0.947754Z" fill="#0288F7"/>
<path opacity="0.5" d="M46.3958 0.947754L53.4836 0.947754L53.4836 5.06435L46.3958 5.06435L46.3958 0.947754Z" fill="#DAE6EC"/>
<path d="M69.1432 9.17969L54.2786 9.17969L54.2786 7.00727L69.1432 7.00727L69.1432 9.17969Z" fill="#EFF9FF"/>
<path d="M38.1634 25.8003L58.4407 25.8003L58.4407 32.5051L38.1634 32.5051L38.1634 25.8003Z" fill="#EFF9FF"/>
<path opacity="0.5" d="M57.0833 28.6753L48.679 28.6753L48.679 27.1306L57.0833 27.1306L57.0833 28.6753Z" fill="#DAE6EC"/>
<path d="M44.0476 31.3569L39.5316 31.3569L39.5316 26.8408L44.0476 26.8408L44.0476 31.3569Z" fill="url(#paint4_linear_3648_8712)"/>
<path d="M51.4247 71.2192L80.9338 71.2192L80.9338 106.435L51.4247 106.435L51.4247 71.2192Z" fill="#EFF9FF"/>
<path d="M43.19 71.2192L78.4053 71.2192L78.4053 106.435L43.19 106.435L43.19 71.2192Z" fill="#0288F7"/>
<path opacity="0.5" d="M51.4241 71.2192L58.512 71.2192L58.512 75.3358L51.4241 75.3358L51.4241 71.2192Z" fill="#DAE6EC"/>
<path d="M74.1761 79.4517L59.3115 79.4517L59.3115 77.2792L74.1761 77.2792L74.1761 79.4517Z" fill="#EFF9FF"/>
<path d="M43.1966 96.0684L63.4739 96.0684L63.4739 102.773L43.1966 102.773L43.1966 96.0684Z" fill="#EFF9FF"/>
<path opacity="0.5" d="M62.1163 98.9385L53.7119 98.9385L53.7119 97.3937L62.1163 97.3937L62.1163 98.9385Z" fill="#DAE6EC"/>
<path d="M49.0806 101.629L44.5645 101.629L44.5645 97.1128L49.0806 97.1128L49.0806 101.629Z" fill="url(#paint5_linear_3648_8712)"/>
<path d="M88.9518 71.2192L118.461 71.2192L118.461 106.435L88.9518 106.435L88.9518 71.2192Z" fill="#EFF9FF"/>
<path d="M80.7222 71.2192L115.938 71.2192L115.937 106.435L80.7222 106.435L80.7222 71.2192Z" fill="#0288F7"/>
<path opacity="0.5" d="M88.9561 71.2192L96.0439 71.2192L96.0439 75.3358L88.9561 75.3358L88.9561 71.2192Z" fill="#DAE6EC"/>
<path d="M111.708 79.4517L96.8435 79.4517L96.8435 77.2792L111.708 77.2792L111.708 79.4517Z" fill="#EFF9FF"/>
<path d="M80.7239 96.0684L101.001 96.0684L101.001 102.773L80.7239 102.773L80.7239 96.0684Z" fill="#EFF9FF"/>
<path opacity="0.5" d="M99.6461 98.9385L91.2417 98.9385L91.2417 97.3937L99.6461 97.3937L99.6461 98.9385Z" fill="#DAE6EC"/>
<path d="M86.6077 101.629L82.0916 101.629L82.0916 97.1128L86.6077 97.1128L86.6077 101.629Z" fill="url(#paint6_linear_3648_8712)"/>
<path d="M4.32155 15.8818L43.5841 15.8818C45.887 15.8818 47.77 17.7649 47.77 20.0677L47.77 101.25C47.77 104.091 45.4672 106.39 42.6304 106.39L5.27937 106.39C2.45074 106.39 0.135647 104.075 0.135647 101.246L0.135647 20.0677C0.135647 17.7567 2.01054 15.8818 4.32155 15.8818Z" fill="url(#paint7_linear_3648_8712)"/>
<path d="M4.59421 17.7808L43.3066 17.7808C44.8024 17.7808 46.0251 19.0035 46.0251 20.4994L46.0251 101.258C46.0251 102.758 44.8105 103.973 43.3106 103.973L4.59421 103.973C3.10245 103.973 1.87969 102.75 1.87969 101.258L1.87969 20.4953C1.87969 18.9954 3.09837 17.7808 4.59421 17.7808Z" fill="#F9FBFC"/>
<path d="M1.87969 20.2868L1.87969 23.8939L46.0251 23.8939L46.0251 20.2908C46.0251 18.9051 44.8921 17.772 43.5063 17.772L4.39449 17.772C3.00871 17.776 1.87969 18.901 1.87969 20.2868Z" fill="#DAE6EC"/>
<path d="M22.6445 18.6529L27.2706 18.6529C27.4662 18.6529 27.6293 18.8119 27.6293 19.0116C27.6293 19.2072 27.4662 19.3703 27.2706 19.3703L22.6445 19.3703C22.4489 19.3703 22.2858 19.2072 22.2858 19.0116C22.2858 18.8119 22.4489 18.6529 22.6445 18.6529ZM20.6881 18.604C20.9123 18.604 21.0916 18.7874 21.0916 19.0116C21.0916 19.2358 20.9123 19.4192 20.6881 19.4192C20.4639 19.4192 20.2846 19.2358 20.2846 19.0116C20.2805 18.7874 20.4639 18.604 20.6881 18.604Z" fill="#37538C"/>
<path d="M20.0975 39.0137L40.8191 39.0137L40.8191 39.9307L20.0975 39.9307L20.0975 39.0137Z" fill="#DAE6EC"/>
<path d="M28.3592 43.2471L40.8191 43.2471L40.8191 44.1641L28.3592 44.1641L28.3592 43.2471Z" fill="#DAE6EC"/>
<path d="M11.9936 44.5985C10.3324 44.5985 8.98565 43.2517 8.98565 41.5905C8.98565 39.9292 10.3324 38.5825 11.9936 38.5825C13.6549 38.5825 15.0016 39.9292 15.0016 41.5905C15.0016 43.2517 13.6549 44.5985 11.9936 44.5985Z" fill="url(#paint8_linear_3648_8712)"/>
<path d="M8.74051 39.8103C9.27852 39.9815 9.80431 40.2138 10.2934 40.5073C11.1412 41.0249 11.9034 41.6689 12.5677 42.4229C12.6329 42.0724 12.7715 41.726 13.0038 41.4325C13.1669 41.2246 13.3747 41.0535 13.603 40.923C13.7171 40.8578 13.8394 40.8048 13.9617 40.76C13.9943 40.7478 14.0228 40.7396 14.0554 40.7315C14.2103 40.6826 14.3733 40.7926 14.3856 40.9556C14.3978 41.082 14.3122 41.1961 14.1858 41.2287C14.1614 41.2328 14.141 41.2409 14.1206 41.245C14.0228 41.2735 13.925 41.3102 13.8353 41.3551C13.6519 41.4447 13.4848 41.567 13.3503 41.7219C13.0772 42.0276 12.9305 42.4433 12.8938 42.8835L12.8938 42.8876C12.8897 42.9406 12.8612 42.9895 12.8164 43.0221C12.7308 43.0832 12.6166 43.0628 12.5555 42.9772C11.9197 42.0887 11.1127 41.2899 10.1956 40.6581C9.73502 40.3402 9.23777 40.0916 8.71606 39.8918C8.19028 39.6921 7.63596 39.5984 7.0735 39.5576C7.62781 39.5739 8.19843 39.6391 8.74051 39.8103Z" fill="url(#paint9_linear_3648_8712)"/>
<path d="M20.0975 49.5264L40.8191 49.5264L40.8191 50.4434L20.0975 50.4434L20.0975 49.5264Z" fill="#DAE6EC"/>
<path d="M28.3592 53.7603L40.8191 53.7603L40.8191 54.6773L28.3592 54.6773L28.3592 53.7603Z" fill="#DAE6EC"/>
<path d="M11.9936 55.1073C10.3324 55.1073 8.98565 53.7605 8.98565 52.0993C8.98565 50.438 10.3324 49.0913 11.9936 49.0913C13.6549 49.0913 15.0016 50.438 15.0016 52.0993C15.0016 53.7605 13.6549 55.1073 11.9936 55.1073Z" fill="url(#paint10_linear_3648_8712)"/>
<path d="M9.6188 49.574C11.1309 51.3714 12.7124 53.0996 14.359 54.7748C14.4242 54.84 14.522 54.7585 14.465 54.6851C13.0425 52.8102 11.4692 51.0495 9.7207 49.4762C9.64733 49.4028 9.55766 49.5006 9.6188 49.574Z" fill="url(#paint11_linear_3648_8712)"/>
<path d="M14.3518 49.4773C12.6033 51.0506 11.0178 52.8032 9.60753 54.6863C9.55455 54.7596 9.6483 54.8452 9.71351 54.7759C11.3479 53.0885 12.9456 51.3767 14.4578 49.5792C14.5189 49.5018 14.4211 49.4162 14.3518 49.4773Z" fill="url(#paint12_linear_3648_8712)"/>
<path d="M20.0975 70.5425L40.8191 70.5425L40.8191 71.4595L20.0975 71.4595L20.0975 70.5425Z" fill="#DAE6EC"/>
<path d="M28.3592 74.7764L40.8191 74.7764L40.8191 75.6934L28.3592 75.6934L28.3592 74.7764Z" fill="#DAE6EC"/>
<path d="M11.9936 76.1204C10.3324 76.1204 8.98565 74.7737 8.98565 73.1125C8.98565 71.4512 10.3324 70.1045 11.9936 70.1045C13.6549 70.1045 15.0016 71.4512 15.0016 73.1125C15.0016 74.7737 13.6549 76.1204 11.9936 76.1204Z" fill="url(#paint13_linear_3648_8712)"/>
<path d="M9.6188 70.7714C11.1309 72.5689 12.7124 74.297 14.359 75.9722C14.4242 76.0374 14.522 75.9559 14.465 75.8825C13.0425 74.0077 11.4692 72.2469 9.7207 70.6736C9.64733 70.6043 9.55766 70.7021 9.6188 70.7714Z" fill="url(#paint14_linear_3648_8712)"/>
<path d="M14.3521 70.6797C12.6035 72.253 11.018 74.0056 9.60778 75.8887C9.55479 75.962 9.64854 76.0476 9.71375 75.9783C11.3482 74.2909 12.9459 72.5791 14.458 70.7816C14.5192 70.7042 14.4214 70.6145 14.3521 70.6797Z" fill="url(#paint15_linear_3648_8712)"/>
<path d="M20.0975 60.0317L40.8191 60.0317L40.8191 60.9488L20.0975 60.9488L20.0975 60.0317Z" fill="#DAE6EC"/>
<path d="M28.3592 64.2656L40.8191 64.2656L40.8191 65.1827L28.3592 65.1827L28.3592 64.2656Z" fill="#DAE6EC"/>
<path d="M11.9936 65.6195C10.3324 65.6195 8.98565 64.2727 8.98565 62.6115C8.98565 60.9502 10.3324 59.6035 11.9936 59.6035C13.6549 59.6035 15.0016 60.9502 15.0016 62.6115C15.0016 64.2727 13.6549 65.6195 11.9936 65.6195Z" fill="url(#paint16_linear_3648_8712)"/>
<path d="M8.74357 60.7937C9.28158 60.9649 9.80736 61.1972 10.2965 61.4907C11.1442 62.0083 11.9064 62.6523 12.5708 63.4063C12.636 63.0558 12.7746 62.7094 13.0069 62.4159C13.1699 62.208 13.3778 62.0369 13.606 61.9064C13.7202 61.8412 13.8424 61.7882 13.9647 61.7434C13.9973 61.7312 14.0259 61.723 14.0585 61.7149C14.2133 61.666 14.3764 61.776 14.3886 61.939C14.4008 62.0654 14.3152 62.1795 14.1889 62.2121C14.1644 62.2162 14.144 62.2243 14.1237 62.2284C14.0259 62.2569 13.928 62.2936 13.8384 62.3385C13.655 62.4281 13.4878 62.5504 13.3533 62.7053C13.0803 63.011 12.9335 63.4267 12.8969 63.8669L12.8969 63.871C12.8928 63.924 12.8642 63.9729 12.8194 64.0055C12.7338 64.0666 12.6197 64.0462 12.5585 63.9606C11.9227 63.0721 11.1157 62.2732 10.1986 61.6415C9.73807 61.3236 9.24082 61.075 8.71911 60.8752C8.19333 60.6755 7.63901 60.5818 7.07655 60.541C7.63086 60.5614 8.20148 60.6225 8.74357 60.7937Z" fill="url(#paint17_linear_3648_8712)"/>
<path d="M40.7071 30.3948L40.5399 30.3948L40.5399 31.1172L40.7071 31.1172L40.7071 30.3948ZM39.7059 30.3948L39.7059 31.1172L39.8432 31.1172L40.2033 30.6786L40.2033 31.1172L40.3684 31.1172L40.3684 30.3948L40.2302 30.3948L39.871 30.8334L39.871 30.3948L39.7059 30.3948ZM38.8445 30.3948L39.1572 31.1172L39.3223 31.1172L39.634 30.3948L39.4534 30.3948L39.2335 30.9108L39.0106 30.3948L38.8445 30.3948ZM38.2248 30.983L38.2248 31.1172L38.7842 31.1172L38.7842 30.3948L38.2382 30.3948L38.2382 30.5289L38.618 30.5289L38.618 30.6858L38.2826 30.6858L38.2826 30.8158L38.618 30.8158L38.618 30.983L38.2248 30.983ZM37.4292 30.3948L37.4292 31.1172L37.5665 31.1172L37.9267 30.6786L37.9267 31.1172L38.0918 31.1172L38.0918 30.3948L37.9535 30.3948L37.5944 30.8334L37.5944 30.3948L37.4292 30.3948ZM37.1087 30.531L37.3399 30.531L37.3399 30.3948L36.7103 30.3948L36.7103 30.531L36.9415 30.531L36.9415 31.1172L37.1087 31.1172L37.1087 30.531ZM36.2806 31.1296C36.3556 31.1296 36.4234 31.1134 36.4839 31.0811C36.5438 31.0487 36.5909 31.0044 36.6253 30.9479C36.659 30.8908 36.6759 30.8269 36.6759 30.756C36.6759 30.6851 36.659 30.6215 36.6253 30.5651C36.5909 30.508 36.5438 30.4632 36.4839 30.4309C36.4234 30.3986 36.3556 30.3824 36.2806 30.3824C36.2056 30.3824 36.1382 30.3986 36.0783 30.4309C36.0185 30.4632 35.9714 30.508 35.937 30.5651C35.9026 30.6215 35.8854 30.6851 35.8854 30.756C35.8854 30.8269 35.9026 30.8908 35.937 30.9479C35.9714 31.0044 36.0185 31.0487 36.0783 31.0811C36.1382 31.1134 36.2056 31.1296 36.2806 31.1296ZM36.2806 30.9872C36.238 30.9872 36.1994 30.9775 36.165 30.9583C36.1306 30.9383 36.1038 30.9108 36.0845 30.8757C36.0646 30.8406 36.0546 30.8007 36.0546 30.756C36.0546 30.7113 36.0646 30.6714 36.0845 30.6363C36.1038 30.6012 36.1306 30.574 36.165 30.5547C36.1994 30.5348 36.238 30.5248 36.2806 30.5248C36.3233 30.5248 36.3618 30.5348 36.3962 30.5547C36.4306 30.574 36.4578 30.6012 36.4777 30.6363C36.497 30.6714 36.5066 30.7113 36.5066 30.756C36.5066 30.8007 36.497 30.8406 36.4777 30.8757C36.4578 30.9108 36.4306 30.9383 36.3962 30.9583C36.3618 30.9775 36.3233 30.9872 36.2806 30.9872ZM35.2994 31.1172L35.4388 30.9159L35.447 30.9159L35.5925 30.9159L35.5925 31.1172L35.7597 31.1172L35.7597 30.3948L35.447 30.3948C35.383 30.3948 35.3277 30.4055 35.2809 30.4268C35.2334 30.4481 35.1969 30.4784 35.1715 30.5176C35.146 30.5568 35.1333 30.6033 35.1333 30.6569C35.1333 30.7106 35.1464 30.757 35.1725 30.7962C35.198 30.8348 35.2344 30.8643 35.2819 30.885L35.1199 31.1172L35.2994 31.1172ZM35.3025 30.6569C35.3025 30.6163 35.3156 30.5854 35.3418 30.564C35.3679 30.542 35.4061 30.531 35.4563 30.531L35.5925 30.531L35.5925 30.7828L35.4563 30.7828C35.4061 30.7828 35.3679 30.7718 35.3418 30.7498C35.3156 30.7278 35.3025 30.6968 35.3025 30.6569ZM34.6642 30.8613L34.6642 31.1172L34.8313 31.1172L34.8313 30.8592L35.111 30.3948L34.9335 30.3948L34.7405 30.7157L34.5475 30.3948L34.3835 30.3948L34.6642 30.8613ZM33.6755 31.1296C33.7491 31.1296 33.8159 31.1137 33.8757 31.0821C33.9349 31.0498 33.9817 31.0054 34.0161 30.949C34.0498 30.8919 34.0666 30.8275 34.0666 30.756C34.0666 30.6844 34.0498 30.6205 34.0161 30.564C33.9817 30.5069 33.9349 30.4626 33.8757 30.4309C33.8159 30.3986 33.7488 30.3824 33.6745 30.3824C33.6119 30.3824 33.5555 30.3934 33.5052 30.4154C33.4543 30.4374 33.4117 30.4691 33.3773 30.5104L33.4846 30.6094C33.5334 30.553 33.594 30.5248 33.6662 30.5248C33.7109 30.5248 33.7509 30.5348 33.7859 30.5547C33.821 30.574 33.8485 30.6012 33.8685 30.6363C33.8878 30.6714 33.8974 30.7113 33.8974 30.756C33.8974 30.8007 33.8878 30.8406 33.8685 30.8757C33.8485 30.9108 33.821 30.9383 33.7859 30.9583C33.7509 30.9775 33.7109 30.9872 33.6662 30.9872C33.594 30.9872 33.5334 30.9586 33.4846 30.9015L33.3773 31.0006C33.4117 31.0425 33.4543 31.0745 33.5052 31.0965C33.5561 31.1186 33.6129 31.1296 33.6755 31.1296ZM32.9296 31.1296C33.0046 31.1296 33.0724 31.1134 33.1329 31.0811C33.1928 31.0487 33.2399 31.0044 33.2743 30.9479C33.308 30.8908 33.3249 30.8269 33.3249 30.756C33.3249 30.6851 33.308 30.6215 33.2743 30.5651C33.2399 30.508 33.1928 30.4632 33.1329 30.4309C33.0724 30.3986 33.0046 30.3824 32.9296 30.3824C32.8546 30.3824 32.7872 30.3986 32.7274 30.4309C32.6675 30.4632 32.6204 30.508 32.586 30.5651C32.5516 30.6215 32.5344 30.6851 32.5344 30.756C32.5344 30.8269 32.5516 30.8908 32.586 30.9479C32.6204 31.0044 32.6675 31.0487 32.7274 31.0811C32.7872 31.1134 32.8546 31.1296 32.9296 31.1296ZM32.9296 30.9872C32.887 30.9872 32.8485 30.9775 32.8141 30.9583C32.7797 30.9383 32.7528 30.9108 32.7336 30.8757C32.7136 30.8406 32.7036 30.8007 32.7036 30.756C32.7036 30.7113 32.7136 30.6714 32.7336 30.6363C32.7528 30.6012 32.7797 30.574 32.8141 30.5547C32.8485 30.5348 32.887 30.5248 32.9296 30.5248C32.9723 30.5248 33.0108 30.5348 33.0452 30.5547C33.0796 30.574 33.1068 30.6012 33.1268 30.6363C33.146 30.6714 33.1556 30.7113 33.1556 30.756C33.1556 30.8007 33.146 30.8406 33.1268 30.8757C33.1068 30.9108 33.0796 30.9383 33.0452 30.9583C33.0108 30.9775 32.9723 30.9872 32.9296 30.9872ZM31.7462 30.3948L31.7462 31.1172L31.8834 31.1172L32.2436 30.6786L32.2436 31.1172L32.4087 31.1172L32.4087 30.3948L32.2704 30.3948L31.9113 30.8334L31.9113 30.3948L31.7462 30.3948ZM31.4256 30.531L31.6568 30.531L31.6568 30.3948L31.0273 30.3948L31.0273 30.531L31.2585 30.531L31.2585 31.1172L31.4256 31.1172L31.4256 30.531ZM30.4771 31.1172L30.6164 30.9159L30.6246 30.9159L30.7701 30.9159L30.7701 31.1172L30.9373 31.1172L30.9373 30.3948L30.6246 30.3948C30.5607 30.3948 30.5053 30.4055 30.4585 30.4268C30.411 30.4481 30.3745 30.4784 30.3491 30.5176C30.3236 30.5568 30.3109 30.6033 30.3109 30.6569C30.3109 30.7106 30.324 30.757 30.3501 30.7962C30.3756 30.8348 30.412 30.8643 30.4595 30.885L30.2975 31.1172L30.4771 31.1172ZM30.4802 30.6569C30.4802 30.6163 30.4932 30.5854 30.5194 30.564C30.5455 30.542 30.5837 30.531 30.6339 30.531L30.7701 30.531L30.7701 30.7828L30.6339 30.7828C30.5837 30.7828 30.5455 30.7718 30.5194 30.7498C30.4932 30.7278 30.4802 30.6968 30.4802 30.6569ZM29.8286 31.1296C29.9036 31.1296 29.9714 31.1134 30.0319 31.0811C30.0918 31.0487 30.1389 31.0044 30.1733 30.9479C30.207 30.8908 30.2239 30.8269 30.2239 30.756C30.2239 30.6851 30.207 30.6215 30.1733 30.5651C30.1389 30.508 30.0918 30.4632 30.0319 30.4309C29.9714 30.3986 29.9036 30.3824 29.8286 30.3824C29.7536 30.3824 29.6862 30.3986 29.6263 30.4309C29.5665 30.4632 29.5193 30.508 29.4849 30.5651C29.4505 30.6215 29.4333 30.6851 29.4333 30.756C29.4333 30.8269 29.4505 30.8908 29.4849 30.9479C29.5193 31.0044 29.5665 31.0487 29.6263 31.0811C29.6862 31.1134 29.7536 31.1296 29.8286 31.1296ZM29.8286 30.9872C29.7859 30.9872 29.7474 30.9775 29.713 30.9583C29.6786 30.9383 29.6518 30.9108 29.6325 30.8757C29.6126 30.8406 29.6026 30.8007 29.6026 30.756C29.6026 30.7113 29.6126 30.6714 29.6325 30.6363C29.6518 30.6012 29.6786 30.574 29.713 30.5547C29.7474 30.5348 29.7859 30.5248 29.8286 30.5248C29.8713 30.5248 29.9098 30.5348 29.9442 30.5547C29.9786 30.574 30.0058 30.6012 30.0257 30.6363C30.045 30.6714 30.0546 30.7113 30.0546 30.756C30.0546 30.8007 30.045 30.8406 30.0257 30.8757C30.0058 30.9108 29.9786 30.9383 29.9442 30.9583C29.9098 30.9775 29.8713 30.9872 29.8286 30.9872ZM29.3077 30.3948L29.1405 30.3948L29.1405 30.981L28.7783 30.981L28.7783 31.1172L29.3077 31.1172L29.3077 30.3948Z" fill="#4489C8"/>
<path d="M8.20397 98.4494L39.6735 98.4494C39.9833 98.4494 40.2319 98.2008 40.2319 97.891L40.2319 84.241C40.2319 83.9312 39.9833 83.6826 39.6735 83.6826L8.20397 83.6826C7.8942 83.6826 7.64558 83.9312 7.64558 84.241L7.64558 97.891C7.64558 98.1967 7.89828 98.4494 8.20397 98.4494Z" fill="url(#paint18_linear_3648_8712)"/>
<path d="M35.1513 93.2295L37.1484 93.2295L37.1484 96.6328L35.1513 96.6328L35.1513 93.2295Z" fill="url(#paint19_linear_3648_8712)"/>
<path d="M31.0821 89.6206L33.0792 89.6206L33.0792 96.6392L31.0821 96.6392L31.0821 89.6206Z" fill="url(#paint20_linear_3648_8712)"/>
<path d="M27.0116 91.5664L29.0088 91.5664L29.0088 96.6368L27.0116 96.6368L27.0116 91.5664Z" fill="url(#paint21_linear_3648_8712)"/>
<path d="M22.9392 88.6826L24.9364 88.6826L24.9364 96.6468L22.9392 96.6468L22.9392 88.6826Z" fill="url(#paint22_linear_3648_8712)"/>
<path d="M18.8725 86.6348L20.8696 86.6348L20.8696 96.641L18.8725 96.641L18.8725 86.6348Z" fill="url(#paint23_linear_3648_8712)"/>
<path d="M14.8009 87.8174L16.7981 87.8174L16.7981 96.6416L14.8009 96.6416L14.8009 87.8174Z" fill="url(#paint24_linear_3648_8712)"/>
<path d="M10.7305 90.3877L12.7277 90.3877L12.7277 96.64L10.7305 96.64L10.7305 90.3877Z" fill="url(#paint25_linear_3648_8712)"/>
<defs>
<linearGradient id="paint0_linear_3648_8712" x1="23.7471" y1="71.2179" x2="23.7471" y2="106.434" gradientUnits="userSpaceOnUse">
<stop stop-color="#9972FF"/>
<stop offset="1" stop-color="#7F85FF"/>
</linearGradient>
<linearGradient id="paint1_linear_3648_8712" x1="9.76953" y1="97.1109" x2="9.76953" y2="101.627" gradientUnits="userSpaceOnUse">
<stop stop-color="#9972FF"/>
<stop offset="1" stop-color="#7F85FF"/>
</linearGradient>
<linearGradient id="paint2_linear_3648_8712" x1="33.9233" y1="62.064" x2="33.9233" y2="66.5804" gradientUnits="userSpaceOnUse">
<stop stop-color="#9972FF"/>
<stop offset="1" stop-color="#7F85FF"/>
</linearGradient>
<linearGradient id="paint3_linear_3648_8712" x1="71.2985" y1="62.064" x2="71.2985" y2="66.5804" gradientUnits="userSpaceOnUse">
<stop stop-color="#9972FF"/>
<stop offset="1" stop-color="#7F85FF"/>
</linearGradient>
<linearGradient id="paint4_linear_3648_8712" x1="41.7903" y1="26.8409" x2="41.7903" y2="31.3572" gradientUnits="userSpaceOnUse">
<stop stop-color="#9972FF"/>
<stop offset="1" stop-color="#7F85FF"/>
</linearGradient>
<linearGradient id="paint5_linear_3648_8712" x1="46.8226" y1="97.1109" x2="46.8226" y2="101.627" gradientUnits="userSpaceOnUse">
<stop stop-color="#9972FF"/>
<stop offset="1" stop-color="#7F85FF"/>
</linearGradient>
<linearGradient id="paint6_linear_3648_8712" x1="84.351" y1="97.1109" x2="84.351" y2="101.627" gradientUnits="userSpaceOnUse">
<stop stop-color="#9972FF"/>
<stop offset="1" stop-color="#7F85FF"/>
</linearGradient>
<linearGradient id="paint7_linear_3648_8712" x1="47.7702" y1="61.1385" x2="0.136094" y2="61.1385" gradientUnits="userSpaceOnUse">
<stop stop-color="#294698"/>
<stop offset="1" stop-color="#0E4BA6"/>
</linearGradient>
<linearGradient id="paint8_linear_3648_8712" x1="11.9931" y1="38.715" x2="11.9931" y2="86.3924" gradientUnits="userSpaceOnUse">
<stop stop-color="#8AD3FF"/>
<stop offset="1" stop-color="#5F9CFF"/>
</linearGradient>
<linearGradient id="paint9_linear_3648_8712" x1="14.3847" y1="41.3144" x2="7.06718" y2="41.3144" gradientUnits="userSpaceOnUse">
<stop stop-color="#294698"/>
<stop offset="1" stop-color="#0E4BA6"/>
</linearGradient>
<linearGradient id="paint10_linear_3648_8712" x1="15.0004" y1="52.0992" x2="8.98577" y2="52.0992" gradientUnits="userSpaceOnUse">
<stop stop-color="#8AD3FF"/>
<stop offset="1" stop-color="#5F9CFF"/>
</linearGradient>
<linearGradient id="paint11_linear_3648_8712" x1="14.4821" y1="52.1223" x2="9.59789" y2="52.1223" gradientUnits="userSpaceOnUse">
<stop stop-color="#294698"/>
<stop offset="1" stop-color="#0E4BA6"/>
</linearGradient>
<linearGradient id="paint12_linear_3648_8712" x1="14.4775" y1="52.1285" x2="9.59168" y2="52.1285" gradientUnits="userSpaceOnUse">
<stop stop-color="#294698"/>
<stop offset="1" stop-color="#0E4BA6"/>
</linearGradient>
<linearGradient id="paint13_linear_3648_8712" x1="11.9931" y1="29.2707" x2="11.9931" y2="76.9477" gradientUnits="userSpaceOnUse">
<stop stop-color="#8AD3FF"/>
<stop offset="1" stop-color="#5F9CFF"/>
</linearGradient>
<linearGradient id="paint14_linear_3648_8712" x1="14.4821" y1="73.3234" x2="9.59789" y2="73.3234" gradientUnits="userSpaceOnUse">
<stop stop-color="#294698"/>
<stop offset="1" stop-color="#0E4BA6"/>
</linearGradient>
<linearGradient id="paint15_linear_3648_8712" x1="14.4777" y1="73.3305" x2="9.59192" y2="73.3305" gradientUnits="userSpaceOnUse">
<stop stop-color="#294698"/>
<stop offset="1" stop-color="#0E4BA6"/>
</linearGradient>
<linearGradient id="paint16_linear_3648_8712" x1="11.9931" y1="32.4249" x2="11.9931" y2="80.1023" gradientUnits="userSpaceOnUse">
<stop stop-color="#8AD3FF"/>
<stop offset="1" stop-color="#5F9CFF"/>
</linearGradient>
<linearGradient id="paint17_linear_3648_8712" x1="14.3877" y1="62.2993" x2="7.07023" y2="62.2993" gradientUnits="userSpaceOnUse">
<stop stop-color="#294698"/>
<stop offset="1" stop-color="#0E4BA6"/>
</linearGradient>
<linearGradient id="paint18_linear_3648_8712" x1="40.2318" y1="91.0656" x2="7.64635" y2="91.0656" gradientUnits="userSpaceOnUse">
<stop stop-color="#E2F4FF"/>
<stop offset="1" stop-color="#D7ECFF"/>
</linearGradient>
<linearGradient id="paint19_linear_3648_8712" x1="36.1516" y1="92.7615" x2="36.1516" y2="97.4641" gradientUnits="userSpaceOnUse">
<stop stop-color="#9972FF"/>
<stop offset="1" stop-color="#7F85FF"/>
</linearGradient>
<linearGradient id="paint20_linear_3648_8712" x1="32.0797" y1="87.8931" x2="32.0797" y2="96.3949" gradientUnits="userSpaceOnUse">
<stop stop-color="#294698"/>
<stop offset="1" stop-color="#0E4BA6"/>
</linearGradient>
<linearGradient id="paint21_linear_3648_8712" x1="28.0108" y1="91.6258" x2="28.0108" y2="96.7549" gradientUnits="userSpaceOnUse">
<stop stop-color="#9972FF"/>
<stop offset="1" stop-color="#7F85FF"/>
</linearGradient>
<linearGradient id="paint22_linear_3648_8712" x1="23.9399" y1="87.9007" x2="23.9399" y2="96.4024" gradientUnits="userSpaceOnUse">
<stop stop-color="#294698"/>
<stop offset="1" stop-color="#0E4BA6"/>
</linearGradient>
<linearGradient id="paint23_linear_3648_8712" x1="19.8705" y1="86.7696" x2="19.8705" y2="96.6925" gradientUnits="userSpaceOnUse">
<stop stop-color="#9972FF"/>
<stop offset="1" stop-color="#7F85FF"/>
</linearGradient>
<linearGradient id="paint24_linear_3648_8712" x1="15.8004" y1="87.8955" x2="15.8004" y2="96.3972" gradientUnits="userSpaceOnUse">
<stop stop-color="#294698"/>
<stop offset="1" stop-color="#0E4BA6"/>
</linearGradient>
<linearGradient id="paint25_linear_3648_8712" x1="11.7314" y1="90.2547" x2="11.7314" y2="96.2274" gradientUnits="userSpaceOnUse">
<stop stop-color="#9972FF"/>
<stop offset="1" stop-color="#7F85FF"/>
</linearGradient>
</defs>
</svg>
