<svg width="23" height="18" viewBox="0 0 23 18" fill="none" xmlns="http://www.w3.org/2000/svg">
<path d="M22.5197 2.29721C21.7246 2.65048 20.8708 2.88893 19.9731 2.99498C20.8884 2.44649 21.5916 1.57782 21.9232 0.542982C21.066 1.05027 20.1177 1.42043 19.1078 1.61835C18.2986 0.75711 17.1462 0.21875 15.8702 0.21875C13.4216 0.21875 11.4377 2.20331 11.4377 4.65193C11.4377 4.99913 11.4762 5.33822 11.5519 5.66245C7.86713 5.47737 4.6005 3.71234 2.41329 1.03C2.03232 1.68522 1.81346 2.44649 1.81346 3.25909C1.81346 4.79784 2.59634 6.1542 3.78519 6.94992C3.05905 6.92628 2.37546 6.72769 1.77766 6.39535C1.77699 6.41359 1.77699 6.43318 1.77699 6.45074C1.77699 8.59945 3.30493 10.3915 5.3334 10.7988C4.96188 10.8995 4.5701 10.9542 4.16549 10.9542C3.87908 10.9542 3.60214 10.9265 3.33194 10.8751C3.8953 12.6354 5.53334 13.9175 7.47264 13.954C5.95619 15.1428 4.04458 15.8528 1.96747 15.8528C1.60947 15.8528 1.25619 15.8318 0.909668 15.7906C2.87127 17.047 5.20168 17.7813 7.70569 17.7813C15.8601 17.7813 20.3203 11.0258 20.3203 5.16665C20.3203 4.97481 20.3149 4.78298 20.3068 4.59249C21.1734 3.96767 21.9246 3.18749 22.5197 2.29721Z" fill="black"/>
</svg>
