<svg width="36" height="36" viewBox="0 0 36 36" fill="none" xmlns="http://www.w3.org/2000/svg">
<path fill-rule="evenodd" clip-rule="evenodd" d="M35.5901 10.7896C35.5069 8.90214 35.2017 7.60451 34.7644 6.4801C34.3134 5.28656 33.6194 4.21799 32.7102 3.32968C31.8219 2.42755 30.7463 1.72655 29.5666 1.28253C28.4357 0.845292 27.1448 0.540063 25.2573 0.456843C23.3558 0.366576 22.7521 0.345703 17.9291 0.345703C13.1062 0.345703 12.5025 0.366576 10.608 0.449795C8.7205 0.533015 7.42287 0.838515 6.29873 1.27549C5.10492 1.72655 4.03635 2.4205 3.14804 3.32968C2.24591 4.21799 1.54518 5.29361 1.10089 6.47332C0.663651 7.60451 0.358422 8.89509 0.275203 10.7826C0.184935 12.6842 0.164062 13.2878 0.164062 18.1108C0.164062 22.9337 0.184935 23.5374 0.268155 25.4319C0.351374 27.3194 0.656874 28.617 1.09412 29.7415C1.54518 30.935 2.24591 32.0036 3.14804 32.8919C4.03635 33.794 5.11197 34.495 6.29168 34.939C7.42287 35.3763 8.71345 35.6815 10.6012 35.7647C12.4955 35.8482 13.0994 35.8688 17.9224 35.8688C22.7453 35.8688 23.349 35.8482 25.2435 35.7647C27.131 35.6815 28.4286 35.3763 29.5528 34.939C31.9401 34.016 33.8276 32.1285 34.7506 29.7415C35.1876 28.6103 35.4931 27.3194 35.5763 25.4319C35.6595 23.5374 35.6804 22.9337 35.6804 18.1108C35.6804 13.2878 35.6733 12.6842 35.5901 10.7896ZM32.3912 25.2931C32.3147 27.028 32.0233 27.9648 31.7804 28.5894C31.1835 30.1369 29.9553 31.3652 28.4077 31.9621C27.7832 32.205 26.8396 32.4964 25.1115 32.5725C23.2378 32.656 22.6759 32.6766 17.9362 32.6766C13.1965 32.6766 12.6275 32.656 10.7606 32.5725C9.02572 32.4964 8.08889 32.205 7.46434 31.9621C6.69422 31.6775 5.99323 31.2264 5.42424 30.6365C4.83439 30.0605 4.38332 29.3666 4.09869 28.5964C3.85581 27.9719 3.56441 27.028 3.48824 25.3002C3.40475 23.4265 3.38414 22.8643 3.38414 18.1246C3.38414 13.3849 3.40475 12.8159 3.48824 10.9493C3.56441 9.21441 3.85581 8.27758 4.09869 7.65303C4.38332 6.88264 4.83439 6.18192 5.43129 5.61266C6.00705 5.02281 6.701 4.57174 7.47139 4.28738C8.09594 4.0445 9.03982 3.7531 10.7676 3.67665C12.6413 3.59343 13.2035 3.57256 17.943 3.57256C22.6897 3.57256 23.2517 3.59343 25.1185 3.67665C26.8534 3.7531 27.7902 4.0445 28.4148 4.28738C29.1849 4.57174 29.8859 5.02281 30.4549 5.61266C31.0448 6.18869 31.4958 6.88264 31.7804 7.65303C32.0233 8.27758 32.3147 9.22119 32.3912 10.9493C32.4744 12.8229 32.4953 13.3849 32.4953 18.1246C32.4953 22.8643 32.4744 23.4195 32.3912 25.2931ZM17.9301 8.98633C12.8922 8.98633 8.80469 13.0736 8.80469 18.1117C8.80469 23.1499 12.8922 27.2372 17.9301 27.2372C22.9683 27.2372 27.0555 23.1499 27.0555 18.1117C27.0555 13.0736 22.9683 8.98633 17.9301 8.98633ZM17.9301 24.0312C14.6618 24.0312 12.0107 21.3803 12.0107 18.1117C12.0107 14.8431 14.6618 12.1923 17.9301 12.1923C21.1987 12.1923 23.8495 14.8431 23.8495 18.1117C23.8495 21.3803 21.1987 24.0312 17.9301 24.0312ZM27.4159 10.7537C28.5929 10.7537 29.547 9.79964 29.547 8.62296C29.547 7.44601 28.5929 6.49219 27.4159 6.49219C26.2392 6.49219 25.2852 7.44601 25.2852 8.62296C25.2852 9.79964 26.2392 10.7537 27.4159 10.7537Z" fill="black"/>
</svg>
