<svg width="42" height="33" viewBox="0 0 42 33" fill="none" xmlns="http://www.w3.org/2000/svg">
<path d="M40.9076 5.11995C40.3826 3.1683 38.8439 1.62983 36.8925 1.10431C33.3276 0.128906 20.9226 0.128906 20.9226 0.128906C20.9226 0.128906 8.51813 0.128906 4.95322 1.06733C3.03939 1.5923 1.46311 3.16857 0.938148 5.11995C0 8.68458 0 16.0772 0 16.0772C0 16.0772 0 23.507 0.938148 27.0344C1.46367 28.9857 3.00185 30.5242 4.9535 31.0497C8.55566 32.0254 20.9231 32.0254 20.9231 32.0254C20.9231 32.0254 33.3276 32.0254 36.8925 31.087C38.8442 30.5617 40.3826 29.0233 40.9081 27.0719C41.846 23.507 41.846 16.1147 41.846 16.1147C41.846 16.1147 41.8835 8.68458 40.9076 5.11995ZM16.3826 22.9067V9.24763L28.2404 16.0772L16.3826 22.9067Z" fill="black"/>
</svg>
