<svg width="132" height="103" viewBox="0 0 132 103" fill="none" xmlns="http://www.w3.org/2000/svg">
<path d="M123.619 0H8.38107C3.7527 0 0 3.76465 0 8.40808V94.5922C0 99.2354 3.7527 103 8.38107 103H123.619C128.247 103 132 99.2353 132 94.5919V8.40808C132 3.76465 128.248 0 123.619 0ZM123.619 8.40808V69.5586L107.102 54.4932C104.619 52.2293 100.802 52.3197 98.4299 54.7014L81.7138 71.4693L48.7541 31.9719C46.2627 28.987 41.6993 28.9576 39.1705 31.9068L8.38107 67.8056V8.40808H123.619ZM88.0001 30.4796C88.0001 24.0935 93.1581 18.9182 99.5235 18.9182C105.889 18.9182 111.047 24.0935 111.047 30.4796C111.047 36.8656 105.889 42.0406 99.5235 42.0406C93.1583 42.0409 88.0001 36.8656 88.0001 30.4796Z" fill="#0288F7"/>
</svg>
