<svg width="21" height="41" viewBox="0 0 21 41" fill="none" xmlns="http://www.w3.org/2000/svg">
<path d="M17.0925 40.8453C16.6603 40.8468 16.2332 40.7514 15.8427 40.5661C15.4522 40.3809 15.1081 40.1105 14.8358 39.7748L0.861309 22.4152C0.435762 21.8975 0.203125 21.2481 0.203125 20.578C0.203125 19.9078 0.435762 19.2584 0.861309 18.7407L15.3276 1.38114C15.8187 0.790284 16.5244 0.418717 17.2895 0.34818C18.0546 0.277643 18.8163 0.513913 19.4072 1.00501C19.998 1.49611 20.3696 2.20181 20.4401 2.96687C20.5106 3.73192 20.2744 4.49367 19.7833 5.08452L6.85037 20.5924L19.3493 36.1004C19.7031 36.525 19.9278 37.0422 19.9969 37.5906C20.066 38.139 19.9766 38.6957 19.7391 39.1949C19.5017 39.6941 19.1263 40.1148 18.6573 40.4073C18.1882 40.6998 17.6453 40.8518 17.0925 40.8453Z" fill="#192B43"/>
</svg>
