<svg width="21" height="41" viewBox="0 0 21 41" fill="none" xmlns="http://www.w3.org/2000/svg">
<path d="M3.89965 0.334379C4.33188 0.33291 4.75896 0.428304 5.14949 0.613557C5.54002 0.79881 5.88408 1.06921 6.15639 1.40489L20.1309 18.7645C20.5564 19.2822 20.7891 19.9316 20.7891 20.6017C20.7891 21.2719 20.5564 21.9212 20.1309 22.4389L5.66454 39.7986C5.17344 40.3894 4.46774 40.761 3.70269 40.8315C2.93763 40.902 2.17589 40.6658 1.58503 40.1747C0.994181 39.6836 0.622616 38.9779 0.552078 38.2128C0.48154 37.4478 0.717809 36.686 1.20891 36.0952L14.1418 20.5873L1.6429 5.07934C1.2891 4.65465 1.06436 4.13751 0.995268 3.58909C0.926178 3.04067 1.01563 2.48394 1.25304 1.98477C1.49045 1.4856 1.86588 1.06489 2.33491 0.772405C2.80394 0.479925 3.34693 0.327921 3.89965 0.334379Z" fill="#192B43"/>
</svg>
