<svg width="22" height="22" viewBox="0 0 22 22" fill="none" xmlns="http://www.w3.org/2000/svg">
<path d="M13.5225 11.1355L20.9953 3.68005C21.3226 3.3528 21.5064 2.90895 21.5064 2.44616C21.5064 1.98336 21.3226 1.53951 20.9953 1.21227C20.6681 0.885018 20.2243 0.701172 19.7615 0.701172C19.2987 0.701172 18.8548 0.885018 18.5276 1.21227L11.0721 8.68512L3.61661 1.21227C3.28936 0.885018 2.84551 0.701172 2.38272 0.701172C1.91992 0.701172 1.47607 0.885018 1.14883 1.21227C0.821578 1.53951 0.637731 1.98336 0.637731 2.44616C0.637731 2.90895 0.821578 3.3528 1.14883 3.68005L8.62168 11.1355L1.14883 18.591C0.985938 18.7526 0.85665 18.9448 0.768421 19.1565C0.680191 19.3683 0.634766 19.5955 0.634766 19.8249C0.634766 20.0543 0.680191 20.2815 0.768421 20.4932C0.85665 20.705 0.985938 20.8972 1.14883 21.0588C1.31038 21.2217 1.50259 21.351 1.71437 21.4392C1.92615 21.5274 2.1533 21.5728 2.38272 21.5728C2.61214 21.5728 2.83929 21.5274 3.05106 21.4392C3.26284 21.351 3.45505 21.2217 3.61661 21.0588L11.0721 13.5859L18.5276 21.0588C18.6891 21.2217 18.8813 21.351 19.0931 21.4392C19.3049 21.5274 19.532 21.5728 19.7615 21.5728C19.9909 21.5728 20.218 21.5274 20.4298 21.4392C20.6416 21.351 20.8338 21.2217 20.9953 21.0588C21.1582 20.8972 21.2875 20.705 21.3757 20.4932C21.464 20.2815 21.5094 20.0543 21.5094 19.8249C21.5094 19.5955 21.464 19.3683 21.3757 19.1565C21.2875 18.9448 21.1582 18.7526 20.9953 18.591L13.5225 11.1355Z" fill="black"/>
</svg>
