<svg width="22" height="22" viewBox="0 0 22 22" fill="none" xmlns="http://www.w3.org/2000/svg">
<path d="M14.7098 7.28983C14.6169 7.19611 14.5063 7.12171 14.3844 7.07094C14.2626 7.02017 14.1318 6.99404 13.9998 6.99404C13.8678 6.99404 13.7371 7.02017 13.6153 7.07094C13.4934 7.12171 13.3828 7.19611 13.2898 7.28983L10.9998 9.58984L8.70984 7.28983C8.52153 7.10153 8.26614 6.99574 7.99984 6.99574C7.73353 6.99574 7.47814 7.10153 7.28983 7.28983C7.10153 7.47814 6.99574 7.73353 6.99574 7.99984C6.99574 8.26614 7.10153 8.52153 7.28983 8.70984L9.58984 10.9998L7.28983 13.2898C7.19611 13.3828 7.12171 13.4934 7.07094 13.6153C7.02017 13.7371 6.99404 13.8678 6.99404 13.9998C6.99404 14.1318 7.02017 14.2626 7.07094 14.3844C7.12171 14.5063 7.19611 14.6169 7.28983 14.7098C7.3828 14.8036 7.4934 14.878 7.61526 14.9287C7.73712 14.9795 7.86782 15.0056 7.99984 15.0056C8.13185 15.0056 8.26255 14.9795 8.38441 14.9287C8.50627 14.878 8.61687 14.8036 8.70984 14.7098L10.9998 12.4098L13.2898 14.7098C13.3828 14.8036 13.4934 14.878 13.6153 14.9287C13.7371 14.9795 13.8678 15.0056 13.9998 15.0056C14.1318 15.0056 14.2626 14.9795 14.3844 14.9287C14.5063 14.878 14.6169 14.8036 14.7098 14.7098C14.8036 14.6169 14.878 14.5063 14.9287 14.3844C14.9795 14.2626 15.0056 14.1318 15.0056 13.9998C15.0056 13.8678 14.9795 13.7371 14.9287 13.6153C14.878 13.4934 14.8036 13.3828 14.7098 13.2898L12.4098 10.9998L14.7098 8.70984C14.8036 8.61687 14.878 8.50627 14.9287 8.38441C14.9795 8.26255 15.0056 8.13185 15.0056 7.99984C15.0056 7.86782 14.9795 7.73712 14.9287 7.61526C14.878 7.4934 14.8036 7.3828 14.7098 7.28983ZM18.0698 3.92984C17.1474 2.97473 16.0439 2.21291 14.8239 1.68882C13.6038 1.16473 12.2916 0.888869 10.9638 0.877331C9.63605 0.865793 8.31926 1.11881 7.09029 1.62162C5.86133 2.12443 4.74481 2.86696 3.80589 3.80589C2.86696 4.74481 2.12443 5.86133 1.62162 7.09029C1.11881 8.31926 0.865793 9.63605 0.877331 10.9638C0.888869 12.2916 1.16473 13.6038 1.68882 14.8239C2.21291 16.0439 2.97473 17.1474 3.92984 18.0698C4.8523 19.0249 5.95575 19.7868 7.17579 20.3109C8.39583 20.8349 9.70803 21.1108 11.0358 21.1223C12.3636 21.1339 13.6804 20.8809 14.9094 20.3781C16.1383 19.8752 17.2549 19.1327 18.1938 18.1938C19.1327 17.2549 19.8752 16.1383 20.3781 14.9094C20.8809 13.6804 21.1339 12.3636 21.1223 11.0358C21.1108 9.70803 20.8349 8.39583 20.3109 7.17579C19.7868 5.95575 19.0249 4.8523 18.0698 3.92984ZM16.6598 16.6598C15.3519 17.9692 13.6304 18.7847 11.7886 18.9671C9.94688 19.1496 8.09884 18.6879 6.55936 17.6606C5.01987 16.6333 3.88419 15.104 3.34581 13.3333C2.80742 11.5626 2.89964 9.65998 3.60675 7.94962C4.31386 6.23926 5.59211 4.82698 7.22373 3.9534C8.85534 3.07981 10.7394 2.79897 12.5548 3.15871C14.3703 3.51845 16.0049 4.49653 17.1801 5.9263C18.3553 7.35607 18.9984 9.14907 18.9998 10.9998C19.0034 12.0511 18.7984 13.0927 18.3968 14.0642C17.9951 15.0358 17.4047 15.918 16.6598 16.6598Z" fill="#0288F7"/>
</svg>
