<svg width="18" height="19" viewBox="0 0 18 19" fill="none" xmlns="http://www.w3.org/2000/svg">
<path d="M1.33333 9.76693C0.965143 9.76693 0.666667 9.46845 0.666667 9.10026V1.76693C0.666667 1.39874 0.965143 1.10026 1.33333 1.10026H6.66667C7.03486 1.10026 7.33333 1.39874 7.33333 1.76693V9.10026C7.33333 9.46845 7.03486 9.76693 6.66667 9.76693H1.33333ZM1.33333 17.7669C0.965143 17.7669 0.666667 17.4685 0.666667 17.1003V13.7669C0.666667 13.3987 0.965143 13.1003 1.33333 13.1003H6.66667C7.03486 13.1003 7.33333 13.3987 7.33333 13.7669V17.1003C7.33333 17.4685 7.03486 17.7669 6.66667 17.7669H1.33333ZM11.3333 17.7669C10.9651 17.7669 10.6667 17.4685 10.6667 17.1003V9.76693C10.6667 9.39874 10.9651 9.10026 11.3333 9.10026H16.6667C17.0349 9.10026 17.3333 9.39874 17.3333 9.76693V17.1003C17.3333 17.4685 17.0349 17.7669 16.6667 17.7669H11.3333ZM10.6667 1.76693C10.6667 1.39874 10.9651 1.10026 11.3333 1.10026H16.6667C17.0349 1.10026 17.3333 1.39874 17.3333 1.76693V5.10026C17.3333 5.46845 17.0349 5.76693 16.6667 5.76693H11.3333C10.9651 5.76693 10.6667 5.46845 10.6667 5.10026V1.76693Z" stroke="white" stroke-width="1.33333"/>
</svg>
