<svg width="25" height="18" viewBox="0 0 25 18" fill="none" xmlns="http://www.w3.org/2000/svg">
<path d="M23.5474 2.8309C23.2519 1.73209 22.3855 0.865917 21.2869 0.570042C19.2798 0.020874 12.2956 0.020874 12.2956 0.020874C12.2956 0.020874 5.31169 0.020874 3.3046 0.549221C2.22709 0.844783 1.33962 1.73225 1.04406 2.8309C0.515869 4.83784 0.515869 8.99996 0.515869 8.99996C0.515869 8.99996 0.515869 13.1831 1.04406 15.169C1.33993 16.2677 2.20595 17.1338 3.30476 17.4297C5.33283 17.979 12.2959 17.979 12.2959 17.979C12.2959 17.979 19.2798 17.979 21.2869 17.4507C22.3857 17.155 23.2519 16.2888 23.5477 15.1902C24.0758 13.1831 24.0758 9.02109 24.0758 9.02109C24.0758 9.02109 24.0969 4.83784 23.5474 2.8309ZM9.73948 12.8451V5.15484L16.4156 8.99996L9.73948 12.8451Z" fill="black"/>
</svg>
