<svg width="90" height="91" viewBox="0 0 90 91" fill="none" xmlns="http://www.w3.org/2000/svg">
<path d="M90 45.6428C90 20.7149 69.8565 0.5 45.0068 0.5H44.9753C20.1255 0.5 0 20.7149 0 45.6428C2.20917 105.457 87.8043 105.448 90 45.6428Z" fill="#EFF9FF"/>
<g clip-path="url(#clip0)">
<path d="M67.702 62.8366H66.8688V41.1078C68.7502 39.8972 70 37.7861 70 35.3873C70 35.2599 69.9667 35.1346 69.9035 35.0239L64.0917 24.8532C63.6835 24.1391 62.9189 23.6953 62.0964 23.6953H27.9036C27.0811 23.6953 26.3165 24.139 25.9083 24.8532L20.0965 35.0239C20.0333 35.1346 20 35.26 20 35.3873C20 37.7861 21.2498 39.8972 23.1312 41.1078V62.8366H22.298C21.8936 62.8366 21.5656 63.1646 21.5656 63.569C21.5656 63.9735 21.8936 64.3015 22.298 64.3015H67.702C68.1065 64.3015 68.4344 63.9735 68.4344 63.569C68.4344 63.1646 68.1064 62.8366 67.702 62.8366ZM21.5153 36.1197H23.8634C24.2679 36.1197 24.5958 35.7918 24.5958 35.3873C24.5958 34.9828 24.2679 34.6549 23.8634 34.6549H21.9945L27.1802 25.58C27.3282 25.321 27.6054 25.1602 27.9036 25.1602H62.0964C62.3946 25.1602 62.6719 25.321 62.8198 25.58L68.0054 34.6549H66.1361C65.7315 34.6549 65.4037 34.9828 65.4037 35.3873C65.4037 35.7918 65.7315 36.1197 66.1361 36.1197H68.4846C68.1265 38.7158 65.8936 40.7218 63.2006 40.7218C60.5077 40.7218 58.2759 38.7156 57.9177 36.1197H63.0052C63.4098 36.1197 63.7376 35.7918 63.7376 35.3873C63.7376 34.9828 63.4098 34.6549 63.0052 34.6549H26.9952C26.5907 34.6549 26.2628 34.9828 26.2628 35.3873C26.2628 35.7918 26.5907 36.1197 26.9952 36.1197H32.0822C31.724 38.7156 29.4921 40.7218 26.7993 40.7218C24.1063 40.7218 21.8734 38.7158 21.5153 36.1197ZM56.3498 36.1197C55.9916 38.7156 53.7597 40.7218 51.0669 40.7218C48.374 40.7218 46.1422 38.7156 45.784 36.1197H56.3498ZM44.216 36.1197C43.8578 38.7156 41.6259 40.7218 38.9331 40.7218C36.2403 40.7218 34.0084 38.7156 33.6502 36.1197H44.216ZM61.4896 62.8367H53.5606V60.3874H61.4896V62.8367ZM61.4896 58.9226H53.5606V45.5137H61.4896V58.9226ZM65.4039 62.8367H62.9546V44.7812C62.9546 44.3768 62.6268 44.0488 62.2222 44.0488H52.8283C52.4237 44.0488 52.0959 44.3768 52.0959 44.7812V62.8366H24.5961V41.8182C25.2876 42.0558 26.0282 42.1866 26.7993 42.1866C29.4453 42.1866 31.7431 40.6675 32.8662 38.4555C33.9894 40.6674 36.2871 42.1866 38.9331 42.1866C41.5791 42.1866 43.8769 40.6675 45 38.4555C46.1231 40.6674 48.4209 42.1866 51.0669 42.1866C53.7129 42.1866 56.0106 40.6675 57.1338 38.4555C58.2569 40.6674 60.5547 42.1866 63.2007 42.1866C63.9718 42.1866 64.7124 42.0558 65.4039 41.8183V62.8367Z" fill="#0288F7" stroke="#EFF9FF" stroke-width="0.3"/>
<path d="M48.9146 44.0508H27.7783C27.3738 44.0508 27.0459 44.3787 27.0459 44.7832V59.6569C27.0459 60.0614 27.3738 60.3894 27.7783 60.3894H48.9146C49.3192 60.3894 49.6471 60.0614 49.6471 59.6569V44.7832C49.6471 44.3786 49.3192 44.0508 48.9146 44.0508Z" fill="#0288F7"/>
<path d="M47.1813 57.9245H29.5098V46.5156" stroke="#EFF9FF" stroke-linecap="round"/>
</g>
<defs>
<clipPath id="clip0">
<rect width="50" height="50" fill="white" transform="translate(20 19)"/>
</clipPath>
</defs>
</svg>
