<svg width="90" height="91" viewBox="0 0 90 91" fill="none" xmlns="http://www.w3.org/2000/svg">
<path d="M90 45.6428C90 20.7149 69.8565 0.5 45.0068 0.5H44.9753C20.1255 0.5 0 20.7149 0 45.6428C2.20917 105.457 87.8043 105.448 90 45.6428Z" fill="#EFF9FF"/>
<path d="M66.7182 37.1758C66.4219 37.1759 66.1271 37.2174 65.8424 37.2992L51.6439 24.9703C51.5886 24.0875 51.2214 23.253 50.6079 22.6158C49.9944 21.9786 49.1744 21.5801 48.2943 21.4915C47.4142 21.4028 46.5313 21.6297 45.803 22.1317C45.0747 22.6337 44.5484 23.3781 44.3181 24.2322H31.1121C30.7448 23.726 30.2684 23.3088 29.7182 23.0114C29.168 22.714 28.558 22.544 27.9333 22.5141C27.3085 22.4841 26.6851 22.5948 26.1089 22.8381C25.5327 23.0815 25.0186 23.4511 24.6045 23.9198C24.1904 24.3885 23.8868 24.9442 23.7163 25.546C23.5458 26.1477 23.5127 26.7801 23.6194 27.3964C23.726 28.0126 23.9698 28.5971 24.3327 29.1065C24.6956 29.6159 25.1683 30.0372 25.7159 30.3394L23.0881 60.7096C22.5433 61.0164 22.08 61.4493 21.737 61.972C21.394 62.4947 21.1813 63.0921 21.1167 63.7139C21.052 64.3358 21.1374 64.964 21.3656 65.5461C21.5937 66.1282 21.9581 66.6471 22.4281 67.0594C22.8981 67.4717 23.4601 67.7653 24.0669 67.9157C24.6738 68.066 25.3078 68.0688 25.916 67.9236C26.5241 67.7785 27.0886 67.4898 27.5621 67.0816C28.0357 66.6734 28.4045 66.1576 28.6377 65.5775L50.2877 59.9886C50.9935 60.9018 52.0105 61.5234 53.1451 61.735C54.2797 61.9466 55.4525 61.7334 56.44 61.136C57.4275 60.5386 58.1607 59.5988 58.4999 58.4956C58.839 57.3924 58.7605 56.203 58.2792 55.154L66.9764 43.5354C67.796 43.4688 68.5582 43.0877 69.1033 42.472C69.6484 41.8562 69.9342 41.0535 69.9008 40.2318C69.8675 39.4101 69.5177 38.6332 68.9246 38.0636C68.3314 37.494 67.5409 37.1758 66.7186 37.1758H66.7182ZM51.521 26.1827L64.8669 37.7715C64.5232 38.0171 64.2317 38.3286 64.0094 38.6879C63.7871 39.0471 63.6384 39.447 63.572 39.8642L52.6541 39.8859C52.5493 39.2926 52.2623 38.7466 51.833 38.3238C51.4037 37.901 50.8534 37.6224 50.2585 37.5266L49.378 28.6395C49.8971 28.4178 50.3595 28.0817 50.7306 27.6563C51.1016 27.2309 51.3718 26.7272 51.521 26.1827ZM44.1894 25.2283C44.1918 25.7573 44.3068 26.2797 44.5268 26.7608C44.7468 27.2419 45.0668 27.6706 45.4654 28.0183C45.8641 28.3661 46.3322 28.6249 46.8387 28.7776C47.3452 28.9303 47.8785 28.9733 48.4029 28.9039L49.2588 37.5429C48.8355 37.6239 48.4358 37.7988 48.0891 38.0549L31.6763 25.3057C31.6671 25.2799 31.6583 25.2539 31.6487 25.2283H44.1894ZM31.9098 26.7484L47.3973 38.7787C47.1701 39.1184 47.0175 39.5024 46.9496 39.9053C46.8816 40.3083 46.8999 40.7211 47.0032 41.1165L38.2758 43.0936C37.9645 42.5253 37.4621 42.0854 36.8577 41.8518C36.2533 41.6182 35.5857 41.6059 34.9731 41.8171L29.8725 30.2712C30.4842 29.9064 30.9924 29.3912 31.349 28.7746C31.7056 28.1581 31.8986 27.4606 31.9098 26.7484ZM25.0082 60.2041C24.7102 60.2043 24.4131 60.2386 24.1228 60.3064L26.6822 30.7267C27.4324 30.9219 28.2222 30.9046 28.9632 30.6769L34.1026 42.3105C33.7871 42.5744 33.5349 42.9058 33.3647 43.2802C33.1945 43.6547 33.1107 44.0626 33.1194 44.4738C33.1281 44.8851 33.2291 45.2891 33.415 45.656C33.6009 46.0229 33.8668 46.3434 34.1932 46.5937L26.476 60.4908C26.0099 60.3013 25.5114 60.2039 25.0082 60.2041ZM49.2975 57.1097C49.2969 57.7972 49.448 58.4764 49.74 59.0987L28.9044 64.4799C28.9154 64.3604 28.9218 64.2397 28.9218 64.1174C28.9217 63.5076 28.7791 62.9062 28.5051 62.3614C28.2312 61.8166 27.8337 61.3434 27.3443 60.9797L35.0796 47.0494C35.5378 47.1869 36.024 47.2021 36.4899 47.0934C36.9558 46.9848 37.3852 46.7562 37.7353 46.4302L50.3712 54.1215C49.6762 54.9621 49.2964 56.019 49.2975 57.1097ZM51.1086 53.4043L38.3332 45.6283C38.5196 45.2514 38.6165 44.8365 38.6163 44.416C38.616 44.2915 38.6074 44.1671 38.5904 44.0438L47.4516 42.0667C47.7708 42.5155 48.2119 42.8635 48.7226 43.0696C49.2333 43.2757 49.7923 43.3312 50.3336 43.2296L53.5055 52.4316C52.631 52.5242 51.8003 52.8613 51.1086 53.4043ZM57.7226 54.2354C57.3432 53.7439 56.8703 53.3323 56.3311 53.0244C55.7918 52.7166 55.197 52.5185 54.5809 52.4416L51.2667 42.8803C51.6287 42.6675 51.9403 42.3786 52.1798 42.0336C52.4193 41.6886 52.581 41.2957 52.6538 40.8821L63.5717 40.8603C63.6672 41.4551 63.929 42.0107 64.3268 42.4631C64.7246 42.9155 65.2422 43.2461 65.8199 43.4169L57.7226 54.2354Z" fill="#0288F7"/>
<path d="M28.0596 38.1968C27.9944 38.1917 27.9288 38.1995 27.8666 38.2198C27.8044 38.24 27.7468 38.2724 27.6971 38.315C27.6475 38.3575 27.6067 38.4095 27.5771 38.4678C27.5476 38.5262 27.5298 38.5898 27.5249 38.655L27.4751 39.3069C27.465 39.4385 27.5076 39.5688 27.5935 39.6691C27.6794 39.7694 27.8016 39.8314 27.9333 39.8416C27.9463 39.8426 27.9592 39.8431 27.972 39.8431C28.0974 39.843 28.2182 39.7955 28.3101 39.7103C28.4021 39.625 28.4585 39.5082 28.4681 39.3832L28.5179 38.7313C28.528 38.5997 28.4853 38.4695 28.3994 38.3692C28.3135 38.269 28.1912 38.207 28.0596 38.1968Z" fill="#0288F7"/>
<path d="M27.8397 41.233C27.7746 41.2264 27.7089 41.2326 27.6462 41.2514C27.5835 41.2702 27.5252 41.3011 27.4745 41.3424C27.4238 41.3837 27.3817 41.4346 27.3507 41.4922C27.3196 41.5498 27.3003 41.6129 27.2936 41.678L26.4855 49.6043C26.4788 49.6694 26.4851 49.7351 26.5038 49.7978C26.5226 49.8605 26.5535 49.9188 26.5949 49.9695C26.6362 50.0202 26.6871 50.0623 26.7447 50.0933C26.8022 50.1244 26.8654 50.1437 26.9304 50.1504C26.9477 50.1521 26.9647 50.153 26.9815 50.153C27.1048 50.1528 27.2236 50.107 27.3151 50.0243C27.4065 49.9417 27.464 49.828 27.4765 49.7054L28.2845 41.779C28.2979 41.6476 28.2586 41.5163 28.1752 41.4139C28.0917 41.3115 27.9711 41.2465 27.8397 41.233Z" fill="#0288F7"/>
</svg>
