<svg width="90" height="91" viewBox="0 0 90 91" fill="none" xmlns="http://www.w3.org/2000/svg">
<path d="M90 45.6428C90 20.7149 69.8565 0.5 45.0068 0.5H44.9753C20.1255 0.5 0 20.7149 0 45.6428C2.20917 105.457 87.8043 105.448 90 45.6428Z" fill="#EFF9FF"/>
<path d="M32.6509 33.6734H38.5101C39.8044 33.6254 39.8034 31.7678 38.5101 31.7203H33.6274V23.9079C33.5794 22.6136 31.7219 22.6145 31.6743 23.9079V32.6968C31.6743 33.2361 32.1115 33.6734 32.6509 33.6734Z" fill="#0288F7" stroke="#EFF9FF" stroke-width="0.5"/>
<path d="M68.9795 68.0451H66.9871V42.9063C66.9871 42.3669 66.5498 41.9297 66.0105 41.9297H61.1277C60.5885 41.9297 60.1512 42.3669 60.1512 42.9063V68.0451H57.2216V49.7422C57.2216 49.2028 56.7843 48.7656 56.245 48.7656H51.3622C50.8229 48.7656 50.3856 49.2028 50.3856 49.7422V68.0452H47.456V55.4063C47.456 54.8669 47.0187 54.4297 46.4794 54.4297H41.5966C41.0573 54.4297 40.62 54.8669 40.62 55.4063V68.0452H37.6904V60.7454C37.6904 60.2061 37.2531 59.7689 36.7139 59.7689H31.8311C31.2918 59.7689 30.8545 60.2061 30.8545 60.7454V68.0452H27.9248V57.8664C27.8768 56.5721 26.0192 56.573 25.9717 57.8664V69.0218C25.9717 69.5611 26.409 69.9983 26.9482 69.9983H68.9795C70.2737 69.9502 70.2728 68.0928 68.9795 68.0451ZM62.1042 43.8828H65.0339V68.0451H62.1042V43.8828ZM42.573 56.3828H45.5027V68.0452H42.573V56.3828Z" fill="#0288F7" stroke="#EFF9FF" stroke-width="0.5"/>
<path d="M25.9728 49.0792C26.0209 50.3735 27.8784 50.3726 27.926 49.0792V44.4783C36.0403 47.8886 45.4867 41.5302 45.3476 32.6952C45.3478 25.6951 39.6527 20 32.6525 20C19.8607 20.0719 15.2541 36.8435 25.9728 43.4876V49.0792ZM23.8794 38.888L24.2605 38.668C24.7276 38.3983 24.8878 37.8011 24.6181 37.334C24.3485 36.8669 23.7513 36.7066 23.2842 36.9765L22.9001 37.1981C22.395 36.1086 22.0673 34.9207 21.9542 33.6719H22.3985C23.6929 33.6238 23.6919 31.7663 22.3985 31.7188H21.9542C22.0673 30.4699 22.395 29.282 22.9001 28.1925L23.2841 28.4142C23.7429 28.6813 24.347 28.528 24.6181 28.0566C24.8878 27.5896 24.7277 26.9923 24.2606 26.7227L23.8795 26.5025C24.5869 25.5033 25.4605 24.6297 26.4598 23.9223L26.6799 24.3034C26.9512 24.7748 27.5551 24.928 28.014 24.6608C28.4809 24.3911 28.641 23.7938 28.3713 23.3268L28.1497 22.943C30.8551 21.6342 34.45 21.6342 37.1554 22.943L36.9337 23.3269C36.664 23.7939 36.824 24.3912 37.2911 24.6608C37.7499 24.9281 38.354 24.7747 38.6251 24.3034L38.8452 23.9223C39.8444 24.6297 40.7181 25.5033 41.4255 26.5025L41.0442 26.7227C40.5771 26.9923 40.4171 27.5896 40.6868 28.0566C40.958 28.528 41.562 28.6813 42.0208 28.4141L42.4047 28.1924C42.9098 29.2819 43.2375 30.4698 43.3506 31.7187H42.9061C41.6118 31.7667 41.6128 33.6242 42.9061 33.6718H43.3506C43.2375 34.9207 42.9098 36.1085 42.4047 37.1981L42.0207 36.9765C41.5535 36.7066 40.9563 36.8668 40.6867 37.3339C40.417 37.801 40.577 38.3982 41.0441 38.6679L41.4254 38.888C40.718 39.8872 39.8443 40.7608 38.845 41.4683L38.6249 41.087C38.3554 40.62 37.7583 40.4599 37.2909 40.7295C36.8238 40.9991 36.6638 41.5964 36.9335 42.0635L37.1552 42.4475C36.0656 42.9525 34.8777 43.2803 33.6288 43.3934V42.949C33.5808 41.6547 31.7232 41.6557 31.6757 42.949V43.3934C30.4268 43.2803 29.2391 42.9525 28.1494 42.4475L28.3711 42.0636C28.6408 41.5965 28.4808 40.9992 28.0137 40.7295C27.5467 40.4598 26.9494 40.6198 26.6797 41.0869L26.4596 41.4682C25.4604 40.7608 24.5868 39.8872 23.8794 38.888Z" fill="#0288F7" stroke="#EFF9FF" stroke-width="0.5"/>
<path d="M50.2204 42.9887L50.611 43.0934L40.8127 48.7505C40.3456 49.0202 40.1855 49.6174 40.4552 50.0845C40.7264 50.5559 41.3304 50.7092 41.7892 50.4419L51.5877 44.7848L51.483 45.1755C51.1909 46.4312 52.9883 46.9216 53.3695 45.6811L54.0845 43.013C54.2303 42.5089 53.9034 41.9427 53.3939 41.8169L50.726 41.1021C49.4652 40.8106 48.9839 42.6116 50.2204 42.9887Z" fill="#0288F7" stroke="#EFF9FF" stroke-width="0.5"/>
<path d="M26.9521 52.4961H26.9513C26.412 52.4961 25.9751 52.9333 25.9751 53.4727C26.0231 54.7664 27.8809 54.7665 27.9286 53.4727C27.9286 52.9333 27.4914 52.4961 26.9521 52.4961Z" fill="#0288F7" stroke="#EFF9FF" stroke-width="0.5"/>
</svg>
