<svg width="90" height="91" viewBox="0 0 90 91" fill="none" xmlns="http://www.w3.org/2000/svg">
<path d="M90 45.6428C90 20.7149 69.8565 0.5 45.0068 0.5H44.9753C20.1255 0.5 0 20.7149 0 45.6428C2.20917 105.457 87.8043 105.448 90 45.6428Z" fill="#EFF9FF"/>
<path d="M33.7124 60.9435C34.0545 60.2852 34.248 59.5377 34.248 58.7459V56.8528C34.0069 50.5154 24.9223 50.5202 24.6834 56.8528V58.7459C24.6834 59.5377 24.877 60.2851 25.219 60.9435C23.1282 62.3564 21.8438 64.7456 21.8438 67.265V69.0041C21.8438 69.5541 22.2897 70.0002 22.8398 70.0002H36.0917C36.6418 70.0002 37.0878 69.5541 37.0878 69.0041V67.265C37.0877 64.7456 35.8032 62.3564 33.7124 60.9435ZM26.6755 56.8528C26.8162 53.1553 32.1164 53.1582 32.2557 56.8528V58.7459C32.1151 62.4432 26.8149 62.4404 26.6755 58.7459V56.8528ZM35.0955 68.0079H23.8358V67.2649C23.8358 65.3415 24.8524 63.5195 26.4939 62.4901C28.1226 63.8598 30.8089 63.8596 32.4374 62.4901C34.079 63.5195 35.0955 65.3414 35.0955 67.2648V68.0079Z" fill="#0288F7" stroke="#EFF9FF" stroke-width="0.5"/>
<path d="M29.4668 19C24.7982 19 21 22.7982 21 27.4667C21.4256 38.6838 37.5097 38.6807 37.9336 27.4666C37.9336 22.7982 34.1354 19 29.4668 19Z" fill="#0288F7" stroke="#EFF9FF" stroke-width="0.5"/>
<path d="M31.8729 24.6862L28.4268 28.1323L27.056 26.7614C26.667 26.3726 26.0363 26.3726 25.6472 26.7614C25.2582 27.1504 25.2582 27.7812 25.6472 28.1702L27.7224 30.2454C28.1114 30.6344 28.7421 30.6344 29.1311 30.2454L33.2816 26.095C33.6705 25.706 33.6705 25.0753 33.2816 24.6862C32.8926 24.2973 32.2619 24.2973 31.8729 24.6862Z" fill="#EFF9FF" stroke="#EFF9FF" stroke-width="0.5"/>
<path d="M71.0018 19C70.4516 19 70.0057 19.446 70.0057 19.9961V32.9454H67.0173V23.9806C67.0173 23.4305 66.5714 22.9845 66.0212 22.9845H56.0603C55.5101 22.9845 55.0642 23.4305 55.0642 23.9806V32.9454H52.0757V23.9806C52.0757 23.4305 51.6298 22.9845 51.0796 22.9845H41.1187C40.5686 22.9845 40.1226 23.4305 40.1226 23.9806V32.9454H39.1265C37.8063 32.9944 37.8073 34.8891 39.1265 34.9376H70.0058V48.4843H67.0173V39.5195C67.0173 38.9694 66.5714 38.5234 66.0212 38.5234H56.0603C55.5101 38.5234 55.0642 38.9694 55.0642 39.5195V48.4843H52.0757V39.5195C52.0757 38.9694 51.6298 38.5234 51.0796 38.5234H50.582C49.5613 38.5294 49.2147 39.8783 50.0835 40.382V48.4843H42.1148V40.3826C42.985 39.8791 42.6378 38.5293 41.6171 38.5234H41.1187C40.5686 38.5234 40.1226 38.9694 40.1226 39.5195V48.4843H39.1265C37.8063 48.5333 37.8073 50.428 39.1265 50.4765H70.0058V64.0233H67.0173V55.0585C67.0173 54.5085 66.5714 54.0624 66.0212 54.0624H56.0603C55.5101 54.0624 55.0642 54.5085 55.0642 55.0585V64.0233H52.0757V55.0585C52.0757 54.5085 51.6298 54.0624 51.0796 54.0624H41.1187C40.5686 54.0624 40.1226 54.5085 40.1226 55.0585V64.0233H39.1265C37.8063 64.0724 37.8073 65.967 39.1265 66.0155H70.0058V69.0039C70.0548 70.3241 71.9495 70.3231 71.998 69.0039V19.9961C71.9979 19.446 71.5519 19 71.0018 19ZM57.0564 32.9454V24.9767H65.0251V32.9454H57.0564ZM57.0564 64.0233V56.0546H65.0251V64.0233H57.0564Z" fill="#0288F7"/>
<path d="M42.1148 24.9767V32.9454H50.0835M57.0564 40.5156V48.4843H65.0251M42.1148 56.0546V64.0233H50.0835M71.0018 19C70.4516 19 70.0057 19.446 70.0057 19.9961V32.9454H67.0173V23.9806C67.0173 23.4305 66.5714 22.9845 66.0212 22.9845H56.0603C55.5101 22.9845 55.0642 23.4305 55.0642 23.9806V32.9454H52.0757V23.9806C52.0757 23.4305 51.6298 22.9845 51.0796 22.9845H41.1187C40.5686 22.9845 40.1226 23.4305 40.1226 23.9806V32.9454H39.1265C37.8063 32.9944 37.8073 34.8891 39.1265 34.9376H70.0058V48.4843H67.0173V39.5195C67.0173 38.9694 66.5714 38.5234 66.0212 38.5234H56.0603C55.5101 38.5234 55.0642 38.9694 55.0642 39.5195V48.4843H52.0757V39.5195C52.0757 38.9694 51.6298 38.5234 51.0796 38.5234H50.582C49.5613 38.5294 49.2147 39.8783 50.0835 40.382V48.4843H42.1148V40.3826C42.985 39.8791 42.6378 38.5293 41.6171 38.5234H41.1187C40.5686 38.5234 40.1226 38.9694 40.1226 39.5195V48.4843H39.1265C37.8063 48.5333 37.8073 50.428 39.1265 50.4765H70.0058V64.0233H67.0173V55.0585C67.0173 54.5085 66.5714 54.0624 66.0212 54.0624H56.0603C55.5101 54.0624 55.0642 54.5085 55.0642 55.0585V64.0233H52.0757V55.0585C52.0757 54.5085 51.6298 54.0624 51.0796 54.0624H41.1187C40.5686 54.0624 40.1226 54.5085 40.1226 55.0585V64.0233H39.1265C37.8063 64.0724 37.8073 65.967 39.1265 66.0155H70.0058V69.0039C70.0548 70.3241 71.9495 70.3231 71.998 69.0039V19.9961C71.9979 19.446 71.5519 19 71.0018 19ZM57.0564 32.9454V24.9767H65.0251V32.9454H57.0564ZM57.0564 64.0233V56.0546H65.0251V64.0233H57.0564Z" stroke="#EFF9FF" stroke-width="0.5"/>
<path d="M47.098 39.5195C47.098 38.9695 46.652 38.5234 46.1019 38.5234H46.1012C45.551 38.5234 45.1055 38.9695 45.1055 39.5195C45.1544 40.8394 47.0494 40.8392 47.098 39.5195Z" fill="#0288F7" stroke="#EFF9FF" stroke-width="0.5"/>
</svg>
