<svg width="90" height="91" viewBox="0 0 90 91" fill="none" xmlns="http://www.w3.org/2000/svg">
<path d="M90 45.6428C90 20.7149 69.8565 0.5 45.0068 0.5H44.9753C20.1255 0.5 0 20.7149 0 45.6428C2.20917 105.457 87.8043 105.448 90 45.6428Z" fill="#EFF9FF"/>
<path d="M68.2881 22.4141H21.7119C20.768 22.4141 20 23.182 20 24.126V55.7352C20 56.6791 20.768 57.4471 21.7119 57.4471H31.3386L31.5361 58.3664C31.7463 59.345 32.5413 60.089 33.5029 60.2606C33.1076 60.9698 32.8813 61.7856 32.8813 62.6536C32.8813 65.3728 35.0936 67.585 37.8127 67.585C40.5318 67.585 42.744 65.3728 42.744 62.6536C42.744 61.8012 42.5265 60.9986 42.1441 60.2983H46.2396C45.8573 60.9986 45.6397 61.8012 45.6397 62.6536C45.6397 65.3728 47.852 67.585 50.5711 67.585C53.2902 67.585 55.5024 65.3728 55.5024 62.6536C55.5024 61.7954 55.2816 60.988 54.8945 60.2844C55.9345 60.1773 56.8157 59.4044 57.0388 58.3663L62.3673 33.5659H68.5325V55.7352C68.5325 55.87 68.4229 55.9797 68.288 55.9797H60.2939C59.8887 55.9797 59.5603 56.3081 59.5603 56.7134C59.5603 57.1187 59.8887 57.4471 60.2939 57.4471H68.288C69.2319 57.4471 69.9999 56.6791 69.9999 55.7352V24.126C70 23.182 69.232 22.4141 68.2881 22.4141ZM66.4461 32.0985C66.9381 31.6509 67.2473 31.0058 67.2473 30.2898C67.2473 28.9413 66.1502 27.8442 64.8017 27.8442H62.4937C60.2341 27.8442 58.2495 29.4478 57.7747 31.6569L57.6799 32.0984H50.7517C50.3464 32.0984 50.018 32.4269 50.018 32.8321C50.018 33.2374 50.3464 33.5658 50.7517 33.5658H57.3647L56.6201 37.0317H29.979C29.2366 37.0317 28.5433 37.363 28.0767 37.9404C27.6102 38.5178 27.432 39.2652 27.588 39.9911L29.397 48.4107C29.4821 48.807 29.8721 49.0585 30.2684 48.974C30.6645 48.8889 30.9166 48.4987 30.8315 48.1026L29.0226 39.683C28.9603 39.3926 29.0314 39.0936 29.2181 38.8626C29.4047 38.6317 29.682 38.4992 29.979 38.4992H57.2129C57.5587 38.4992 57.8575 38.2577 57.9303 37.9196L59.2096 31.9652C59.5399 30.4276 60.9212 29.3117 62.4938 29.3117H64.8019C65.3412 29.3117 65.7801 29.7506 65.7801 30.2899C65.7801 30.8293 65.3412 31.2682 64.8019 31.2682H62.4938C61.8372 31.2682 61.2603 31.7342 61.1223 32.3764L55.6043 58.0583C55.5081 58.5061 55.106 58.8311 54.6479 58.8311H53.6824C52.8331 58.1386 51.75 57.7224 50.5713 57.7224C49.3926 57.7224 48.3095 58.1386 47.4602 58.8311H40.924C40.0747 58.1386 38.9916 57.7224 37.8129 57.7224C36.6342 57.7224 35.5511 58.1386 34.7018 58.8311H33.9273C33.4693 58.8311 33.0671 58.5061 32.9709 58.0583L31.4651 51.0504C31.3801 50.6541 30.9903 50.4029 30.5938 50.4871C30.1976 50.5723 29.9455 50.9624 30.0306 51.3585L31.0235 55.9798H21.7119C21.5771 55.9798 21.4674 55.8701 21.4674 55.7353V33.5659H47.3581C47.7634 33.5659 48.0918 33.2375 48.0918 32.8322C48.0918 32.427 47.7634 32.0985 47.3581 32.0985H21.4674V24.1259C21.4674 23.991 21.5771 23.8813 21.7119 23.8813H68.2881C68.423 23.8813 68.5326 23.991 68.5326 24.1259V32.0985H66.4461Z" fill="#0288F7"/>
<path d="M37.8127 66.1176C35.9026 66.1176 34.3486 64.5636 34.3486 62.6535M50.5712 66.1176C48.6611 66.1176 47.1071 64.5636 47.1071 62.6535M68.2881 22.4141H21.7119C20.768 22.4141 20 23.182 20 24.126V55.7352C20 56.6791 20.768 57.4471 21.7119 57.4471H31.3386L31.5361 58.3664C31.7463 59.345 32.5413 60.089 33.5029 60.2606C33.1076 60.9698 32.8813 61.7856 32.8813 62.6536C32.8813 65.3728 35.0936 67.585 37.8127 67.585C40.5318 67.585 42.744 65.3728 42.744 62.6536C42.744 61.8012 42.5265 60.9986 42.1441 60.2983H46.2396C45.8573 60.9986 45.6397 61.8012 45.6397 62.6536C45.6397 65.3728 47.852 67.585 50.5711 67.585C53.2902 67.585 55.5024 65.3728 55.5024 62.6536C55.5024 61.7954 55.2816 60.988 54.8945 60.2844C55.9345 60.1773 56.8157 59.4044 57.0388 58.3663L62.3673 33.5659H68.5325V55.7352C68.5325 55.87 68.4229 55.9797 68.288 55.9797H60.2939C59.8887 55.9797 59.5603 56.3081 59.5603 56.7134C59.5603 57.1187 59.8887 57.4471 60.2939 57.4471H68.288C69.2319 57.4471 69.9999 56.6791 69.9999 55.7352V24.126C70 23.182 69.232 22.4141 68.2881 22.4141ZM66.4461 32.0985C66.9381 31.6509 67.2473 31.0058 67.2473 30.2898C67.2473 28.9413 66.1502 27.8442 64.8017 27.8442H62.4937C60.2341 27.8442 58.2495 29.4478 57.7747 31.6569L57.6799 32.0984H50.7517C50.3464 32.0984 50.018 32.4269 50.018 32.8321C50.018 33.2374 50.3464 33.5658 50.7517 33.5658H57.3647L56.6201 37.0317H29.979C29.2366 37.0317 28.5433 37.363 28.0767 37.9404C27.6102 38.5178 27.432 39.2652 27.588 39.9911L29.397 48.4107C29.4821 48.807 29.8721 49.0585 30.2684 48.974C30.6645 48.8889 30.9166 48.4987 30.8315 48.1026L29.0226 39.683C28.9603 39.3926 29.0314 39.0936 29.2181 38.8626C29.4047 38.6317 29.682 38.4992 29.979 38.4992H57.2129C57.5587 38.4992 57.8575 38.2577 57.9303 37.9196L59.2096 31.9652C59.5399 30.4276 60.9212 29.3117 62.4938 29.3117H64.8019C65.3412 29.3117 65.7801 29.7506 65.7801 30.2899C65.7801 30.8293 65.3412 31.2682 64.8019 31.2682H62.4938C61.8372 31.2682 61.2604 31.7342 61.1223 32.3764L55.6043 58.0583C55.5081 58.5061 55.106 58.8311 54.6479 58.8311H53.6824C52.8331 58.1386 51.75 57.7224 50.5713 57.7224C49.3926 57.7224 48.3095 58.1386 47.4602 58.8311H40.924C40.0747 58.1386 38.9916 57.7224 37.8129 57.7224C36.6342 57.7224 35.5511 58.1386 34.7018 58.8311H33.9273C33.4693 58.8311 33.0671 58.5061 32.9709 58.0583L31.4651 51.0504C31.3801 50.6541 30.9903 50.4029 30.5938 50.4871C30.1976 50.5723 29.9455 50.9624 30.0306 51.3585L31.0235 55.9798H21.7119C21.5771 55.9798 21.4674 55.8701 21.4674 55.7353V33.5659H47.3581C47.7634 33.5659 48.0918 33.2375 48.0918 32.8322C48.0918 32.427 47.7634 32.0985 47.3581 32.0985H21.4674V24.1259C21.4674 23.991 21.5771 23.8813 21.7119 23.8813H68.2881C68.4229 23.8813 68.5326 23.991 68.5326 24.1259V32.0985H66.4461Z" stroke="#EFF9FF" stroke-width="0.3"/>
<path d="M25.4224 29.3926C26.2125 29.3926 26.853 28.752 26.853 27.9619C26.853 27.1718 26.2125 26.5312 25.4224 26.5312C24.6322 26.5312 23.9917 27.1718 23.9917 27.9619C23.9917 28.752 24.6322 29.3926 25.4224 29.3926Z" fill="#0288F7" stroke="#EFF9FF" stroke-width="0.3"/>
<path d="M29.7744 29.3926C30.5645 29.3926 31.2051 28.752 31.2051 27.9619C31.2051 27.1718 30.5645 26.5312 29.7744 26.5312C28.9843 26.5312 28.3438 27.1718 28.3438 27.9619C28.3438 28.752 28.9843 29.3926 29.7744 29.3926Z" fill="#0288F7" stroke="#EFF9FF" stroke-width="0.3"/>
<path d="M34.126 29.3926C34.9161 29.3926 35.5566 28.752 35.5566 27.9619C35.5566 27.1718 34.9161 26.5312 34.126 26.5312C33.3358 26.5312 32.6953 27.1718 32.6953 27.9619C32.6953 28.752 33.3358 29.3926 34.126 29.3926Z" fill="#0288F7" stroke="#EFF9FF" stroke-width="0.3"/>
<path d="M46.349 52.707H42.0339C41.8289 52.707 41.6332 52.7928 41.4943 52.9437C41.3554 53.0945 41.2859 53.2966 41.3028 53.5009L41.5252 56.2022C41.5566 56.5827 41.8746 56.8757 42.2564 56.8757H46.1266C46.5085 56.8757 46.8265 56.5828 46.8578 56.2022L47.0801 53.5009C47.0969 53.2966 47.0275 53.0945 46.8886 52.9437C46.7497 52.7929 46.554 52.707 46.349 52.707ZM45.4507 55.4083H42.9321L42.8305 54.1744H45.5525L45.4507 55.4083Z" fill="#0288F7" stroke="#EFF9FF" stroke-width="0.3"/>
<path d="M31.9611 44.0463C32.0337 44.3844 32.3325 44.6259 32.6783 44.6259H37.8128C38.2296 44.635 38.5872 44.2466 38.544 43.832L38.3216 41.1308C38.2903 40.7502 37.9723 40.4572 37.5905 40.4572H32.098C31.6446 40.4459 31.2743 40.9042 31.3807 41.345L31.9611 44.0463Z" fill="#0288F7"/>
<path d="M37.0163 43.1585H33.2712L33.0061 41.9246M31.9611 44.0463C32.0337 44.3844 32.3325 44.6259 32.6783 44.6259H37.8128C38.2296 44.635 38.5872 44.2466 38.544 43.832L38.3216 41.1308C38.2903 40.7502 37.9723 40.4572 37.5905 40.4572H32.098C31.6446 40.4459 31.2743 40.9042 31.3807 41.345L31.9611 44.0463Z" stroke="#EFF9FF" stroke-width="0.3"/>
<path d="M34.7307 52.707C34.5091 52.707 34.2993 52.8072 34.16 52.9796C34.0208 53.1521 33.9669 53.3781 34.0135 53.5948L34.5938 56.2961C34.6665 56.6342 34.9653 56.8757 35.3111 56.8757H38.8223C39.0273 56.8757 39.223 56.7899 39.3619 56.6391C39.5008 56.4882 39.5703 56.2861 39.5534 56.0818L39.3309 53.3806C39.2996 53 38.9816 52.707 38.5998 52.707H34.7307Z" fill="#0288F7"/>
<path d="M35.6388 54.1744L35.9039 55.4083H38.0256M34.7307 52.707C34.5091 52.707 34.2993 52.8072 34.16 52.9796C34.0208 53.1521 33.9669 53.3781 34.0135 53.5948L34.5938 56.2961C34.6665 56.6342 34.9653 56.8757 35.3111 56.8757H38.8223C39.0273 56.8757 39.223 56.7899 39.3619 56.6391C39.5008 56.4882 39.5703 56.2861 39.5534 56.0818L39.3309 53.3806C39.2996 53 38.9816 52.707 38.5998 52.707H34.7307Z" stroke="#EFF9FF" stroke-width="0.3"/>
<path d="M33.4143 46.582C33.1927 46.582 32.983 46.6822 32.8436 46.8546C32.7044 47.0271 32.6505 47.2531 32.6971 47.4698L33.2774 50.1712C33.35 50.5093 33.6489 50.7508 33.9947 50.7508H38.3176C38.5226 50.7508 38.7183 50.665 38.8572 50.5142C38.9961 50.3633 39.0656 50.1612 39.0487 49.9569L38.8263 47.2556C38.7949 46.875 38.4769 46.582 38.0951 46.582H33.4143ZM34.5875 49.2833L34.3223 48.0493H37.4193L37.5209 49.2833H34.5875Z" fill="#0288F7" stroke="#EFF9FF" stroke-width="0.3"/>
<path d="M40.5176 43.9523C40.549 44.3329 40.867 44.6258 41.2488 44.6258H47.1363C47.5181 44.6258 47.8362 44.333 47.8674 43.9523L48.0898 41.251C48.1328 40.8365 47.7755 40.4481 47.3586 40.4572H41.0262C40.6097 40.4481 40.2516 40.8365 40.2951 41.251L40.5176 43.9523ZM46.5622 41.9246L46.4605 43.1585H41.9245L41.8229 41.9246H46.5622Z" fill="#0288F7" stroke="#EFF9FF" stroke-width="0.3"/>
<path d="M50.0656 50.7508H54.5795C54.9253 50.7508 55.2241 50.5093 55.2969 50.1712L55.8773 47.4698C55.9238 47.2531 55.8699 47.027 55.7306 46.8546C55.5913 46.6822 55.3816 46.582 55.1599 46.582H50.288C49.9062 46.582 49.5881 46.8749 49.5569 47.2556L49.3345 49.9569C49.3177 50.1612 49.3871 50.3633 49.526 50.5142C49.6648 50.6649 49.8605 50.7508 50.0656 50.7508ZM50.9637 48.0494H54.2518L53.9866 49.2834H50.862L50.9637 48.0494Z" fill="#0288F7" stroke="#EFF9FF" stroke-width="0.3"/>
<path d="M50.5701 44.6259H55.8958C56.2416 44.6259 56.5404 44.3844 56.6132 44.0463L57.1935 41.345C57.2998 40.9042 56.9296 40.446 56.4761 40.4572H50.7926C50.4107 40.4572 50.0927 40.7501 50.0614 41.1308L49.839 43.832C49.7956 44.2466 50.1533 44.635 50.5701 44.6259Z" fill="#0288F7"/>
<path d="M51.4682 41.9246L51.3666 43.1585H55.3029M50.5701 44.6259H55.8958C56.2416 44.6259 56.5404 44.3844 56.6132 44.0463L57.1935 41.345C57.2998 40.9042 56.9296 40.446 56.4761 40.4572H50.7926C50.4107 40.4572 50.0927 40.7501 50.0614 41.1308L49.839 43.832C49.7956 44.2466 50.1533 44.635 50.5701 44.6259Z" stroke="#EFF9FF" stroke-width="0.3"/>
<path d="M46.8523 46.582H41.5286C41.3235 46.582 41.1278 46.6678 40.9889 46.8187C40.8501 46.9695 40.7805 47.1716 40.7974 47.3759L41.0198 50.0772C41.0511 50.4578 41.3691 50.7508 41.7509 50.7508H46.6298C47.0117 50.7508 47.3297 50.4579 47.361 50.0772L47.5833 47.3759C47.6001 47.1716 47.5307 46.9695 47.3918 46.8187C47.253 46.6678 47.0573 46.582 46.8523 46.582Z" fill="#0288F7"/>
<path d="M45.9541 49.2833H42.4267L42.3251 48.0493M46.8523 46.582H41.5286C41.3235 46.582 41.1278 46.6678 40.9889 46.8187C40.8501 46.9695 40.7805 47.1716 40.7974 47.3759L41.0198 50.0772C41.0511 50.4578 41.3691 50.7508 41.7509 50.7508H46.6298C47.0117 50.7508 47.3297 50.4579 47.361 50.0772L47.5833 47.3759C47.6001 47.1716 47.5307 46.9695 47.3918 46.8187C47.253 46.6678 47.0573 46.582 46.8523 46.582Z" stroke="#EFF9FF" stroke-width="0.3"/>
<path d="M49.5641 56.8757H53.2662C53.612 56.8757 53.9109 56.6342 53.9836 56.2961L54.5641 53.5948C54.6106 53.3781 54.5568 53.1521 54.4174 52.9796C54.2781 52.8072 54.0684 52.707 53.8467 52.707H49.7865C49.4047 52.707 49.0866 52.9999 49.0554 53.3806L48.833 56.0818C48.8162 56.2861 48.8857 56.4882 49.0245 56.6391C49.1634 56.7899 49.3591 56.8757 49.5641 56.8757Z" fill="#0288F7"/>
<path d="M50.4623 54.1745L50.3607 55.4084H52.6735M49.5641 56.8757H53.2662C53.612 56.8757 53.9109 56.6342 53.9836 56.2961L54.5641 53.5948C54.6106 53.3781 54.5568 53.1521 54.4174 52.9796C54.2781 52.8072 54.0684 52.707 53.8467 52.707H49.7865C49.4047 52.707 49.0866 52.9999 49.0554 53.3806L48.833 56.0818C48.8162 56.2861 48.8857 56.4882 49.0245 56.6391C49.1634 56.7899 49.3591 56.8757 49.5641 56.8757Z" stroke="#EFF9FF" stroke-width="0.3"/>
<path d="M37.812 61.3945C37.1165 61.3945 36.5527 61.9584 36.5527 62.6538C36.5527 63.3493 37.1165 63.9132 37.812 63.9132C38.5075 63.9132 39.0713 63.3493 39.0713 62.6538C39.0713 61.9584 38.5075 61.3945 37.812 61.3945Z" fill="#0288F7" stroke="#EFF9FF" stroke-width="0.3"/>
<path d="M50.5728 61.3945C49.8772 61.3945 49.3135 61.9584 49.3135 62.6538C49.3135 63.3493 49.8772 63.9132 50.5728 63.9132C51.2683 63.9132 51.832 63.3493 51.832 62.6538C51.832 61.9584 51.2683 61.3945 50.5728 61.3945Z" fill="#0288F7" stroke="#EFF9FF" stroke-width="0.3"/>
</svg>
