<svg width="90" height="91" viewBox="0 0 90 91" fill="none" xmlns="http://www.w3.org/2000/svg">
<path d="M90 45.6428C90 20.7149 69.8565 0.5 45.0068 0.5H44.9753C20.1255 0.5 0 20.7149 0 45.6428C2.20917 105.457 87.8043 105.448 90 45.6428Z" fill="#EFF9FF"/>
<path d="M68.0234 58.6717H67.0468V27.4219C67.0468 25.8064 65.7325 24.4922 64.1171 24.4922H23.8828C22.2674 24.4922 20.9531 25.8064 20.9531 27.4219V58.6717H19.9766C19.4373 58.6717 19 59.1089 19 59.6483V60.5779C19 62.1934 20.3142 63.5076 21.9296 63.5076H66.0703C67.6857 63.5076 69 62.1934 69 60.5779V59.6483C69 59.1089 68.5627 58.6717 68.0234 58.6717ZM22.9062 56.7185H39.6051C40.8995 56.6704 40.8985 54.8129 39.6051 54.7654H22.9062V27.4219C22.9062 26.8834 23.3443 26.4453 23.8828 26.4453H64.1171C64.6556 26.4453 65.0937 26.8834 65.0937 27.4219V54.7654H48.3942C47.0998 54.8134 47.1008 56.6709 48.3942 56.7185H65.0937V58.6717H49.8593C49.3201 58.6717 48.8828 59.1089 48.8828 59.6483H39.1171C39.1171 59.1089 38.6798 58.6717 38.1406 58.6717H22.9062V56.7185Z" fill="#0288F7" stroke="#EFF9FF" stroke-width="0.5"/>
<path d="M43.3073 43.8193C42.6909 45.3076 43.4002 47.02 44.8885 47.6365L45.941 48.0724C46.4344 48.2766 46.6695 48.8443 46.4651 49.3378C46.3669 49.5748 46.1805 49.7601 45.9401 49.8597C45.6998 49.9594 45.4368 49.96 45.1998 49.8619L44.6735 49.6439C44.175 49.4376 43.604 49.6742 43.3975 50.1724C43.1911 50.6708 43.4277 51.242 43.926 51.4483L44.4525 51.6663C45.1729 51.9646 45.9666 51.9627 46.6876 51.6641C47.41 51.3649 47.9719 50.8041 48.2696 50.085C48.8861 48.5967 48.1768 46.8844 46.6885 46.2679L45.636 45.832C45.1426 45.6276 44.9075 45.06 45.1119 44.5666C45.3163 44.0731 45.884 43.8382 46.3773 44.0425L46.9035 44.2604C47.402 44.4671 47.9732 44.2303 48.1795 43.7319C48.3859 43.2336 48.1491 42.6624 47.6509 42.456L47.1246 42.2381C45.6364 41.6215 43.9238 42.331 43.3073 43.8193Z" fill="#0288F7" stroke="#EFF9FF" stroke-width="0.3"/>
<path d="M50.8618 51.8337H54.2798C55.5741 51.7856 55.5732 49.9281 54.2798 49.8805H51.8384V43.0446C51.7903 41.7503 49.9328 41.7512 49.8853 43.0446V50.8571C49.8853 51.3965 50.3226 51.8337 50.8618 51.8337Z" fill="#0288F7" stroke="#EFF9FF" stroke-width="0.3"/>
<path d="M59.2358 42.0703C57.6204 42.0703 56.3062 43.3846 56.3062 45V50.8594C56.3542 52.1537 58.2117 52.1527 58.2593 50.8594V48.9062H60.2125V50.8594C60.2605 52.1537 62.1181 52.1527 62.1656 50.8594V45C62.1656 43.3846 60.8514 42.0703 59.2358 42.0703ZM60.2125 46.953H58.2593V45C58.3085 43.7059 60.1638 43.7069 60.2125 45V46.953Z" fill="#0288F7" stroke="#EFF9FF" stroke-width="0.3"/>
<path d="M46.7902 34.9911C41.0224 25.1365 25.9041 29.1714 25.8345 40.6064C25.8345 46.7986 30.8723 51.8364 37.0646 51.8364C37.6039 51.8364 38.0412 51.3992 38.0412 50.8599V41.17L46.4328 36.3251C46.8999 36.0555 47.06 35.4582 46.7902 34.9911ZM29.8534 34.7762L35.4741 40.3969L28.587 44.3731C27.1537 41.3398 27.7225 37.277 29.8534 34.7762ZM29.5662 46.0631L36.0881 42.2977V49.8323C33.4135 49.5513 31.0738 48.1291 29.5662 46.0631Z" fill="#0288F7" stroke="#EFF9FF" stroke-width="0.3"/>
<path d="M50.8591 33.2812H61.1863C62.4806 33.2332 62.4797 31.3757 61.1863 31.3281H50.8591C49.5647 31.3762 49.5657 33.2337 50.8591 33.2812Z" fill="#0288F7" stroke="#EFF9FF" stroke-width="0.3"/>
<path d="M61.1872 35.2344H56.0236C54.7293 35.2824 54.7302 37.1399 56.0236 37.1875H61.1872C62.4815 37.1395 62.4805 35.2819 61.1872 35.2344Z" fill="#0288F7" stroke="#EFF9FF" stroke-width="0.3"/>
<path d="M44.0008 54.7656H44.0001C43.4608 54.7656 43.0239 55.2028 43.0239 55.7422C43.072 57.036 44.9296 57.0359 44.9774 55.7422C44.9774 55.2028 44.5401 54.7656 44.0008 54.7656Z" fill="#0288F7" stroke="#EFF9FF" stroke-width="0.3"/>
</svg>
