<svg width="108" height="30" viewBox="0 0 108 30" fill="none" xmlns="http://www.w3.org/2000/svg">
<path d="M-4.47035e-08 29.05C1.08 29.29 1.89 29.41 2.43 29.41C4.65 29.41 6.27 28.78 7.32 27.52C8.37 26.26 8.91 24.64 8.91 22.63V1.33H5.7V22.63C5.7 24.82 4.68 26.35 2.43 26.35C1.56 26.35 0.84 26.26 0.3 26.08L-4.47035e-08 29.05ZM26.771 14.95C26.771 12.76 26.111 11.02 24.791 9.7C23.471 8.35 21.791 7.69 19.751 7.69C17.711 7.69 16.001 8.35 14.621 9.7C13.241 11.02 12.551 12.76 12.551 14.95C12.551 17.14 13.241 18.91 14.621 20.26C16.001 21.61 17.711 22.3 19.751 22.3C22.541 22.3 25.031 21.07 26.231 18.7L23.711 17.59C22.991 18.88 21.491 19.6 19.901 19.6C17.621 19.6 15.881 18.25 15.611 16.09H26.741C26.771 15.88 26.771 15.52 26.771 14.95ZM15.611 13.84C15.881 11.71 17.561 10.39 19.751 10.39C21.881 10.39 23.471 11.68 23.741 13.84H15.611ZM47.288 7.99L44.018 17.44L40.778 7.99H37.898L34.658 17.44L31.418 7.99H28.118L33.398 22H35.918L39.338 12.07L42.908 22H45.458L50.588 7.99H47.288ZM66.3511 14.95C66.3511 12.76 65.6911 11.02 64.3711 9.7C63.0511 8.35 61.3711 7.69 59.3311 7.69C57.2911 7.69 55.5811 8.35 54.2011 9.7C52.8211 11.02 52.1311 12.76 52.1311 14.95C52.1311 17.14 52.8211 18.91 54.2011 20.26C55.5811 21.61 57.2911 22.3 59.3311 22.3C62.1211 22.3 64.6111 21.07 65.8111 18.7L63.2911 17.59C62.5711 18.88 61.0711 19.6 59.4811 19.6C57.2011 19.6 55.4611 18.25 55.1911 16.09H66.3211C66.3511 15.88 66.3511 15.52 66.3511 14.95ZM55.1911 13.84C55.4611 11.71 57.1411 10.39 59.3311 10.39C61.4611 10.39 63.0511 11.68 63.3211 13.84H55.1911ZM72.7031 22V0.37H69.6131V22H72.7031ZM80.0852 22V7.99H77.0252V22H80.0852ZM78.5552 0.37C77.4452 0.37 76.4852 1.24 76.4852 2.32C76.4852 3.4 77.4452 4.27 78.5552 4.27C79.7252 4.27 80.5952 3.43 80.5952 2.32C80.5952 1.21 79.7252 0.37 78.5552 0.37ZM91.278 0.37C87.558 0.37 85.668 2.74 85.668 6.7V7.99H82.998V10.54H85.668V22H88.788V10.54H91.938V7.99H88.788V6.7C88.788 4.45 89.628 3.34 91.278 3.34H92.808V0.37H91.278ZM104.168 7.99L100.238 17.59L96.3384 7.99H93.0384L98.5884 21.34L95.5584 28.84H98.7984L107.468 7.99H104.168Z" fill="#202020"/>
</svg>
