<?xml version="1.0" encoding="utf-8"?>
<!-- Generator: Adobe Illustrator 24.3.1, SVG Export Plug-In . SVG Version: 6.00 Build 0)  -->
<svg version="1.1" id="Layer_1" xmlns="http://www.w3.org/2000/svg" xmlns:xlink="http://www.w3.org/1999/xlink" x="0px" y="0px"
	 viewBox="0 0 40 50" style="enable-background:new 0 0 40 50;" xml:space="preserve">
<style type="text/css">
	.st0{fill-rule:evenodd;clip-rule:evenodd;}
</style>
<path class="st0" d="M6,28h28c1.1,0,2,0.9,2,2s-0.9,2-2,2H6c-1.1,0-2-0.9-2-2S4.9,28,6,28L6,28z M6,18h28c1.1,0,2,0.9,2,2
	s-0.9,2-2,2H6c-1.1,0-2-0.9-2-2S4.9,18,6,18L6,18z M6,8h28c1.1,0,2,0.9,2,2l0,0c0,1.1-0.9,2-2,2H6c-1.1,0-2-0.9-2-2l0,0l0,0
	C4,8.9,4.9,8,6,8L6,8z"/>
</svg>
