<?xml version="1.0" encoding="utf-8"?>
<!-- Generator: Adobe Illustrator 24.3.1, SVG Export Plug-In . SVG Version: 6.00 Build 0)  -->
<svg version="1.1" id="Layer_1" xmlns="http://www.w3.org/2000/svg" xmlns:xlink="http://www.w3.org/1999/xlink" x="0px" y="0px"
	 viewBox="0 0 100 125" style="enable-background:new 0 0 100 125;" xml:space="preserve">
<path d="M50,5C25.2,5,5,25.2,5,50s20.2,45,45,45s45-20.2,45-45C95,25.2,74.8,5,50,5z M50,90.1c-22.1,0-40.1-18-40.1-40.1
	S27.9,9.9,50,9.9s40.1,18,40.1,40.1S72.1,90.1,50,90.1z"/>
<path d="M52.4,36.7c-1.3-1.3-3.5-1.3-4.8,0L29.5,54.8c-1,1-1,2.5,0,3.5c0.9,0.9,2.6,0.9,3.5,0l17-17l17,17c0.5,0.5,1.1,0.7,1.7,0.7
	s1.3-0.3,1.7-0.7s0.7-1.1,0.7-1.7s-0.3-1.3-0.7-1.7L52.4,36.7z"/>
</svg>
